<svg width="3842" height="756" viewBox="0 0 3842 756" fill="none" xmlns="http://www.w3.org/2000/svg">
<path d="M713.161 367.041C713.161 558.156 558.215 713.089 367.078 713.089C175.942 713.089 20.9961 558.156 20.9961 367.041C20.9961 175.923 175.942 20.9922 367.078 20.9922C558.215 20.9922 713.161 175.923 713.161 367.041ZM79.8303 367.041C79.8303 525.668 208.436 654.26 367.078 654.26C525.722 654.26 654.326 525.668 654.326 367.041C654.326 208.414 525.722 79.8204 367.078 79.8204C208.436 79.8204 79.8303 208.414 79.8303 367.041Z" fill="#25AFE1"/>
<path d="M581.359 133.994C592.356 122.033 591.64 103.314 578.787 93.3759C532.673 57.7173 478.154 34.1824 420.235 25.1806C352.596 14.6684 283.363 24.4467 221.284 53.2793C159.206 82.1118 107.072 128.703 71.4758 187.162C35.8798 245.62 18.4196 313.323 21.3035 381.704C24.1875 450.083 47.2859 516.072 87.6779 571.329C128.07 626.583 183.942 668.62 248.228 692.126C312.514 715.629 382.325 719.544 448.838 703.376C505.791 689.529 558.137 661.489 601.086 622.076C613.057 611.091 612.192 592.378 600.229 581.386C588.266 570.39 569.751 571.308 557.589 582.083C522.656 613.039 480.581 635.116 434.939 646.213C379.732 659.634 321.789 656.382 268.434 636.876C215.074 617.367 168.702 582.476 135.176 536.614C101.651 490.751 82.4788 435.98 80.0853 379.225C77.6915 322.467 92.1836 266.277 121.728 217.755C151.273 169.235 194.545 130.563 246.068 106.633C297.595 82.7017 355.061 74.5856 411.196 83.3107C457.613 90.5247 501.397 108.984 538.816 136.889C551.839 146.601 570.367 145.955 581.359 133.994Z" fill="#1F4EAD"/>
<path d="M535.278 232.738C529.93 226.621 522.395 222.895 514.321 222.372C506.248 221.849 498.298 224.574 492.222 229.95C466.93 252.44 422.705 320.535 394.906 394.172C388.486 411.189 382.853 428.644 378.398 446.116C357.383 413.187 339.81 393.417 318.641 369.554C304.075 353.155 287.662 334.661 266.518 307.331C264.07 304.14 261.022 301.463 257.547 299.458C254.073 297.454 250.241 296.161 246.267 295.648C242.295 295.136 238.264 295.417 234.401 296.475C230.536 297.536 226.918 299.349 223.75 301.816C217.353 306.802 213.184 314.141 212.159 322.219C211.137 330.301 213.339 338.456 218.287 344.901C240.313 373.381 257.694 392.959 273.113 410.332C305.157 446.406 328.083 472.254 372.121 560.888C377.363 573.969 391.087 582.124 405.475 579.708C413.467 578.367 420.601 573.883 425.31 567.243C430.022 560.605 431.922 552.355 430.595 544.306C424.54 507.677 435.104 460.752 451.994 416.015C476.461 351.234 512.692 293.704 532.504 276.077C538.58 270.701 542.284 263.114 542.802 254.986C543.323 246.858 540.617 238.855 535.278 232.738Z" fill="#1F4EAD"/>
<path d="M335.433 190.412C326.686 192.571 329.065 203.411 336.256 199.815C336.384 199.815 378.005 185.729 405.284 229.377C408.634 234.739 413.115 227.799 411.297 223.991C405.555 211.951 380.781 179.212 335.433 190.412ZM315.654 280.689C310.493 247.307 324.385 225.179 341.664 220.695C382.801 210.014 403.151 261.08 403.151 287.942C403.151 314.153 384.577 325.697 371.338 324.528C349.092 322.559 338.618 299.129 335.384 280.882C334.595 276.436 328.467 242.214 355.936 242.006C374.64 241.868 385.156 274.471 383.93 287.033C383.128 295.243 379.303 303.817 370.645 303.05C359.102 302.032 354.87 285.326 354.286 278.726C354.158 277.677 351.794 264.733 358.082 265.829C362.415 266.582 363.477 274.708 363.626 275.242C364.229 277.192 364.64 279.64 364.888 281.903C365.153 283.821 364.72 286.023 365.486 288.16C366.24 290.64 368.396 292.036 370.263 292.202C371.791 292.336 374.707 290.764 374.806 288.358C375.003 275.565 369.685 252.803 354.697 254.142C346.268 254.894 341.824 264.611 344.223 280.276C346.562 295.531 354.452 312.306 370.044 313.683C387.186 315.201 394.089 299.461 394.089 287.598C394.089 253.777 371.378 222.737 344.534 232.029C329.118 237.365 319.765 254.264 325.03 281.825C330.484 310.398 347.274 336.615 371.632 335.904C416.224 334.602 413.125 286.773 413.125 286.773C413.125 242.823 377.764 191.972 332.414 211.773C313.72 219.937 299.098 247.467 304.617 281.052C318.62 366.255 379.765 356.468 382.622 356.023L382.834 356.05C392.592 354.627 390.596 343.671 383.458 344.901C342.972 351.883 321.117 316.041 315.654 280.689Z" fill="#1F4EAD"/>
<path d="M1140.93 191.117C1092.11 191.117 1051.57 208.582 1019.33 243.514C987.079 278.445 970.955 323.228 970.955 377.866C970.955 432.503 987.079 477.286 1019.33 512.217C1051.57 547.149 1092.11 564.615 1140.93 564.615C1168.7 564.615 1192.43 561.703 1212.14 555.882C1231.85 550.061 1255.81 539.535 1284.03 524.309L1290.74 531.027V603.577C1241.92 625.52 1191.99 636.493 1140.93 636.493C1070.61 636.493 1010.82 612.31 961.549 563.943C912.731 515.576 888.32 453.55 888.32 377.866C888.32 302.181 912.731 240.155 961.549 191.788C1010.82 143.422 1070.61 119.238 1140.93 119.238C1193.33 119.238 1243.27 130.21 1290.74 152.154V224.704L1284.03 231.422C1255.81 216.196 1231.85 205.671 1212.14 199.849C1192.43 194.027 1168.7 191.117 1140.93 191.117ZM1587.81 380.553C1602.59 389.957 1618.71 408.542 1636.18 436.309C1654.09 463.626 1673.8 497.214 1695.3 537.072C1716.8 576.931 1733.14 605.592 1744.34 623.058V629.775H1658.35C1648.49 614.1 1632.82 585.439 1611.32 543.79C1590.27 502.141 1571.23 468.778 1554.21 443.698C1537.64 418.618 1522.19 404.736 1507.86 402.049H1458.14V623.058L1451.43 629.775H1386.26L1379.54 623.058V132.673L1386.26 125.956H1519.95C1569.67 125.956 1609.3 138.719 1638.86 164.246C1668.42 189.325 1683.2 222.689 1683.2 264.338C1683.2 292.999 1674.7 317.407 1657.68 337.56C1641.1 357.266 1617.81 371.595 1587.81 380.553ZM1458.14 334.201H1517.26C1543.24 334.201 1563.62 327.931 1578.4 315.392C1593.18 302.404 1600.57 285.387 1600.57 264.338C1600.57 242.842 1593.18 225.823 1578.4 213.285C1563.62 200.297 1543.24 193.804 1517.26 193.804H1458.14V334.201ZM2083.04 568.645V623.058L2076.32 629.775H1802.21L1795.49 623.058V132.673L1802.21 125.956H2062.88L2069.6 132.673V187.086L2062.88 193.804H1874.1V335.545H2036.01L2042.73 342.262V396.675L2036.01 403.392H1874.1V561.928H2076.32L2083.04 568.645ZM2165.02 125.956H2329.62C2399.95 125.956 2459.51 149.243 2508.32 195.819C2557.6 242.395 2582.22 303.076 2582.22 377.866C2582.22 452.655 2557.6 513.336 2508.32 559.912C2459.51 606.488 2399.95 629.775 2329.62 629.775H2165.02L2158.3 623.058V132.673L2165.02 125.956ZM2236.9 561.928H2329.62C2378.89 561.928 2419.43 544.909 2451.22 510.874C2483.46 476.39 2499.59 432.053 2499.59 377.866C2499.59 323.678 2483.46 279.564 2451.22 245.529C2419.43 211.045 2378.89 193.804 2329.62 193.804H2236.9V561.928ZM2945.13 568.645V623.058L2938.42 629.775H2664.31L2657.59 623.058V132.673L2664.31 125.956H2924.98L2931.7 132.673V187.086L2924.98 193.804H2736.2V335.545H2898.11L2904.82 342.262V396.675L2898.11 403.392H2736.2V561.928H2938.42L2945.13 568.645ZM3262.93 363.759C3326.08 384.359 3357.66 424.889 3357.66 485.347C3357.66 534.61 3341.3 571.108 3308.61 594.844C3276.36 618.131 3233.37 629.775 3179.62 629.775H3027.12L3020.4 623.058V132.673L3027.12 125.956H3160.81C3209.62 125.956 3249.03 138.048 3279.05 162.231C3309.05 186.414 3324.06 219.106 3324.06 260.308C3324.06 309.122 3303.68 343.606 3262.93 363.759ZM3242.1 262.995C3242.1 241.946 3234.71 225.152 3219.93 212.613C3205.15 200.073 3185 193.804 3159.47 193.804H3099V335.545H3159.47C3185.44 335.545 3205.59 329.052 3219.93 316.064C3234.71 303.076 3242.1 285.387 3242.1 262.995ZM3099 561.928H3176.93C3242.77 561.928 3275.69 535.954 3275.69 484.004C3275.69 456.686 3266.29 436.533 3247.48 423.545C3229.11 410.11 3203.81 403.392 3171.56 403.392H3099V561.928ZM3705.83 568.645V623.058L3699.11 629.775H3439.79L3433.07 623.058V132.673L3439.79 125.956H3504.95L3511.67 132.673V561.928H3699.11L3705.83 568.645Z" fill="black"/>
</svg>
