<svg width="524" height="204" viewBox="0 0 524 204" fill="none" xmlns="http://www.w3.org/2000/svg">
<g filter="url(#filter0_d_3741:1331)">
<rect x="2" y="2" width="520" height="200" rx="6" fill="#FCFCFC"/>
<mask id="mask0_3741:1331" style="mask-type:alpha" maskUnits="userSpaceOnUse" x="2" y="2" width="520" height="200">
<rect x="2" y="2" width="520" height="200" rx="6" fill="white"/>
</mask>
<g mask="url(#mask0_3741:1331)">
<path d="M303.04 119.865L299.723 116.548L300.92 115.35L303.04 117.47L306.51 114L307.708 115.198L303.04 119.865Z" fill="white"/>
<path d="M302.733 147.337L299.415 144.019L300.613 142.822L302.733 144.942L306.203 141.472L307.4 142.669L302.733 147.337Z" fill="white"/>
<path d="M303.318 173.865L300 170.548L301.198 169.35L303.318 171.47L306.788 168L307.985 169.198L303.318 173.865Z" fill="white"/>
</g>
<path d="M323.215 50.1743C325.022 49.4164 326.308 47.5531 326.318 45.3579C326.33 42.4806 324.153 40.1391 321.455 40.126C318.759 40.1143 316.563 42.4362 316.551 45.3122C316.542 47.5283 317.835 49.4138 319.663 50.1743C314.652 50.9295 312.261 54.0302 312.488 59.4751L330.259 59.5561C330.53 54.0525 328.182 50.9243 323.215 50.1743Z" fill="#F5F5F5"/>
<path d="M218.217 19.6488L206.604 15.542L195.102 19.594C193.635 20.276 192.347 20.685 192.347 22.0322V28.738C192.347 33.395 193.587 38.0101 196.136 42.0843C198.28 45.513 201.603 49.0423 206.716 51.2872C211.417 49.7832 214.926 45.7743 217.071 42.3456C219.621 38.2715 220.859 33.6563 220.859 28.9994V22.9691C220.859 21.0483 219.826 20.1101 218.217 19.6488Z" fill="#F5F5F5"/>
<path d="M210.461 30.4745C210.461 28.6987 209.021 27.2588 207.245 27.2588C205.47 27.2588 204.03 28.6987 204.03 30.4745C204.03 31.9445 205.022 33.1701 206.369 33.5543V38.3615H208.122V33.553C209.469 33.1701 210.461 31.9445 210.461 30.4745Z" fill="#EBEBEB"/>
<path d="M316.97 81.8095L318.951 82.881L318.06 84.3719L316.062 83.1906L316.099 85.3898H314.39L314.408 83.1723L312.41 84.3719L311.537 82.881L313.518 81.8095L311.537 80.7197L312.41 79.2288L314.408 80.4283L314.39 78.2109H316.099L316.062 80.4283L318.06 79.2288L318.951 80.7197L316.97 81.8095Z" fill="#E0E0E0"/>
<path d="M325.22 81.8095L327.199 82.881L326.309 84.3719L324.31 83.1906L324.347 85.3898H322.639L322.657 83.1723L320.658 84.3719L319.785 82.881L321.766 81.8095L319.785 80.7197L320.658 79.2288L322.657 80.4283L322.639 78.2109H324.347L324.31 80.4283L326.309 79.2288L327.199 80.7197L325.22 81.8095Z" fill="#E0E0E0"/>
<path d="M333.467 81.8095L335.448 82.881L334.558 84.3719L332.559 83.1906L332.596 85.3898H330.888L330.906 83.1723L328.907 84.3719L328.034 82.881L330.015 81.8095L328.034 80.7197L328.907 79.2288L330.906 80.4283L330.888 78.2109H332.596L332.559 80.4283L334.558 79.2288L335.448 80.7197L333.467 81.8095Z" fill="#E0E0E0"/>
<path d="M249.543 175.639V187.815H267.35H286.989V175.639H249.543Z" fill="#F5F5F5"/>
<path d="M247.973 172.234V175.638H288.299V172.234H267.351H247.973Z" fill="#EBEBEB"/>
<path d="M268.136 187.815H286.99V175.638H288.299V172.234H267.351V175.323L268.136 187.815Z" fill="#EBEBEB"/>
<path d="M254.782 177.603V179.436H262.375V177.603H254.782Z" fill="#E0E0E0"/>
<path d="M263.555 185.598H253.805V181.728H263.555V185.598Z" fill="white"/>
<path d="M255.305 160.075V172.252H273.112H292.751V160.075H255.305Z" fill="#F5F5F5"/>
<path d="M253.734 156.67V160.075H294.061V156.67H273.112H253.734Z" fill="#EBEBEB"/>
<path d="M273.898 172.252H292.751V160.075H294.061V156.67H273.112V159.76L273.898 172.252Z" fill="#EBEBEB"/>
<path d="M260.544 162.039V163.871H268.137V162.039H260.544Z" fill="#E0E0E0"/>
<path d="M269.317 170.033H259.566V166.163H269.317V170.033Z" fill="white"/>
<path d="M335.915 187.91C335.915 187.966 298.342 188.011 252.004 188.011C205.65 188.011 168.084 187.966 168.084 187.91C168.084 187.853 205.65 187.808 252.004 187.808C298.342 187.808 335.915 187.853 335.915 187.91Z" fill="#263238"/>
<path d="M301.277 92.496H231.253C229.833 92.496 228.68 91.3448 228.68 89.9245V25.4993C228.68 24.0789 229.833 22.9277 231.253 22.9277H301.277C302.698 22.9277 303.849 24.0789 303.849 25.4993V89.9245C303.849 91.3448 302.698 92.496 301.277 92.496Z" fill="white"/>
<path d="M301.277 92.4964C301.319 92.4924 301.38 92.4872 301.463 92.482C301.584 92.4728 301.767 92.448 302 92.3801C302.231 92.3082 302.513 92.1906 302.799 91.975C303.084 91.7607 303.38 91.4497 303.578 91.0198C303.8 90.5965 303.846 90.0607 303.824 89.4753C303.823 88.89 303.82 88.2484 303.819 87.5545C303.816 86.1669 303.813 84.5649 303.81 82.7617C303.802 75.5476 303.791 65.1112 303.777 52.217C303.773 45.7686 303.769 38.7061 303.765 31.1235C303.761 29.2301 303.757 27.3041 303.753 25.3467C303.709 24.3968 303.053 23.5043 302.145 23.1764C301.695 22.9882 301.203 23.0183 300.698 23.0183C300.197 23.0183 299.694 23.0183 299.189 23.0183C295.15 23.0196 290.994 23.0209 286.731 23.0222C269.681 23.0248 250.935 23.0274 231.259 23.03C230.666 23.0313 230.081 23.2482 229.637 23.635C229.188 24.0179 228.888 24.568 228.811 25.1494C228.77 25.4369 228.786 25.7453 228.782 26.051V26.9657C228.782 27.5746 228.782 28.1835 228.782 28.7911C228.782 31.2202 228.782 33.6336 228.782 36.03C228.782 40.8216 228.781 45.5439 228.781 50.1839C228.778 59.4625 228.777 68.4132 228.774 76.9405C228.773 81.2028 228.772 85.3606 228.77 89.3996C228.773 89.6504 228.764 89.9091 228.781 90.147C228.808 90.3887 228.856 90.6278 228.951 90.8513C229.131 91.3008 229.446 91.6914 229.84 91.9658C230.235 92.2389 230.708 92.3944 231.185 92.4049C231.678 92.4062 232.169 92.4075 232.658 92.4088C234.618 92.4101 236.545 92.4114 238.441 92.4114C246.023 92.4166 253.086 92.4206 259.534 92.4245C272.429 92.4375 282.864 92.4493 290.078 92.4571C293.682 92.465 296.48 92.4715 298.382 92.4754C299.329 92.4807 300.053 92.4833 300.542 92.4859C300.866 92.4885 301.111 92.4911 301.277 92.4964C301.111 92.5016 300.866 92.5042 300.542 92.5068C300.053 92.5094 299.329 92.512 298.382 92.5173C296.48 92.5212 293.682 92.5277 290.078 92.5356C282.864 92.5434 272.429 92.5552 259.534 92.5682C253.086 92.5721 246.023 92.576 238.441 92.5813C236.545 92.5813 234.618 92.5826 232.658 92.5839C232.168 92.5826 231.675 92.5813 231.181 92.5813C230.67 92.5695 230.163 92.4036 229.74 92.1109C229.316 91.8169 228.979 91.4001 228.785 90.9179C228.685 90.6788 228.632 90.4214 228.603 90.1639C228.583 89.9 228.594 89.6544 228.591 89.3996C228.59 85.3606 228.589 81.2028 228.586 76.9405C228.585 68.4132 228.582 59.4625 228.581 50.1839C228.579 45.5439 228.579 40.8216 228.579 36.03C228.579 33.6336 228.578 31.2202 228.578 28.7911C228.578 28.1835 228.578 27.5746 228.578 26.9657V26.051C228.582 25.7466 228.564 25.4408 228.608 25.1207C228.693 24.4909 229.017 23.895 229.503 23.4808C229.984 23.0614 230.619 22.8262 231.259 22.8262C250.935 22.8288 269.681 22.8314 286.731 22.834C290.994 22.8353 295.15 22.8379 299.189 22.8392C299.694 22.8392 300.197 22.8392 300.698 22.8392C301.188 22.8405 301.723 22.8092 302.206 23.0104C303.18 23.3619 303.88 24.3197 303.928 25.3363C303.93 27.2976 303.932 29.2262 303.934 31.1235C303.93 38.7061 303.924 45.7686 303.922 52.217C303.908 65.1112 303.897 75.5476 303.889 82.7617C303.885 84.5649 303.883 86.1669 303.879 87.5545C303.877 88.2484 303.876 88.89 303.875 89.4753C303.894 90.0568 303.845 90.6121 303.616 91.0381C303.411 91.4719 303.108 91.7855 302.818 91.9998C302.526 92.2154 302.239 92.3317 302.006 92.401C301.771 92.465 301.586 92.4872 301.463 92.4924C301.38 92.495 301.319 92.4964 301.277 92.4964Z" fill="#263238"/>
<path d="M234.354 27.75C234.354 28.4674 233.771 29.0501 233.054 29.0501C232.336 29.0501 231.755 28.4674 231.755 27.75C231.755 27.0326 232.336 26.4512 233.054 26.4512C233.771 26.4512 234.354 27.0326 234.354 27.75Z" fill="#263238"/>
<path d="M238.148 27.75C238.148 28.4674 237.566 29.0501 236.849 29.0501C236.132 29.0501 235.549 28.4674 235.549 27.75C235.549 27.0326 236.132 26.4512 236.849 26.4512C237.566 26.4512 238.148 27.0326 238.148 27.75Z" fill="#263238"/>
<path d="M241.944 27.75C241.944 28.4674 241.362 29.0501 240.645 29.0501C239.926 29.0501 239.345 28.4674 239.345 27.75C239.345 27.0326 239.926 26.4512 240.645 26.4512C241.362 26.4512 241.944 27.0326 241.944 27.75Z" fill="#263238"/>
<path d="M303.849 31.4359C303.849 31.4934 287.02 31.5391 266.266 31.5391C245.505 31.5391 228.68 31.4934 228.68 31.4359C228.68 31.3797 245.505 31.334 266.266 31.334C287.02 31.334 303.849 31.3797 303.849 31.4359Z" fill="#263238"/>
<path d="M276.883 57.6425C276.902 57.6151 276.933 57.5746 276.973 57.5223C276.987 57.5027 277.004 57.4805 277.024 57.4557C277.041 57.4296 277.055 57.3995 277.075 57.3681C277.11 57.3041 277.156 57.2309 277.189 57.1395C277.207 57.0951 277.228 57.048 277.246 56.9971C277.26 56.9448 277.275 56.8899 277.291 56.8311C277.31 56.7749 277.319 56.7122 277.33 56.6482C277.338 56.5828 277.355 56.5175 277.357 56.4456C277.387 56.1634 277.369 55.8341 277.313 55.4709C277.2 54.7417 276.891 53.882 276.418 52.949C275.945 52.0134 275.294 51.0073 274.494 49.958C273.693 48.9088 272.732 47.8256 271.626 46.7371C270.519 45.65 269.266 44.5576 267.862 43.524C267.159 43.0066 266.418 42.5061 265.636 42.0344C264.855 41.5614 264.032 41.1197 263.164 40.7382C262.295 40.3606 261.379 40.0313 260.414 39.8758C259.931 39.8013 259.435 39.766 258.946 39.8392C258.703 39.8771 258.464 39.9437 258.238 40.0444C258.016 40.1528 257.812 40.2979 257.644 40.4795C257.481 40.6676 257.36 40.8872 257.278 41.1197C257.203 41.3549 257.164 41.6006 257.154 41.8476C257.135 42.3415 257.228 42.8302 257.356 43.3006C257.621 44.2427 258.053 45.1168 258.526 45.9361C259.004 46.7554 259.536 47.5237 260.095 48.245C260.653 48.9676 261.236 49.6471 261.829 50.2873C263.017 51.5652 264.243 52.6864 265.45 53.6624C266.657 54.6372 267.843 55.4696 268.976 56.1451C270.109 56.8193 271.183 57.3525 272.167 57.7144C273.148 58.079 274.037 58.288 274.774 58.3168C275.141 58.3325 275.47 58.3129 275.747 58.2501C275.818 58.241 275.882 58.2162 275.945 58.2005C276.009 58.1835 276.069 58.1665 276.124 58.1417C276.179 58.1195 276.231 58.0973 276.282 58.0777C276.33 58.0541 276.375 58.0267 276.418 58.0045C276.505 57.9614 276.572 57.9078 276.631 57.8647C276.661 57.8425 276.689 57.8242 276.713 57.8046C276.735 57.7824 276.755 57.7641 276.773 57.7458C276.82 57.7 276.858 57.6661 276.883 57.6425C276.859 57.6674 276.824 57.704 276.777 57.751C276.759 57.768 276.739 57.7876 276.717 57.8098C276.693 57.8307 276.666 57.849 276.636 57.8712C276.577 57.9156 276.51 57.9705 276.423 58.0149C276.38 58.0385 276.335 58.0646 276.287 58.0894C276.237 58.1103 276.184 58.1312 276.129 58.1548C276.074 58.1796 276.013 58.1979 275.95 58.2149C275.886 58.2319 275.822 58.2567 275.751 58.2671C275.473 58.3325 275.142 58.3534 274.773 58.3403C274.032 58.3142 273.141 58.1077 272.155 57.7458C271.169 57.3838 270.092 56.8533 268.955 56.1804C267.819 55.5061 266.629 54.6738 265.419 53.699C264.211 52.7243 262.98 51.6031 261.79 50.3239C261.195 49.6836 260.611 49.0029 260.052 48.279C259.491 47.5564 258.957 46.7868 258.477 45.9649C258.002 45.1417 257.568 44.2662 257.301 43.3163C257.172 42.8419 257.078 42.348 257.096 41.8449C257.105 41.5941 257.146 41.3432 257.223 41.1015C257.308 40.8623 257.433 40.6363 257.6 40.4416C257.774 40.2521 257.986 40.1032 258.213 39.9921C258.446 39.8889 258.69 39.8209 258.938 39.783C259.435 39.7072 259.937 39.7438 260.423 39.8183C261.396 39.9764 262.316 40.307 263.186 40.6859C264.058 41.0701 264.882 41.5117 265.664 41.9874C266.448 42.4604 267.19 42.9621 267.893 43.4809C269.299 44.5184 270.553 45.6134 271.66 46.7031C272.766 47.7942 273.727 48.8813 274.527 49.9332C275.325 50.9851 275.975 51.9951 276.446 52.9346C276.918 53.8715 277.225 54.7339 277.335 55.4669C277.39 55.8328 277.407 56.1634 277.374 56.4469C277.372 56.5188 277.353 56.5855 277.344 56.6508C277.335 56.7161 277.325 56.7775 277.305 56.835C277.289 56.8938 277.274 56.9487 277.258 57.001C277.24 57.0519 277.217 57.099 277.199 57.1447C277.166 57.2362 277.119 57.308 277.081 57.3721C277.063 57.4047 277.048 57.4348 277.029 57.4596C277.011 57.4844 276.993 57.5067 276.977 57.5263C276.936 57.5785 276.905 57.6177 276.883 57.6425Z" fill="#1F4EAD"/>
<path d="M280.441 49.054C280.437 49.02 280.433 48.969 280.428 48.9037C280.427 48.8789 280.424 48.8514 280.422 48.8201C280.418 48.79 280.409 48.756 280.402 48.7208C280.386 48.6489 280.372 48.564 280.334 48.4738C280.318 48.4281 280.303 48.3797 280.282 48.3288C280.258 48.2804 280.232 48.2295 280.206 48.1759C280.182 48.121 280.149 48.0687 280.112 48.0139C280.075 47.9603 280.044 47.8989 279.998 47.844C279.834 47.6127 279.6 47.3801 279.316 47.1462C278.746 46.6771 277.944 46.242 276.969 45.8605C275.993 45.4763 274.838 45.1588 273.543 44.9092C272.248 44.6583 270.808 44.4898 269.259 44.414C267.709 44.3395 266.047 44.3591 264.31 44.5224C263.443 44.6048 262.556 44.7237 261.658 44.8922C260.76 45.0582 259.853 45.2777 258.95 45.5704C258.051 45.867 257.149 46.2303 256.324 46.7581C255.915 47.0221 255.52 47.3265 255.206 47.7068C255.049 47.8976 254.914 48.1066 254.814 48.3314C254.719 48.56 254.663 48.8044 254.659 49.0527C254.663 49.3009 254.719 49.544 254.812 49.7726C254.913 49.9987 255.047 50.2077 255.204 50.3985C255.519 50.7788 255.914 51.0832 256.323 51.3485C257.147 51.8764 258.05 52.2396 258.949 52.5362C259.852 52.8289 260.76 53.0484 261.658 53.2157C262.556 53.383 263.441 53.5032 264.31 53.5855C266.048 53.7475 267.71 53.7671 269.26 53.6926C270.81 53.6168 272.248 53.4483 273.545 53.1987C274.84 52.9478 275.995 52.6303 276.969 52.2462C277.944 51.8646 278.746 51.4295 279.316 50.9604C279.601 50.7265 279.834 50.4939 279.998 50.2626C280.044 50.2077 280.075 50.1476 280.112 50.0928C280.149 50.0379 280.182 49.9856 280.206 49.9307C280.232 49.8772 280.258 49.8262 280.282 49.7779C280.303 49.7282 280.318 49.6786 280.334 49.6328C280.372 49.5427 280.386 49.459 280.402 49.3859C280.409 49.3506 280.418 49.3179 280.422 49.2865C280.424 49.2565 280.427 49.2291 280.428 49.2042C280.433 49.1376 280.437 49.0879 280.441 49.054C280.441 49.0879 280.439 49.1376 280.435 49.2042C280.432 49.2291 280.431 49.2565 280.429 49.2879C280.426 49.3192 280.416 49.3519 280.41 49.3885C280.395 49.4603 280.382 49.5453 280.346 49.6367C280.329 49.6825 280.314 49.7321 280.294 49.7831C280.27 49.8314 280.245 49.8837 280.219 49.9373C280.196 49.9935 280.162 50.0457 280.126 50.1019C280.09 50.1555 280.058 50.2182 280.013 50.2731C279.848 50.5057 279.615 50.7422 279.331 50.9787C278.761 51.4517 277.957 51.892 276.981 52.2762C276.005 52.6643 274.849 52.9844 273.551 53.2379C272.255 53.4914 270.814 53.6626 269.261 53.741C267.71 53.8181 266.046 53.7998 264.305 53.6391C263.435 53.5567 262.546 53.4378 261.647 53.2693C260.748 53.1033 259.838 52.8838 258.932 52.5911C258.029 52.2932 257.122 51.9286 256.291 51.3968C255.88 51.129 255.48 50.8232 255.16 50.4351C254.999 50.2417 254.863 50.0274 254.759 49.7962C254.663 49.561 254.606 49.3088 254.601 49.0527C254.606 48.7952 254.663 48.5444 254.76 48.3092C254.863 48.0766 255.002 47.8636 255.161 47.6702C255.483 47.2834 255.881 46.9764 256.293 46.7098C257.125 46.178 258.031 45.8134 258.933 45.5168C259.839 45.2228 260.748 45.0046 261.647 44.8373C262.548 44.6701 263.436 44.5499 264.305 44.4689C266.046 44.3068 267.71 44.2899 269.261 44.3656C270.814 44.444 272.254 44.6152 273.551 44.8687C274.847 45.1222 276.004 45.4436 276.981 45.8304C277.957 46.2159 278.761 46.6549 279.331 47.1292C279.615 47.3644 279.848 47.6009 280.013 47.8335C280.058 47.8884 280.09 47.9511 280.126 48.006C280.162 48.0609 280.196 48.1145 280.219 48.1693C280.245 48.2242 280.27 48.2752 280.294 48.3248C280.314 48.3745 280.329 48.4241 280.346 48.4699C280.382 48.5613 280.395 48.6463 280.41 48.7195C280.416 48.7547 280.426 48.7887 280.429 48.8188C280.431 48.8501 280.432 48.8776 280.435 48.9024C280.439 48.969 280.441 49.02 280.441 49.054Z" fill="#1F4EAD"/>
<path d="M275.726 38.3612C275.698 38.3429 275.654 38.3155 275.6 38.2789C275.579 38.2658 275.555 38.2502 275.529 38.2332C275.503 38.2188 275.472 38.2044 275.439 38.1888C275.372 38.1574 275.296 38.1169 275.202 38.0908C275.157 38.0764 275.108 38.0581 275.056 38.0437C275.002 38.032 274.948 38.0215 274.889 38.0097C274.83 37.9954 274.769 37.9888 274.703 37.9836C274.638 37.9797 274.57 37.9666 274.499 37.9705C274.216 37.9588 273.888 38.0006 273.53 38.0816C272.81 38.2449 271.974 38.6121 271.075 39.1492C270.174 39.6849 269.215 40.4036 268.223 41.2738C267.233 42.144 266.218 43.1776 265.208 44.3562C264.2 45.5348 263.197 46.8611 262.261 48.3337C261.795 49.0707 261.346 49.8442 260.928 50.6557C260.51 51.4671 260.127 52.3191 259.806 53.2115C259.49 54.104 259.224 55.0408 259.136 56.0156C259.095 56.5004 259.092 56.9982 259.201 57.4804C259.254 57.7208 259.337 57.956 259.454 58.1729C259.577 58.3872 259.735 58.5806 259.929 58.7361C260.127 58.8851 260.355 58.9909 260.593 59.0575C260.833 59.1163 261.08 59.1385 261.327 59.1307C261.821 59.115 262.303 58.9896 262.763 58.8289C263.685 58.4996 264.526 58.0096 265.311 57.4804C266.096 56.9473 266.825 56.3632 267.507 55.7556C268.189 55.1493 268.827 54.5221 269.424 53.8857C270.617 52.6131 271.651 51.3116 272.542 50.0415C273.432 48.7701 274.181 47.5288 274.776 46.3515C275.371 45.1742 275.828 44.0674 276.122 43.0613C276.419 42.0565 276.567 41.1562 276.544 40.4179C276.534 40.0508 276.492 39.7241 276.411 39.451C276.395 39.3817 276.367 39.3203 276.346 39.2576C276.325 39.1962 276.304 39.1374 276.275 39.0838C276.249 39.0302 276.224 38.9793 276.201 38.9309C276.173 38.8839 276.144 38.8421 276.118 38.8003C276.07 38.7166 276.013 38.6526 275.964 38.5964C275.941 38.569 275.92 38.5416 275.899 38.5193C275.875 38.4984 275.856 38.4801 275.836 38.4632C275.788 38.4187 275.751 38.3848 275.726 38.3612C275.752 38.3821 275.79 38.4148 275.841 38.4592C275.86 38.4749 275.881 38.4945 275.904 38.5141C275.926 38.5363 275.947 38.5625 275.971 38.5912C276.02 38.6461 276.079 38.7101 276.129 38.7937C276.155 38.8356 276.185 38.8774 276.212 38.9244C276.236 38.9728 276.262 39.0237 276.288 39.0786C276.318 39.1309 276.339 39.191 276.361 39.2524C276.381 39.3151 276.411 39.3765 276.427 39.4471C276.51 39.7202 276.555 40.0481 276.567 40.4179C276.593 41.1588 276.448 42.063 276.154 43.0705C275.861 44.0792 275.406 45.1899 274.813 46.3698C274.218 47.551 273.471 48.7937 272.581 50.069C271.691 51.3417 270.658 52.647 269.463 53.9223C268.866 54.56 268.227 55.1898 267.544 55.7974C266.861 56.4063 266.13 56.9917 265.344 57.5274C264.556 58.0592 263.712 58.5519 262.782 58.8837C262.319 59.0445 261.831 59.1725 261.328 59.1882C261.077 59.196 260.825 59.1738 260.578 59.1137C260.332 59.0458 260.099 58.936 259.893 58.7831C259.694 58.6211 259.53 58.4212 259.403 58.2017C259.283 57.9782 259.2 57.7378 259.143 57.4935C259.035 57.0021 259.036 56.4991 259.078 56.0104C259.168 55.0278 259.435 54.087 259.752 53.1919C260.075 52.2968 260.461 51.4436 260.88 50.6308C261.298 49.8168 261.748 49.0419 262.217 48.305C263.155 46.8311 264.161 45.5048 265.171 44.3249C266.184 43.1462 267.202 42.1127 268.197 41.2424C269.192 40.3735 270.155 39.6561 271.059 39.1204C271.961 38.586 272.801 38.2201 273.525 38.0594C273.885 37.9797 274.215 37.9405 274.499 37.9522C274.571 37.9509 274.639 37.964 274.705 37.9679C274.77 37.9745 274.833 37.9797 274.891 37.9954C274.95 38.0071 275.006 38.0189 275.06 38.0306C275.112 38.0463 275.161 38.0646 275.206 38.079C275.3 38.1064 275.376 38.1482 275.443 38.1809C275.475 38.1979 275.507 38.211 275.533 38.2266C275.559 38.2449 275.581 38.2606 275.602 38.275C275.657 38.3116 275.699 38.3403 275.726 38.3612Z" fill="#1F4EAD"/>
<path d="M254.489 54.3794C254.676 54.5662 254.676 54.8707 254.489 55.0575C254.302 55.2444 253.999 55.2444 253.811 55.0575C253.624 54.8707 253.624 54.5662 253.811 54.3794C253.999 54.1925 254.302 54.1925 254.489 54.3794Z" fill="#1F4EAD"/>
<path d="M281.532 39.5284C281.532 39.7923 281.318 40.0066 281.053 40.0066C280.789 40.0066 280.573 39.7923 280.573 39.5284C280.573 39.2631 280.789 39.0488 281.053 39.0488C281.318 39.0488 281.532 39.2631 281.532 39.5284Z" fill="#1F4EAD"/>
<path d="M257.517 55.9555C257.517 56.0234 257.462 56.077 257.394 56.077C257.327 56.077 257.272 56.0234 257.272 55.9555C257.272 55.8889 257.327 55.834 257.394 55.834C257.462 55.834 257.517 55.8889 257.517 55.9555Z" fill="#1F4EAD"/>
<path d="M260.116 42.5252C260.116 42.5918 260.061 42.6467 259.995 42.6467C259.928 42.6467 259.873 42.5918 259.873 42.5252C259.873 42.4572 259.928 42.4023 259.995 42.4023C260.061 42.4023 260.116 42.4572 260.116 42.5252Z" fill="#1F4EAD"/>
<path d="M279.124 49.0535C279.124 49.1201 279.07 49.175 279.002 49.175C278.936 49.175 278.881 49.1201 278.881 49.0535C278.881 48.9855 278.936 48.9307 279.002 48.9307C279.07 48.9307 279.124 48.9855 279.124 49.0535Z" fill="#1F4EAD"/>
<path d="M280.818 43.3748C280.818 43.4414 280.763 43.4963 280.696 43.4963C280.628 43.4963 280.573 43.4414 280.573 43.3748C280.573 43.3068 280.628 43.252 280.696 43.252C280.763 43.252 280.818 43.3068 280.818 43.3748Z" fill="#1F4EAD"/>
<path d="M272.607 51.7312H271.101V43.5332C271.101 41.6032 269.532 40.0326 267.602 40.0326C265.672 40.0326 264.102 41.6032 264.102 43.5332V51.7312H262.596V43.5332C262.596 40.7722 264.842 38.5273 267.602 38.5273C270.361 38.5273 272.607 40.7722 272.607 43.5332V51.7312Z" fill="#1F4EAD"/>
<g opacity="0.302">
<g opacity="0.302">
<g opacity="0.302">
<path opacity="0.302" d="M272.607 51.7312H271.101V43.5332C271.101 41.6032 269.532 40.0326 267.602 40.0326C265.672 40.0326 264.102 41.6032 264.102 43.5332V51.7312H262.596V43.5332C262.596 40.7722 264.842 38.5273 267.602 38.5273C270.361 38.5273 272.607 40.7722 272.607 43.5332V51.7312Z" fill="black"/>
</g>
</g>
</g>
<path d="M273.465 56.7406H261.739C261.25 56.7406 260.855 56.346 260.855 55.8573V48.9673C260.855 48.4799 261.25 48.084 261.739 48.084H273.465C273.954 48.084 274.348 48.4799 274.348 48.9673V55.8573C274.348 56.346 273.954 56.7406 273.465 56.7406Z" fill="#1F4EAD"/>
<g opacity="0.302">
<g opacity="0.302">
<path opacity="0.302" d="M268.729 51.2862C268.729 50.6629 268.225 50.1572 267.601 50.1572C266.978 50.1572 266.474 50.6629 266.474 51.2862C266.474 51.801 266.821 52.2309 267.294 52.3655V54.0511H267.908V52.3655C268.381 52.2309 268.729 51.801 268.729 51.2862Z" fill="black"/>
</g>
</g>
<path d="M261.576 55.9201C261.544 55.9201 261.52 54.4762 261.52 52.6952C261.52 50.9142 261.544 49.4717 261.576 49.4717C261.606 49.4717 261.632 50.9142 261.632 52.6952C261.632 54.4762 261.606 55.9201 261.576 55.9201Z" fill="#FAFAFA"/>
<path d="M266.719 52.7305C266.715 52.7358 266.666 52.7122 266.587 52.6561C266.507 52.5986 266.401 52.5006 266.295 52.3594C266.085 52.0837 265.893 51.582 266.018 51.041C266.149 50.5014 266.546 50.1394 266.857 49.9878C267.015 49.9081 267.154 49.8689 267.251 49.8533C267.347 49.8376 267.401 49.8389 267.402 49.8454C267.406 49.8663 267.188 49.8872 266.895 50.0571C266.608 50.2191 266.248 50.568 266.127 51.0671C266.012 51.5663 266.176 52.0393 266.361 52.3137C266.546 52.5973 266.733 52.7135 266.719 52.7305Z" fill="#FAFAFA"/>
<path d="M287.634 71.9132H246.09C244.072 71.9132 242.438 70.2773 242.438 68.2611V67.8116C242.438 65.7941 244.072 64.1582 246.09 64.1582H287.634C289.651 64.1582 291.286 65.7941 291.286 67.8116V68.2611C291.286 70.2773 289.651 71.9132 287.634 71.9132Z" fill="#F5F5F5"/>
<path d="M287.993 82.5457H246.449C244.432 82.5457 242.797 80.9111 242.797 78.8936V78.4441C242.797 76.4266 244.432 74.792 246.449 74.792H287.993C290.011 74.792 291.645 76.4266 291.645 78.4441V78.8936C291.645 80.9111 290.011 82.5457 287.993 82.5457Z" fill="#F5F5F5"/>
<path d="M250.157 67.9753V66.8516H250.622V67.9583C250.622 68.3398 250.788 68.4966 251.069 68.4966C251.353 68.4966 251.516 68.3398 251.516 67.9583V66.8516H251.975V67.9753C251.975 68.5659 251.636 68.8926 251.067 68.8926C250.496 68.8926 250.157 68.5659 250.157 67.9753Z" fill="#263238"/>
<path d="M252.253 68.7156L252.402 68.3941C252.539 68.483 252.748 68.5431 252.936 68.5431C253.143 68.5431 253.22 68.4882 253.22 68.4033C253.22 68.1511 252.29 68.4085 252.29 67.7931C252.29 67.5004 252.553 67.2939 253.003 67.2939C253.215 67.2939 253.45 67.3423 253.596 67.4285L253.447 67.7473C253.296 67.6611 253.143 67.6324 253.003 67.6324C252.803 67.6324 252.717 67.6951 252.717 67.7761C252.717 68.0387 253.647 67.7839 253.647 68.3915C253.647 68.6777 253.382 68.8815 252.919 68.8815C252.659 68.8815 252.395 68.8097 252.253 68.7156Z" fill="#263238"/>
<path fill-rule="evenodd" clip-rule="evenodd" d="M255.425 68.2138H254.258C254.301 68.4059 254.465 68.5235 254.7 68.5235C254.863 68.5235 254.981 68.4739 255.086 68.3745L255.324 68.632C255.181 68.7953 254.966 68.8815 254.688 68.8815C254.155 68.8815 253.809 68.5457 253.809 68.0871C253.809 67.6258 254.161 67.2939 254.63 67.2939C255.084 67.2939 255.433 67.5984 255.433 68.0936C255.433 68.1276 255.428 68.1759 255.425 68.2138ZM254.253 67.9525H255.012C254.981 67.7578 254.834 67.6324 254.634 67.6324C254.431 67.6324 254.284 67.7552 254.253 67.9525Z" fill="#263238"/>
<path d="M256.688 67.2939V67.7068C256.65 67.7042 256.622 67.7016 256.588 67.7016C256.341 67.7016 256.177 67.8349 256.177 68.1302V68.858H255.73V67.3175H256.158V67.52C256.266 67.371 256.45 67.2939 256.688 67.2939Z" fill="#263238"/>
<path d="M258.53 67.976V68.858H258.083V68.0453C258.083 67.7957 257.968 67.6807 257.771 67.6807C257.555 67.6807 257.401 67.8127 257.401 68.0962V68.858H256.954V67.3175H257.38V67.4978C257.5 67.3658 257.682 67.2939 257.891 67.2939C258.254 67.2939 258.53 67.5056 258.53 67.976Z" fill="#263238"/>
<path fill-rule="evenodd" clip-rule="evenodd" d="M260.298 67.9786V68.858H259.88V68.6659C259.796 68.807 259.635 68.8815 259.409 68.8815C259.049 68.8815 258.833 68.6803 258.833 68.4137C258.833 68.142 259.025 67.9525 259.495 67.9525H259.851C259.851 67.7617 259.736 67.6494 259.495 67.6494C259.332 67.6494 259.164 67.7042 259.051 67.7931L258.891 67.4808C259.059 67.3606 259.309 67.2939 259.556 67.2939C260.025 67.2939 260.298 67.5122 260.298 67.9786ZM259.851 68.3719V68.2138H259.544C259.335 68.2138 259.269 68.2909 259.269 68.3941C259.269 68.5065 259.364 68.581 259.52 68.581C259.669 68.581 259.799 68.5117 259.851 68.3719Z" fill="#263238"/>
<path d="M263.306 67.976V68.858H262.859V68.0453C262.859 67.7957 262.748 67.6807 262.567 67.6807C262.367 67.6807 262.227 67.8101 262.227 68.0845V68.858H261.779V68.0453C261.779 67.7957 261.673 67.6807 261.487 67.6807C261.289 67.6807 261.149 67.8101 261.149 68.0845V68.858H260.702V67.3175H261.129V67.4952C261.243 67.3632 261.416 67.2939 261.613 67.2939C261.828 67.2939 262.011 67.3776 262.12 67.5461C262.243 67.388 262.444 67.2939 262.677 67.2939C263.042 67.2939 263.306 67.5056 263.306 67.976Z" fill="#263238"/>
<path fill-rule="evenodd" clip-rule="evenodd" d="M265.225 68.2138H264.06C264.103 68.4059 264.265 68.5235 264.5 68.5235C264.664 68.5235 264.781 68.4739 264.888 68.3745L265.125 68.632C264.982 68.7953 264.767 68.8815 264.49 68.8815C263.957 68.8815 263.61 68.5457 263.61 68.0871C263.61 67.6258 263.962 67.2939 264.432 67.2939C264.884 67.2939 265.235 67.5984 265.235 68.0936C265.235 68.1276 265.228 68.1759 265.225 68.2138ZM264.053 67.9525H264.812C264.781 67.7578 264.635 67.6324 264.435 67.6324C264.231 67.6324 264.086 67.7552 264.053 67.9525Z" fill="#263238"/>
<path fill-rule="evenodd" clip-rule="evenodd" d="M268.18 68.0737C268.18 68.5859 267.945 68.8786 267.592 68.8786C267.397 68.8786 267.26 68.7924 267.2 68.6291C267.099 68.7898 266.936 68.8786 266.71 68.8786C266.34 68.8786 266.049 68.5859 266.049 68.1534C266.049 67.7235 266.337 67.4308 266.71 67.4308C266.899 67.4308 267.048 67.4975 267.152 67.6203V67.4518H267.541V68.3795C267.541 68.5167 267.601 68.5624 267.678 68.5624C267.81 68.5624 267.891 68.4108 267.891 68.079C267.891 67.4975 267.461 67.0963 266.825 67.0963C266.186 67.0963 265.759 67.5315 265.759 68.1299C265.759 68.7401 266.177 69.1739 266.813 69.1739C266.993 69.1739 267.197 69.136 267.378 69.0472L267.469 69.3111C267.294 69.4 267.039 69.4483 266.813 69.4483C265.985 69.4483 265.438 68.8865 265.438 68.1299C265.438 67.3825 265.991 66.8232 266.825 66.8232C267.63 66.8232 268.18 67.3537 268.18 68.0737ZM267.157 68.1534C267.157 67.9039 267.005 67.764 266.799 67.764C266.59 67.764 266.443 67.9091 266.443 68.1534C266.443 68.3991 266.59 68.548 266.799 68.548C267.005 68.548 267.157 68.4056 267.157 68.1534Z" fill="#263238"/>
<path d="M271.101 67.976V68.858H270.654V68.0453C270.654 67.7957 270.543 67.6807 270.363 67.6807C270.162 67.6807 270.022 67.8101 270.022 68.0845V68.858H269.575V68.0453C269.575 67.7957 269.469 67.6807 269.282 67.6807C269.085 67.6807 268.944 67.8101 268.944 68.0845V68.858H268.497V67.3175H268.924V67.4952C269.039 67.3632 269.211 67.2939 269.409 67.2939C269.623 67.2939 269.806 67.3776 269.916 67.5461C270.039 67.388 270.239 67.2939 270.471 67.2939C270.839 67.2939 271.101 67.5056 271.101 67.976Z" fill="#263238"/>
<path fill-rule="evenodd" clip-rule="evenodd" d="M272.867 67.9786V68.858H272.449V68.6659C272.366 68.807 272.206 68.8815 271.98 68.8815C271.618 68.8815 271.403 68.6803 271.403 68.4137C271.403 68.142 271.595 67.9525 272.064 67.9525H272.42C272.42 67.7617 272.306 67.6494 272.064 67.6494C271.901 67.6494 271.733 67.7042 271.622 67.7931L271.461 67.4808C271.629 67.3606 271.879 67.2939 272.125 67.2939C272.595 67.2939 272.867 67.5122 272.867 67.9786ZM272.42 68.3719V68.2138H272.114C271.905 68.2138 271.838 68.2909 271.838 68.3941C271.838 68.5065 271.934 68.581 272.091 68.581C272.24 68.581 272.369 68.5117 272.42 68.3719Z" fill="#263238"/>
<path d="M273.218 66.8518C273.218 66.712 273.33 66.6035 273.496 66.6035C273.662 66.6035 273.773 66.7067 273.773 66.8439C273.773 66.9929 273.662 67.1014 273.496 67.1014C273.33 67.1014 273.218 66.9929 273.218 66.8518ZM273.273 67.317H273.718V68.8575H273.273V67.317Z" fill="#263238"/>
<path d="M274.135 66.7314H274.582V68.8574H274.135V66.7314Z" fill="#263238"/>
<path d="M274.887 68.5999C274.887 68.434 275.011 68.3242 275.165 68.3242C275.321 68.3242 275.443 68.434 275.443 68.5999C275.443 68.7633 275.321 68.8809 275.165 68.8809C275.011 68.8809 274.887 68.7633 274.887 68.5999Z" fill="#263238"/>
<path d="M275.612 68.0871C275.612 67.6232 275.97 67.2939 276.472 67.2939C276.796 67.2939 277.051 67.4351 277.162 67.6872L276.816 67.8728C276.732 67.7264 276.609 67.6611 276.468 67.6611C276.242 67.6611 276.064 67.8179 276.064 68.0871C276.064 68.3576 276.242 68.5144 276.468 68.5144C276.609 68.5144 276.732 68.4516 276.816 68.3027L277.162 68.4921C277.051 68.7378 276.796 68.8815 276.472 68.8815C275.97 68.8815 275.612 68.5522 275.612 68.0871Z" fill="#263238"/>
<path fill-rule="evenodd" clip-rule="evenodd" d="M277.286 68.0871C277.286 67.6232 277.644 67.2939 278.134 67.2939C278.624 67.2939 278.978 67.6232 278.978 68.0871C278.978 68.5522 278.624 68.8815 278.134 68.8815C277.644 68.8815 277.286 68.5522 277.286 68.0871ZM278.526 68.0871C278.526 67.8218 278.358 67.6611 278.134 67.6611C277.909 67.6611 277.738 67.8218 277.738 68.0871C277.738 68.3536 277.909 68.5144 278.134 68.5144C278.358 68.5144 278.526 68.3536 278.526 68.0871Z" fill="#263238"/>
<path d="M281.881 67.976V68.858H281.435V68.0453C281.435 67.7957 281.322 67.6807 281.142 67.6807C280.942 67.6807 280.801 67.8101 280.801 68.0845V68.858H280.354V68.0453C280.354 67.7957 280.248 67.6807 280.063 67.6807C279.864 67.6807 279.724 67.8101 279.724 68.0845V68.858H279.277V67.3175H279.703V67.4952C279.818 67.3632 279.989 67.2939 280.188 67.2939C280.402 67.2939 280.587 67.3776 280.695 67.5461C280.818 67.388 281.019 67.2939 281.252 67.2939C281.618 67.2939 281.881 67.5056 281.881 67.976Z" fill="#263238"/>
<path d="M256.145 78.711L256.87 79.1043L256.543 79.6492L255.811 79.2167L255.825 80.0229H255.199L255.206 79.2102L254.473 79.6492L254.153 79.1043L254.88 78.711L254.153 78.3112L254.473 77.7663L255.206 78.2053L255.199 77.3926H255.825L255.811 78.2053L256.543 77.7663L256.87 78.3112L256.145 78.711Z" fill="#263238"/>
<path d="M259.166 78.711L259.891 79.1043L259.566 79.6492L258.833 79.2167L258.846 80.0229H258.22L258.228 79.2102L257.495 79.6492L257.176 79.1043L257.901 78.711L257.176 78.3112L257.495 77.7663L258.228 78.2053L258.22 77.3926H258.846L258.833 78.2053L259.566 77.7663L259.891 78.3112L259.166 78.711Z" fill="#263238"/>
<path d="M262.187 78.711L262.912 79.1043L262.585 79.6492L261.853 79.2167L261.867 80.0229H261.241L261.247 79.2102L260.515 79.6492L260.195 79.1043L260.922 78.711L260.195 78.3112L260.515 77.7663L261.247 78.2053L261.241 77.3926H261.867L261.853 78.2053L262.585 77.7663L262.912 78.3112L262.187 78.711Z" fill="#263238"/>
<path d="M265.208 78.711L265.933 79.1043L265.607 79.6492L264.875 79.2167L264.888 80.0229H264.262L264.27 79.2102L263.537 79.6492L263.217 79.1043L263.943 78.711L263.217 78.3112L263.537 77.7663L264.27 78.2053L264.262 77.3926H264.888L264.875 78.2053L265.607 77.7663L265.933 78.3112L265.208 78.711Z" fill="#263238"/>
<path d="M268.228 78.711L268.954 79.1043L268.628 79.6492L267.895 79.2167L267.908 80.0229H267.282L267.29 79.2102L266.557 79.6492L266.238 79.1043L266.963 78.711L266.238 78.3112L266.557 77.7663L267.29 78.2053L267.282 77.3926H267.908L267.895 78.2053L268.628 77.7663L268.954 78.3112L268.228 78.711Z" fill="#263238"/>
<path d="M271.25 78.711L271.975 79.1043L271.65 79.6492L270.917 79.2167L270.93 80.0229H270.304L270.312 79.2102L269.579 79.6492L269.26 79.1043L269.985 78.711L269.26 78.3112L269.579 77.7663L270.312 78.2053L270.304 77.3926H270.93L270.917 78.2053L271.65 77.7663L271.975 78.3112L271.25 78.711Z" fill="#263238"/>
<path d="M274.271 78.711L274.996 79.1043L274.67 79.6492L273.937 79.2167L273.951 80.0229H273.325L273.332 79.2102L272.599 79.6492L272.279 79.1043L273.006 78.711L272.279 78.3112L272.599 77.7663L273.332 78.2053L273.325 77.3926H273.951L273.937 78.2053L274.67 77.7663L274.996 78.3112L274.271 78.711Z" fill="#263238"/>
<path d="M277.292 78.711L278.017 79.1043L277.692 79.6492L276.959 79.2167L276.972 80.0229H276.346L276.354 79.2102L275.621 79.6492L275.302 79.1043L276.027 78.711L275.302 78.3112L275.621 77.7663L276.354 78.2053L276.346 77.3926H276.972L276.959 78.2053L277.692 77.7663L278.017 78.3112L277.292 78.711Z" fill="#263238"/>
<path d="M310.329 135.563H251.91C250.529 135.563 249.409 134.443 249.409 133.063V102.824C249.409 101.443 250.529 100.323 251.91 100.323H310.329C311.708 100.323 312.828 101.443 312.828 102.824V133.063C312.828 134.443 311.708 135.563 310.329 135.563Z" fill="white"/>
<path d="M310.329 135.563C310.327 135.553 310.499 135.566 310.821 135.503C311.136 135.434 311.622 135.27 312.08 134.818C312.304 134.592 312.511 134.292 312.647 133.923C312.72 133.74 312.758 133.536 312.787 133.325C312.802 133.112 312.8 132.886 312.798 132.651C312.796 131.71 312.792 130.625 312.789 129.405C312.781 124.517 312.77 117.451 312.757 108.722C312.755 107.63 312.754 106.512 312.753 105.37C312.753 104.799 312.751 104.221 312.751 103.637C312.737 103.053 312.813 102.455 312.574 101.92C312.358 101.386 311.941 100.927 311.415 100.665C311.152 100.531 310.864 100.448 310.569 100.418C310.278 100.395 309.959 100.41 309.652 100.406C308.414 100.407 307.152 100.407 305.869 100.409C300.734 100.411 295.249 100.415 289.476 100.418C277.93 100.42 265.237 100.423 251.914 100.427C251.514 100.428 251.117 100.53 250.766 100.716C250.419 100.912 250.115 101.185 249.899 101.519C249.688 101.854 249.547 102.237 249.522 102.632C249.502 103.03 249.517 103.453 249.511 103.861C249.511 105.506 249.511 107.14 249.511 108.763C249.511 112.008 249.51 115.205 249.51 118.346C249.509 121.489 249.509 124.574 249.507 127.596C249.506 129.108 249.506 130.603 249.506 132.081C249.509 132.449 249.5 132.824 249.511 133.182C249.528 133.535 249.624 133.883 249.787 134.194C250.118 134.816 250.728 135.272 251.409 135.415C251.744 135.495 252.102 135.462 252.464 135.47C252.822 135.47 253.18 135.47 253.537 135.47C254.249 135.47 254.957 135.47 255.66 135.472C257.066 135.472 258.454 135.473 259.822 135.473C262.557 135.476 265.212 135.477 267.78 135.478C272.914 135.483 277.696 135.487 282.063 135.491C290.793 135.504 297.858 135.516 302.745 135.524C305.183 135.532 307.078 135.538 308.367 135.542C309.008 135.547 309.496 135.55 309.83 135.553C310.049 135.555 310.215 135.559 310.329 135.563C310.215 135.568 310.049 135.571 309.83 135.574C309.496 135.576 309.008 135.579 308.367 135.584C307.078 135.588 305.183 135.594 302.745 135.604C297.858 135.61 290.793 135.622 282.063 135.635C277.696 135.639 272.914 135.643 267.78 135.648C265.212 135.649 262.557 135.651 259.822 135.653C258.454 135.653 257.066 135.655 255.66 135.655C254.957 135.656 254.249 135.656 253.537 135.656C253.18 135.656 252.822 135.657 252.464 135.657C252.11 135.649 251.742 135.685 251.369 135.6C250.635 135.446 249.976 134.954 249.62 134.283C249.442 133.948 249.339 133.572 249.321 133.192C249.307 132.815 249.317 132.453 249.314 132.081C249.313 130.603 249.313 129.108 249.313 127.596C249.311 124.574 249.31 121.489 249.31 118.346C249.309 115.205 249.309 112.008 249.309 108.763C249.307 107.14 249.307 105.506 249.307 103.861C249.313 103.447 249.297 103.045 249.318 102.617C249.345 102.188 249.498 101.77 249.728 101.408C249.962 101.045 250.291 100.748 250.668 100.537C251.049 100.334 251.482 100.224 251.914 100.222C265.237 100.224 277.93 100.228 289.476 100.23C295.249 100.233 300.734 100.236 305.869 100.24C307.152 100.24 308.414 100.241 309.652 100.243C309.964 100.247 310.263 100.232 310.585 100.256C310.9 100.288 311.207 100.378 311.486 100.521C312.047 100.803 312.491 101.292 312.72 101.862C312.836 102.146 312.898 102.452 312.903 102.755C312.904 103.051 312.904 103.345 312.906 103.637C312.906 104.221 312.904 104.799 312.904 105.37C312.903 106.512 312.902 107.63 312.9 108.722C312.887 117.451 312.875 124.517 312.868 129.405C312.865 130.625 312.861 131.71 312.858 132.651C312.858 132.884 312.86 133.11 312.841 133.33C312.811 133.547 312.77 133.755 312.694 133.94C312.553 134.317 312.34 134.62 312.108 134.847C311.639 135.302 311.144 135.461 310.825 135.524C310.662 135.55 310.538 135.564 310.454 135.562C310.398 135.564 310.356 135.564 310.329 135.563Z" fill="#263238"/>
<path d="M271.505 112.777V113.216H269.671V110.847H271.461V111.287H270.216V111.801H271.316V112.228H270.216V112.777H271.505Z" fill="#263238"/>
<path d="M274.116 110.847V113.216H273.667L272.484 111.777V113.216H271.943V110.847H272.397L273.575 112.285V110.847H274.116Z" fill="#263238"/>
<path d="M275.171 111.294H274.412V110.847H276.478V111.294H275.719V113.216H275.171V111.294Z" fill="#263238"/>
<path d="M278.607 112.777V113.216H276.771V110.847H278.563V111.287H277.318V111.801H278.417V112.228H277.318V112.777H278.607Z" fill="#263238"/>
<path fill-rule="evenodd" clip-rule="evenodd" d="M280.554 113.216L280.097 112.556H279.593V113.216H279.044V110.847H280.071C280.703 110.847 281.099 111.175 281.099 111.706C281.099 112.062 280.92 112.322 280.612 112.454L281.144 113.216H280.554ZM280.04 111.294H279.593V112.119H280.04C280.375 112.119 280.544 111.964 280.544 111.706C280.544 111.445 280.375 111.294 280.04 111.294Z" fill="#263238"/>
<path d="M282.343 112.031C282.343 111.317 282.89 110.806 283.629 110.806C284.039 110.806 284.38 110.955 284.603 111.225L284.252 111.55C284.092 111.368 283.892 111.272 283.656 111.272C283.213 111.272 282.897 111.584 282.897 112.031C282.897 112.478 283.213 112.789 283.656 112.789C283.892 112.789 284.092 112.694 284.252 112.508L284.603 112.834C284.38 113.108 284.039 113.257 283.626 113.257C282.89 113.257 282.343 112.745 282.343 112.031Z" fill="#263238"/>
<path fill-rule="evenodd" clip-rule="evenodd" d="M284.774 112.031C284.774 111.327 285.322 110.806 286.071 110.806C286.815 110.806 287.367 111.323 287.367 112.031C287.367 112.738 286.815 113.257 286.071 113.257C285.322 113.257 284.774 112.736 284.774 112.031ZM286.812 112.031C286.812 111.581 286.494 111.272 286.071 111.272C285.647 111.272 285.328 111.581 285.328 112.031C285.328 112.481 285.647 112.789 286.071 112.789C286.494 112.789 286.812 112.481 286.812 112.031Z" fill="#263238"/>
<path fill-rule="evenodd" clip-rule="evenodd" d="M287.781 110.847H288.858C289.633 110.847 290.165 111.313 290.165 112.032C290.165 112.749 289.633 113.216 288.858 113.216H287.781V110.847ZM288.83 112.766C289.301 112.766 289.609 112.485 289.609 112.032C289.609 111.578 289.301 111.297 288.83 111.297H288.33V112.766H288.83Z" fill="#263238"/>
<path d="M292.414 112.777V113.216H290.579V110.847H292.369V111.287H291.124V111.801H292.224V112.228H291.124V112.777H292.414Z" fill="#263238"/>
<path d="M262.512 129.062H256.756C255.901 129.062 255.208 128.368 255.208 127.512V118.549C255.208 117.693 255.901 116.999 256.756 116.999H262.512C263.368 116.999 264.062 117.693 264.062 118.549V127.512C264.062 128.368 263.368 129.062 262.512 129.062Z" fill="#EBEBEB"/>
<path d="M273.571 129.062H267.814C266.959 129.062 266.266 128.368 266.266 127.512V118.549C266.266 117.693 266.959 116.999 267.814 116.999H273.571C274.426 116.999 275.12 117.693 275.12 118.549V127.512C275.12 128.368 274.426 129.062 273.571 129.062Z" fill="#EBEBEB"/>
<path d="M284.628 129.062H278.872C278.016 129.062 277.322 128.368 277.322 127.512V118.549C277.322 117.693 278.016 116.999 278.872 116.999H284.628C285.484 116.999 286.176 117.693 286.176 118.549V127.512C286.176 128.368 285.484 129.062 284.628 129.062Z" fill="#EBEBEB"/>
<path d="M295.684 129.062H289.929C289.073 129.062 288.379 128.368 288.379 127.512V118.549C288.379 117.693 289.073 116.999 289.929 116.999H295.684C296.54 116.999 297.234 117.693 297.234 118.549V127.512C297.234 128.368 296.54 129.062 295.684 129.062Z" fill="#EBEBEB"/>
<path d="M306.742 129.062H300.986C300.13 129.062 299.438 128.368 299.438 127.512V118.549C299.438 117.693 300.13 116.999 300.986 116.999H306.742C307.598 116.999 308.291 117.693 308.291 118.549V127.512C308.291 128.368 307.598 129.062 306.742 129.062Z" fill="#EBEBEB"/>
<path fill-rule="evenodd" clip-rule="evenodd" d="M261.564 123.963C261.564 124.824 260.898 125.383 259.996 125.383C258.759 125.383 258.105 124.494 258.105 123.021C258.105 121.426 258.953 120.604 260.199 120.604C260.602 120.604 260.979 120.672 261.269 120.848L261.126 121.123C260.885 120.969 260.555 120.908 260.199 120.908C259.142 120.908 258.449 121.601 258.449 122.967C258.449 123.108 258.456 123.317 258.49 123.533C258.684 122.913 259.276 122.563 259.99 122.563C260.932 122.563 261.564 123.115 261.564 123.963ZM261.221 123.969C261.221 123.298 260.737 122.86 259.943 122.86C259.169 122.86 258.637 123.351 258.637 123.984C258.637 124.535 259.101 125.086 259.983 125.086C260.716 125.086 261.221 124.65 261.221 123.969Z" fill="#FF725E"/>
<path d="M272.502 124.044H271.513V125.349H271.177V124.044H268.492V123.794L271.049 120.639H271.434L268.923 123.741H271.184V122.591H271.513V123.741H272.502V124.044Z" fill="#FF725E"/>
<path d="M283.907 126.018C283.907 126.074 282.988 126.12 281.855 126.12C280.721 126.12 279.803 126.074 279.803 126.018C279.803 125.962 280.721 125.916 281.855 125.916C282.988 125.916 283.907 125.962 283.907 126.018Z" fill="#FF725E"/>
<path d="M254.396 103.841C254.396 104.372 253.966 104.802 253.437 104.802C252.906 104.802 252.477 104.372 252.477 103.841C252.477 103.311 252.906 102.881 253.437 102.881C253.966 102.881 254.396 103.311 254.396 103.841Z" fill="#263238"/>
<path d="M257.164 103.841C257.164 104.372 256.734 104.802 256.205 104.802C255.674 104.802 255.244 104.372 255.244 103.841C255.244 103.311 255.674 102.881 256.205 102.881C256.734 102.881 257.164 103.311 257.164 103.841Z" fill="#263238"/>
<path d="M259.882 103.841C259.882 104.372 259.452 104.802 258.921 104.802C258.391 104.802 257.961 104.372 257.961 103.841C257.961 103.311 258.391 102.881 258.921 102.881C259.452 102.881 259.882 103.311 259.882 103.841Z" fill="#263238"/>
<path d="M312.924 106.546C312.924 106.602 298.725 106.648 281.214 106.648C263.696 106.648 249.5 106.602 249.5 106.546C249.5 106.49 263.696 106.444 281.214 106.444C298.725 106.444 312.924 106.49 312.924 106.546Z" fill="#263238"/>
<path d="M241.689 57.0576H211.154C210.277 57.0576 209.566 57.7684 209.566 58.6465V72.5573C209.566 73.4341 210.277 74.1449 211.154 74.1449H223.964L226.685 77.635L228.953 74.1449H241.689C242.566 74.1449 243.278 73.4341 243.278 72.5573V58.6465C243.278 57.7684 242.566 57.0576 241.689 57.0576Z" fill="white"/>
<path d="M241.689 57.0581C241.723 57.0568 241.774 57.0568 241.841 57.0581C241.94 57.0686 242.09 57.0829 242.276 57.1548C242.459 57.2254 242.682 57.3469 242.879 57.5638C243.081 57.7742 243.251 58.0878 243.298 58.4706C243.328 59.9864 243.322 62.1894 243.334 64.9791C243.338 66.3747 243.342 67.9152 243.346 69.5864C243.349 70.4227 243.35 71.2903 243.351 72.1906C243.347 72.4128 243.368 72.644 243.321 72.8832C243.275 73.1197 243.173 73.3457 243.03 73.5417C242.745 73.9376 242.269 74.2029 241.764 74.2212C237.922 74.2264 233.614 74.2329 228.953 74.2395L229.031 74.1977C228.319 75.294 227.551 76.4791 226.767 77.6878L226.692 77.8028L226.608 77.6943C225.749 76.5941 224.825 75.4103 223.886 74.2068L223.964 74.246C220.436 74.246 216.744 74.2473 212.955 74.2473C212.513 74.2473 212.072 74.2473 211.632 74.2473C211.41 74.2434 211.202 74.2578 210.963 74.2369C210.732 74.2107 210.505 74.1349 210.306 74.0173C209.903 73.7848 209.606 73.381 209.506 72.9302C209.451 72.7002 209.467 72.4716 209.464 72.2612V71.6131C209.464 69.8909 209.465 68.1935 209.465 66.5262C209.467 64.8576 209.467 63.2204 209.468 61.6158C209.469 60.8135 209.469 60.019 209.469 59.235L209.471 58.647C209.472 58.4406 209.51 58.2354 209.584 58.0433C209.731 57.6592 210.023 57.3377 210.384 57.1522C210.564 57.0594 210.76 56.9967 210.962 56.9771C211.167 56.9575 211.35 56.968 211.54 56.9653C211.919 56.9653 212.294 56.9653 212.668 56.9666C213.414 56.9666 214.151 56.968 214.878 56.968C216.329 56.9706 217.739 56.9719 219.102 56.9732C221.826 56.9784 224.365 56.9823 226.685 56.9863C231.315 56.9993 235.064 57.0111 237.663 57.0189C238.954 57.0268 239.959 57.0333 240.649 57.0372C240.985 57.0424 241.244 57.0451 241.425 57.0477C241.541 57.0503 241.629 57.0542 241.689 57.0581C241.629 57.0633 241.541 57.066 241.425 57.0686C241.244 57.0712 240.985 57.0738 240.649 57.079C239.959 57.0829 238.954 57.0895 237.663 57.0986C235.064 57.1052 231.315 57.1169 226.685 57.13C224.365 57.1339 221.826 57.1378 219.102 57.143C217.739 57.1444 216.329 57.1457 214.878 57.1483C214.151 57.1483 213.414 57.1496 212.668 57.1509C212.294 57.1509 211.919 57.1509 211.54 57.1509C211.354 57.1535 211.156 57.1457 210.982 57.1626C210.805 57.1809 210.63 57.2358 210.47 57.3194C210.15 57.4841 209.891 57.7702 209.761 58.1113C209.695 58.2812 209.661 58.4641 209.661 58.647V59.235C209.661 60.019 209.663 60.8135 209.663 61.6158C209.664 63.2204 209.665 64.8576 209.665 66.5262C209.667 68.1935 209.667 69.8909 209.667 71.6131L209.668 72.2612C209.669 72.4807 209.656 72.6898 209.704 72.8845C209.792 73.2817 210.053 73.6371 210.407 73.841C210.584 73.9442 210.782 74.0108 210.986 74.033C211.184 74.0526 211.416 74.0409 211.632 74.0435C212.072 74.0435 212.513 74.0435 212.955 74.0435C216.744 74.0448 220.436 74.0448 223.964 74.0461H224.012L224.043 74.084C224.981 75.2887 225.903 76.4739 226.762 77.5754L226.604 77.5819C227.389 76.3746 228.16 75.1907 228.873 74.0944L228.901 74.0513H228.953C233.611 74.0552 237.917 74.0592 241.757 74.0631C242.214 74.0487 242.647 73.8096 242.907 73.4516C243.038 73.2726 243.13 73.0687 243.172 72.8544C243.217 72.644 243.2 72.4167 243.204 72.1906C243.205 71.2903 243.207 70.4227 243.209 69.5864C243.213 67.9152 243.217 66.3747 243.22 64.9791C243.228 62.1972 243.234 59.9929 243.237 58.4772C243.197 58.1087 243.038 57.8029 242.845 57.5952C242.657 57.3809 242.443 57.2567 242.264 57.1836C241.901 57.0398 241.686 57.0738 241.689 57.0581Z" fill="#263238"/>
<path d="M220.704 60.9828V61.4976H220.368V60.9788L219.805 60.0459H220.163L220.551 60.6914L220.939 60.0459H221.269L220.704 60.9828Z" fill="#263238"/>
<path fill-rule="evenodd" clip-rule="evenodd" d="M221.258 60.7715C221.258 60.3403 221.594 60.0215 222.053 60.0215C222.51 60.0215 222.847 60.3377 222.847 60.7715C222.847 61.2066 222.51 61.5228 222.053 61.5228C221.594 61.5228 221.258 61.204 221.258 60.7715ZM222.507 60.7715C222.507 60.4958 222.313 60.3076 222.053 60.3076C221.794 60.3076 221.598 60.4958 221.598 60.7715C221.598 61.0485 221.794 61.2367 222.053 61.2367C222.313 61.2367 222.507 61.0485 222.507 60.7715Z" fill="#263238"/>
<path d="M223.09 60.8586V60.0459H223.426V60.8469C223.426 61.1226 223.548 61.2363 223.75 61.2363C223.955 61.2363 224.074 61.1226 224.074 60.8469V60.0459H224.406V60.8586C224.406 61.2859 224.162 61.5224 223.749 61.5224C223.336 61.5224 223.09 61.2859 223.09 60.8586Z" fill="#263238"/>
<path fill-rule="evenodd" clip-rule="evenodd" d="M225.665 61.4976L225.386 61.0938H225.076V61.4976H224.74V60.0459H225.369C225.757 60.0459 226 60.2471 226 60.5725C226 60.7907 225.89 60.9501 225.701 61.0311L226.026 61.4976H225.665ZM225.35 60.319H225.076V60.826H225.35C225.556 60.826 225.659 60.7306 225.659 60.5725C225.659 60.4131 225.556 60.319 225.35 60.319Z" fill="#263238"/>
<path d="M226.763 60.7715C226.763 60.3338 227.1 60.0215 227.552 60.0215C227.803 60.0215 228.012 60.1116 228.15 60.2776L227.934 60.4775C227.836 60.3651 227.714 60.3076 227.568 60.3076C227.296 60.3076 227.104 60.4984 227.104 60.7715C227.104 61.0459 227.296 61.2367 227.568 61.2367C227.714 61.2367 227.836 61.1792 227.934 61.0642L228.15 61.2641C228.012 61.4327 227.803 61.5228 227.55 61.5228C227.1 61.5228 226.763 61.2105 226.763 60.7715Z" fill="#263238"/>
<path fill-rule="evenodd" clip-rule="evenodd" d="M228.255 60.7715C228.255 60.3403 228.591 60.0215 229.05 60.0215C229.507 60.0215 229.846 60.3377 229.846 60.7715C229.846 61.2066 229.507 61.5228 229.05 61.5228C228.591 61.5228 228.255 61.204 228.255 60.7715ZM229.505 60.7715C229.505 60.4958 229.31 60.3076 229.05 60.3076C228.791 60.3076 228.595 60.4958 228.595 60.7715C228.595 61.0485 228.791 61.2367 229.05 61.2367C229.31 61.2367 229.505 61.0485 229.505 60.7715Z" fill="#263238"/>
<path fill-rule="evenodd" clip-rule="evenodd" d="M230.101 60.0459H230.76C231.236 60.0459 231.561 60.3321 231.561 60.7711C231.561 61.2114 231.236 61.4976 230.76 61.4976H230.101V60.0459ZM230.743 61.2219C231.032 61.2219 231.222 61.0494 231.222 60.7711C231.222 60.4941 231.032 60.3216 230.743 60.3216H230.436V61.2219H230.743Z" fill="#263238"/>
<path d="M232.941 61.2284V61.4976H231.816V60.0459H232.914V60.3151H232.151V60.6313H232.825V60.8926H232.151V61.2284H232.941Z" fill="#263238"/>
<path d="M238.71 70.9964H214.133C213.366 70.9964 212.744 70.3744 212.744 69.6061V64.4147C212.744 63.6464 213.366 63.0244 214.133 63.0244H238.71C239.478 63.0244 240.1 63.6464 240.1 64.4147V69.6061C240.1 70.3744 239.478 70.9964 238.71 70.9964Z" fill="#F5F5F5"/>
<path fill-rule="evenodd" clip-rule="evenodd" d="M218.305 67.4989C218.305 68.2045 217.759 68.6632 217.019 68.6632C216.005 68.6632 215.47 67.9353 215.47 66.7267C215.47 65.42 216.165 64.7471 217.185 64.7471C217.516 64.7471 217.826 64.802 218.062 64.9457L217.946 65.1717C217.747 65.045 217.478 64.9953 217.185 64.9953C216.319 64.9953 215.752 65.5637 215.752 66.6836C215.752 66.7985 215.757 66.9697 215.785 67.1461C215.944 66.6391 216.43 66.3517 217.014 66.3517C217.786 66.3517 218.305 66.8038 218.305 67.4989ZM218.023 67.5055C218.023 66.9527 217.627 66.5947 216.976 66.5947C216.341 66.5947 215.906 66.9972 215.906 67.5159C215.906 67.968 216.286 68.4201 217.009 68.4201C217.61 68.4201 218.023 68.0621 218.023 67.5055Z" fill="#FF725E"/>
<path d="M223.429 67.5655H222.619V68.6356H222.343V67.5655H220.143V67.3616L222.238 64.7744H222.552L220.495 67.3172H222.348V66.3738H222.619V67.3172H223.429V67.5655Z" fill="#FF725E"/>
<path d="M227.715 67.5485C227.715 68.1888 227.252 68.6631 226.364 68.6631C225.796 68.6631 225.272 68.454 225.002 68.1443L225.146 67.9287C225.382 68.1992 225.834 68.403 226.364 68.403C227.059 68.403 227.428 68.0725 227.428 67.5485C227.428 67.031 227.076 66.6939 226.303 66.6939H226.06V66.4901L227.202 65.0279H225.146V64.7744H227.566V64.973L226.408 66.4574C227.285 66.4783 227.715 66.92 227.715 67.5485Z" fill="#FF725E"/>
<path d="M232.382 64.7744V64.973L230.721 68.6356H230.413L232.057 65.0279H229.889V65.7675H229.613V64.7744H232.382Z" fill="#FF725E"/>
<path fill-rule="evenodd" clip-rule="evenodd" d="M234.351 66.7058C234.351 65.4971 234.974 64.7471 235.861 64.7471C236.75 64.7471 237.373 65.4971 237.373 66.7058C237.373 67.9131 236.75 68.6632 235.861 68.6632C234.974 68.6632 234.351 67.9131 234.351 66.7058ZM237.092 66.7058C237.092 65.6304 236.589 65.0071 235.861 65.0071C235.133 65.0071 234.632 65.6304 234.632 66.7058C234.632 67.7799 235.133 68.4031 235.861 68.4031C236.589 68.4031 237.092 67.7799 237.092 66.7058Z" fill="#FF725E"/>
<path d="M181.68 187.674H178.171L176.869 171.875H181.002L181.68 187.674Z" fill="#263238"/>
<path d="M212.097 187.674H215.606L216.908 171.875H212.775L212.097 187.674Z" fill="#263238"/>
<path d="M219.319 173.876L174.146 174.937L172.771 145.759C172.637 142.903 174.917 140.513 177.776 140.513H216.264C219.168 140.513 221.464 142.973 221.263 145.87L219.319 173.876Z" fill="#1F4EAD"/>
<path d="M221.636 145.659C221.636 145.662 221.592 145.666 221.509 145.67C221.415 145.673 221.292 145.676 221.139 145.68C220.799 145.686 220.322 145.693 219.715 145.703C218.464 145.706 216.679 145.713 214.478 145.721C210.056 145.729 203.947 145.679 197.206 145.836C190.46 146.059 184.346 146.021 179.925 145.955C177.715 145.919 175.926 145.876 174.69 145.838C174.082 145.818 173.606 145.802 173.267 145.79C173.114 145.782 172.991 145.777 172.897 145.772C172.813 145.767 172.771 145.763 172.771 145.759C172.771 145.756 172.815 145.754 172.897 145.751C172.992 145.751 173.114 145.75 173.268 145.75C173.606 145.752 174.083 145.755 174.691 145.76C175.941 145.772 177.726 145.789 179.927 145.81C184.349 145.84 190.456 145.855 197.201 145.631C203.949 145.475 210.057 145.547 214.479 145.577C216.679 145.597 218.464 145.612 219.715 145.623C220.322 145.631 220.799 145.636 221.139 145.64C221.292 145.644 221.415 145.646 221.509 145.649C221.592 145.652 221.634 145.656 221.636 145.659Z" fill="#263238"/>
<path d="M189.249 140.969C189.262 141.037 187.833 141.062 186.316 141.85C184.788 142.615 183.93 143.757 183.882 143.708C183.864 143.695 184.049 143.394 184.441 142.981C184.832 142.57 185.447 142.064 186.224 141.667C187 141.272 187.771 141.071 188.333 140.996C188.897 140.919 189.249 140.947 189.249 140.969Z" fill="#263238"/>
<path d="M207.828 87.9199L213.35 98.0074L221.44 93.4824L225.374 94.7812C218.757 101.955 214.911 105.725 213.839 106.09C212.229 106.638 209.179 106.739 207.436 104.556C206.378 103.233 204.308 99.0932 201.228 92.1391L207.828 87.9199Z" fill="#FFBE9D"/>
<path d="M230.561 81.3354C230.418 81.1577 230.192 81.0676 229.966 81.0989L226.117 81.6281C225.78 81.6804 225.481 81.8738 225.296 82.1599L217.307 94.4374L217.921 94.781L222.175 94.6464L230.683 81.4857L230.561 81.3354Z" fill="#263238"/>
<path d="M227.84 82.9291C227.921 83.001 228.066 82.9709 228.161 82.8612C228.256 82.7527 228.268 82.605 228.186 82.5332C228.104 82.4613 227.96 82.4914 227.864 82.6011C227.768 82.7109 227.757 82.8572 227.84 82.9291Z" fill="white"/>
<path d="M230.683 81.4856C230.686 81.5012 230.421 81.5522 229.94 81.6319C229.42 81.7129 228.732 81.8188 227.901 81.9481C227.466 82.0121 226.995 82.0814 226.491 82.1546C226.25 82.1768 226.034 82.3022 225.897 82.5048C225.749 82.7347 225.598 82.9699 225.442 83.2104C224.812 84.1812 224.124 85.2422 223.402 86.3555C221.948 88.5834 220.623 90.593 219.652 92.0421C219.181 92.7386 218.79 93.3148 218.495 93.7499C218.216 94.1511 218.057 94.368 218.044 94.3588C218.031 94.351 218.164 94.1171 218.419 93.7016C218.698 93.2547 219.068 92.6654 219.516 91.9519C220.451 90.4806 221.755 88.4566 223.208 86.2288C223.936 85.1194 224.629 84.061 225.263 83.0941C225.423 82.8536 225.578 82.6184 225.728 82.3898C225.897 82.1376 226.192 81.9834 226.46 81.9651C226.966 81.9011 227.439 81.841 227.875 81.7861C228.713 81.6868 229.404 81.6045 229.927 81.5431C230.411 81.4908 230.681 81.4699 230.683 81.4856Z" fill="#455A64"/>
<path d="M226.415 85.8746C226.186 85.8328 226.01 86.1255 225.885 86.7514C225.759 87.376 225.495 88.586 225.093 90.3787L223.296 89.4248L221.049 89.7175C220.721 90.0194 220.678 90.2533 220.918 90.4166C221.157 90.5812 221.75 90.7472 222.698 90.9157L223.746 92.4223L220.739 90.9732C220.07 91.147 219.833 91.4384 220.029 91.8474C220.225 92.2551 220.999 93.0979 222.35 94.3745L220.843 94.2608L219.052 93.1737C218.686 93.1893 218.571 93.354 218.708 93.6663C218.844 93.9786 219.534 94.6985 220.776 95.8262L223.035 96.9225C223.857 96.8572 224.307 96.7043 224.386 96.4625C224.466 96.2221 224.515 95.9281 224.535 95.5845C224.971 95.4669 225.23 95.3022 225.312 95.0905C225.393 94.8789 225.408 94.6058 225.355 94.27C226.04 94.3902 226.426 94.2595 226.51 93.878C226.639 93.3056 226.531 92.1767 226.427 91.7363C226.324 91.296 226.866 87.1996 226.823 87.0768C226.781 86.9526 227.059 85.6042 226.415 85.8746Z" fill="#FFBE9D"/>
<path d="M224.466 96.4676C224.473 96.4937 224.255 96.5904 223.876 96.6505C223.499 96.712 222.96 96.7185 222.387 96.5826C221.816 96.4467 221.336 96.1971 221.028 95.9724C220.717 95.7489 220.565 95.5647 220.584 95.5438C220.627 95.4863 221.341 96.1057 222.442 96.3578C223.535 96.6283 224.454 96.397 224.466 96.4676Z" fill="#EB996E"/>
<path d="M223.931 95.6573C223.896 95.7095 223.495 95.4992 223.067 95.149C222.64 94.7988 222.355 94.4473 222.4 94.4015C222.445 94.3558 222.796 94.6263 223.215 94.97C223.633 95.3136 223.968 95.6037 223.931 95.6573Z" fill="#EB996E"/>
<path d="M225.119 93.7081C225.085 93.7604 224.686 93.5565 224.286 93.1854C223.884 92.8143 223.649 92.4354 223.698 92.3962C223.749 92.3557 224.056 92.6589 224.443 93.0143C224.829 93.3723 225.155 93.6545 225.119 93.7081Z" fill="#EB996E"/>
<path d="M226.369 92.1393C226.307 92.1654 226.081 91.7407 225.722 91.2795C225.368 90.8143 225.017 90.4863 225.057 90.4327C225.093 90.3831 225.529 90.6457 225.905 91.1383C226.284 91.6283 226.425 92.1184 226.369 92.1393Z" fill="#EB996E"/>
<path d="M227.897 164.839C227.91 164.838 227.923 164.705 227.887 164.467C227.847 164.232 227.751 163.887 227.51 163.522C227.449 163.433 227.388 163.337 227.287 163.249C227.192 163.163 227.026 163.095 226.866 163.155C226.788 163.18 226.708 163.253 226.681 163.342C226.651 163.432 226.666 163.521 226.69 163.594C226.742 163.743 226.819 163.85 226.884 163.973C227.031 164.219 227.151 164.463 227.337 164.739C227.432 164.88 227.642 164.998 227.836 164.964C228.026 164.94 228.179 164.847 228.318 164.751C228.587 164.555 228.824 164.334 229.026 164.097C229.128 163.98 229.221 163.857 229.306 163.734C229.385 163.611 229.479 163.487 229.516 163.316C229.551 163.153 229.489 162.936 229.303 162.861C229.114 162.793 228.959 162.889 228.854 162.963C228.639 163.141 228.511 163.322 228.381 163.499C228.132 163.852 227.995 164.174 227.917 164.399C227.841 164.625 227.823 164.757 227.836 164.761C227.875 164.777 228.002 164.253 228.507 163.593C228.633 163.436 228.788 163.245 228.962 163.112C229.051 163.049 229.161 163.007 229.229 163.041C229.299 163.068 229.338 163.173 229.315 163.275C229.293 163.381 229.213 163.495 229.132 163.612C229.05 163.729 228.959 163.844 228.863 163.955C228.668 164.177 228.441 164.386 228.189 164.57C228.067 164.658 227.934 164.73 227.811 164.744C227.687 164.76 227.59 164.71 227.508 164.604C227.354 164.379 227.205 164.101 227.062 163.87C226.993 163.75 226.911 163.632 226.874 163.531C226.836 163.426 226.857 163.356 226.931 163.328C227.101 163.257 227.267 163.449 227.382 163.612C227.861 164.289 227.854 164.853 227.897 164.839Z" fill="#263238"/>
<path d="M218.264 165.168L213.481 175.535L205.762 171.968L210.709 159.139L218.264 165.168Z" fill="#FFBE9D"/>
<path d="M214.385 174.842L211.59 180.172C216.359 185.102 218.519 188.119 218.072 189.222L201.255 181.159L205.874 170.469L214.385 174.842Z" fill="#455A64"/>
<path d="M206.74 176.949C206.371 176.881 205.971 177.14 205.889 177.505C205.807 177.871 206.065 178.28 206.432 178.353C206.8 178.427 207.29 178.132 207.33 177.759C207.371 177.387 207.04 176.923 206.666 176.94" fill="#E0E0E0"/>
<g opacity="0.6">
<g opacity="0.6">
<g opacity="0.6">
<g opacity="0.6">
<g opacity="0.6">
<g opacity="0.6">
<g opacity="0.6">
<g opacity="0.6">
<g opacity="0.6">
<g opacity="0.6">
<g opacity="0.6">
<g opacity="0.6">
<path opacity="0.6" d="M201.255 181.159L201.954 179.818L217.816 188.05C218.212 188.508 218.297 188.897 218.072 189.222L201.255 181.159Z" fill="white"/>
</g>
</g>
</g>
</g>
</g>
</g>
</g>
</g>
</g>
</g>
</g>
</g>
<path d="M211.904 180.217C211.862 180.298 211.433 180.138 210.903 180.209C210.37 180.265 209.991 180.521 209.931 180.452C209.863 180.4 210.221 179.967 210.865 179.894C211.508 179.814 211.957 180.15 211.904 180.217Z" fill="#263238"/>
<path d="M213.317 181.792C213.298 181.88 212.876 181.85 212.43 182.063C211.978 182.264 211.728 182.605 211.647 182.563C211.565 182.539 211.739 182.03 212.297 181.775C212.853 181.515 213.354 181.713 213.317 181.792Z" fill="#263238"/>
<path d="M213.307 184.383C213.225 184.365 213.307 183.9 213.733 183.551C214.157 183.199 214.629 183.207 214.632 183.292C214.645 183.382 214.28 183.504 213.934 183.795C213.583 184.079 213.393 184.414 213.307 184.383Z" fill="#263238"/>
<path d="M212.706 178.163C212.635 178.222 212.313 177.928 211.834 177.737C211.359 177.536 210.922 177.519 210.913 177.428C210.895 177.345 211.393 177.211 211.954 177.443C212.518 177.672 212.776 178.118 212.706 178.163Z" fill="#263238"/>
<path d="M215.96 173.459L228.568 141.906C228.379 138.316 227.954 135.955 227.293 134.821C226.632 133.688 216.29 129.815 196.266 123.203C191.165 121.976 186.915 121.976 183.515 123.203C178.415 125.046 174.589 131.421 175.297 134.963C175.77 137.325 177.002 139.372 178.995 141.107L201.083 141.763L213.121 146.155L205.015 169.39L215.96 173.459Z" fill="#263238"/>
<path d="M227.175 151.897L227.459 163.31L218.96 163.517L217.734 149.822L227.175 151.897Z" fill="#FFBE9D"/>
<path d="M227.965 162.291L227.81 168.307C234.266 170.627 237.536 172.379 237.621 173.567L218.973 173.755L218.399 162.124L227.965 162.291Z" fill="#455A64"/>
<path d="M222.035 167.557C221.675 167.659 221.43 168.068 221.516 168.431C221.604 168.795 222.018 169.048 222.379 168.952C222.741 168.856 223.05 168.375 222.922 168.023C222.796 167.672 222.294 167.401 221.966 167.58" fill="#E0E0E0"/>
<g opacity="0.6">
<g opacity="0.6">
<g opacity="0.6">
<g opacity="0.6">
<g opacity="0.6">
<g opacity="0.6">
<g opacity="0.6">
<g opacity="0.6">
<g opacity="0.6">
<g opacity="0.6">
<g opacity="0.6">
<g opacity="0.6">
<path opacity="0.6" d="M218.973 173.755L219.008 172.243L236.875 172.627C237.431 172.863 237.68 173.176 237.621 173.567L218.973 173.755Z" fill="white"/>
</g>
</g>
</g>
</g>
</g>
</g>
</g>
</g>
</g>
</g>
</g>
</g>
<path d="M228.111 168.209C228.109 168.299 227.654 168.345 227.208 168.643C226.756 168.929 226.529 169.325 226.445 169.29C226.36 169.274 226.491 168.728 227.036 168.378C227.578 168.022 228.129 168.126 228.111 168.209Z" fill="#263238"/>
<path d="M230.075 168.998C230.098 169.086 229.704 169.245 229.398 169.633C229.082 170.012 229.008 170.429 228.918 170.426C228.833 170.442 228.763 169.909 229.153 169.433C229.537 168.955 230.073 168.911 230.075 168.998Z" fill="#263238"/>
<path d="M231.209 171.328C231.127 171.348 230.996 170.894 231.225 170.393C231.45 169.891 231.877 169.69 231.916 169.765C231.968 169.839 231.695 170.109 231.514 170.523C231.322 170.934 231.301 171.318 231.209 171.328Z" fill="#263238"/>
<path d="M227.924 166.013C227.886 166.096 227.468 165.975 226.953 166.015C226.439 166.044 226.04 166.222 225.992 166.143C225.938 166.078 226.325 165.737 226.933 165.699C227.538 165.655 227.969 165.941 227.924 166.013Z" fill="#263238"/>
<path d="M222.21 120.209C225.607 119.938 227.493 121.644 227.871 125.328C228.249 129.011 228.622 139.449 228.993 156.639L217.092 157.631L215.251 131.279L196.267 123.203C211.296 120.735 219.945 119.738 222.21 120.209Z" fill="#263238"/>
<path d="M201.22 112.754C203.281 118.531 204.114 121.741 203.722 122.385C203.329 123.03 200.485 124.676 195.186 127.325L175.297 134.963C173.936 132.797 173.255 130.05 173.255 126.722C173.255 123.395 175.561 118.74 180.172 112.754H201.22Z" fill="#263238"/>
<path d="M195.326 122.762C195.324 122.765 195.356 122.782 195.418 122.812C195.492 122.846 195.584 122.889 195.701 122.942C195.963 123.06 196.332 123.223 196.802 123.432C197.778 123.858 199.18 124.469 200.937 125.234C204.484 126.761 209.456 128.901 215.209 131.378L215.144 131.287C215.326 133.89 215.52 136.702 215.721 139.61C216.205 146.409 216.652 152.678 217.005 157.638L217.011 157.727L217.1 157.719C220.719 157.402 223.69 157.142 225.77 156.959C226.793 156.864 227.596 156.789 228.157 156.735C228.421 156.708 228.629 156.687 228.782 156.671C228.921 156.654 228.995 156.644 228.993 156.64C228.993 156.636 228.92 156.637 228.779 156.644C228.626 156.654 228.418 156.668 228.153 156.683C227.59 156.725 226.786 156.784 225.762 156.86C223.68 157.023 220.708 157.258 217.086 157.544L217.181 157.625C216.84 152.665 216.41 146.394 215.944 139.595C215.738 136.686 215.54 133.875 215.357 131.272L215.353 131.207L215.293 131.182C209.527 128.735 204.544 126.619 200.989 125.11C199.224 124.369 197.812 123.779 196.831 123.367C196.354 123.171 195.982 123.018 195.715 122.908C195.596 122.861 195.501 122.825 195.426 122.795C195.361 122.77 195.326 122.759 195.326 122.762Z" fill="#455A64"/>
<path d="M179.508 123.628C179.514 123.644 179.712 123.588 180.066 123.477C180.462 123.349 180.964 123.187 181.564 122.993C182.827 122.592 184.581 122.034 186.575 121.727C188.57 121.42 190.416 121.514 191.706 121.794C193.001 122.06 193.745 122.431 193.762 122.388C193.767 122.378 193.586 122.276 193.244 122.127C192.902 121.978 192.391 121.796 191.74 121.64C190.441 121.317 188.562 121.195 186.542 121.508C184.523 121.819 182.767 122.405 181.514 122.844C180.887 123.068 180.384 123.259 180.038 123.394C179.691 123.532 179.503 123.614 179.508 123.628Z" fill="#455A64"/>
<path d="M182.319 119.061C182.326 119.096 182.986 118.967 184.059 119.05C184.594 119.088 185.232 119.171 185.941 119.252C186.65 119.337 187.427 119.432 188.232 119.585C189.848 119.872 191.239 120.436 192.13 121.03C193.029 121.615 193.45 122.149 193.481 122.118C193.49 122.112 193.399 121.968 193.192 121.745C192.986 121.521 192.666 121.212 192.217 120.899C191.331 120.258 189.91 119.657 188.274 119.367C187.458 119.211 186.674 119.122 185.964 119.049C185.253 118.977 184.611 118.912 184.066 118.894C183.523 118.874 183.081 118.905 182.781 118.951C182.479 118.997 182.317 119.048 182.319 119.061Z" fill="#455A64"/>
<path d="M191.104 49.424C188.816 49.0346 186.804 49.9153 184.874 51.2049C182.944 52.4959 181.491 54.4416 180.652 56.6067C179.768 58.8855 179.553 61.4505 180.232 63.7999C180.912 66.148 182.52 68.2504 184.7 69.3572C187.676 70.869 191.483 70.3424 194.147 68.3288C196.81 66.3152 198.332 62.9859 198.46 59.6499C198.548 57.3515 197.999 54.9995 196.715 53.0918C195.43 51.1827 193.38 49.7572 191.104 49.424Z" fill="#263238"/>
<path d="M184.597 57.2049C184.931 56.3295 184.8 55.3521 184.934 54.4243C185.225 52.3807 186.872 50.7421 188.775 49.9464C190.546 49.2055 192.71 49.3662 194.843 50.0561C196.306 50.5292 197.683 51.3537 198.658 52.5414C199.953 54.1186 200.409 56.3464 199.838 58.3051L189.384 56.7829C188.406 57.5917 187.403 58.4162 186.216 58.867C185.868 58.999 185.493 59.0996 185.125 59.0408C184.756 58.9833 184.399 58.7324 184.312 58.3705C184.216 57.9746 184.45 57.5852 184.597 57.2049Z" fill="#263238"/>
<path d="M195.067 52.9429L185.94 54.8768C185.058 54.9356 184.367 55.6595 184.35 56.5441L184.459 76.2957C184.466 77.6455 184.919 78.9547 185.745 80.021L186.615 81.1434C188.6 83.7032 192.621 83.4445 194.137 80.5829C194.242 80.3829 194.316 80.2078 194.347 80.0654C194.377 79.8877 194.424 79.7714 194.432 79.6198L194.606 77.6938C194.694 75.9363 194.708 74.1488 194.708 74.1658C197.198 73.8509 198.762 72.0895 199.4 68.8817C199.875 66.4878 199.908 62.5352 199.83 59.2999C199.759 56.3873 197.973 52.7496 195.067 52.9429Z" fill="#FFBE9D"/>
<path d="M198.442 63.0073C198.441 63.3353 198.161 63.6045 197.819 63.6097C197.476 63.615 197.199 63.3536 197.199 63.0256C197.201 62.6977 197.48 62.4272 197.823 62.422C198.165 62.4167 198.443 62.6781 198.442 63.0073Z" fill="#263238"/>
<path d="M198.894 61.3199C198.813 61.3983 198.357 61.0324 197.688 61.0076C197.022 60.9736 196.517 61.2989 196.448 61.214C196.414 61.1761 196.498 61.0337 196.717 60.886C196.934 60.7397 197.299 60.6025 197.714 60.6208C198.131 60.6391 198.475 60.8063 198.67 60.971C198.869 61.1356 198.934 61.2859 198.894 61.3199Z" fill="#263238"/>
<path d="M192.452 62.8569C192.451 63.1849 192.171 63.4554 191.829 63.4606C191.487 63.4645 191.21 63.2032 191.211 62.8752C191.212 62.5473 191.491 62.2768 191.833 62.2716C192.177 62.2663 192.454 62.529 192.452 62.8569Z" fill="#263238"/>
<path d="M192.549 61.1579C192.468 61.235 192.011 60.8691 191.343 60.8456C190.675 60.8116 190.172 61.1357 190.103 61.0507C190.069 61.0141 190.151 60.8704 190.372 60.7228C190.588 60.5764 190.952 60.4405 191.369 60.4575C191.785 60.4758 192.128 60.643 192.324 60.8077C192.523 60.9736 192.587 61.1226 192.549 61.1579Z" fill="#263238"/>
<path d="M194.554 66.2399C194.552 66.202 194.97 66.1472 195.646 66.0871C195.817 66.0753 195.98 66.0479 196.013 65.9329C196.059 65.8114 195.995 65.6245 195.919 65.422C195.775 65.0038 195.624 64.5635 195.466 64.1035C194.836 62.2259 194.388 60.6853 194.463 60.6605C194.539 60.6356 195.112 62.1383 195.74 64.0147C195.89 64.4772 196.035 64.9189 196.173 65.341C196.23 65.537 196.332 65.7617 196.235 66.0139C196.184 66.1393 196.055 66.2269 195.945 66.253C195.834 66.2818 195.739 66.2791 195.654 66.2818C194.974 66.2922 194.555 66.2778 194.554 66.2399Z" fill="#263238"/>
<path d="M194.708 74.1658C192.531 74.2207 190.392 73.5608 188.291 72.1836C189.29 74.4611 191.412 75.5104 194.654 75.334L194.708 74.1658Z" fill="#EB996E"/>
<path d="M194.209 67.8392C193.98 67.5125 193.566 67.3218 193.146 67.3505C192.855 67.3701 192.557 67.4995 192.371 67.7281C192.186 67.9568 192.136 68.2913 192.288 68.5226C192.458 68.7839 192.833 68.8571 193.155 68.7787C193.477 68.7003 193.76 68.5004 194.028 68.3018C194.103 68.2469 194.178 68.1894 194.227 68.111C194.275 68.0339 194.288 67.9307 194.236 67.8627" fill="#EB996E"/>
<path d="M192.569 66.6262C192.677 66.6235 192.651 67.3487 193.252 67.8884C193.852 68.4281 194.628 68.3771 194.629 68.479C194.638 68.5248 194.452 68.6123 194.125 68.6084C193.805 68.6071 193.341 68.4869 192.974 68.1563C192.607 67.827 192.46 67.3984 192.447 67.1005C192.431 66.796 192.519 66.6196 192.569 66.6262Z" fill="#263238"/>
<path d="M192.511 59.1734C192.438 59.3525 191.774 59.2401 190.986 59.3041C190.197 59.3525 189.557 59.5576 189.459 59.3903C189.416 59.3106 189.532 59.1434 189.795 58.9774C190.055 58.8128 190.465 58.6612 190.938 58.6273C191.411 58.5933 191.84 58.6847 192.121 58.8128C192.403 58.9395 192.543 59.0885 192.511 59.1734Z" fill="#263238"/>
<path d="M198.813 58.3908C198.69 58.5384 198.236 58.3633 197.683 58.3333C197.13 58.2862 196.656 58.396 196.554 58.2327C196.509 58.1543 196.589 58.0053 196.8 57.8694C197.007 57.7335 197.35 57.6303 197.73 57.6564C198.11 57.6838 198.434 57.8341 198.62 57.9961C198.809 58.1595 198.868 58.3189 198.813 58.3908Z" fill="#263238"/>
<path d="M182.923 55.7948C183.869 53.0156 188.001 49.2288 190.925 49.4915L195.545 52.3897C195.23 53.9773 193.972 55.3401 192.415 55.7805C191.582 56.0157 190.585 56.0653 190.08 56.767C189.563 57.483 189.837 58.5454 189.354 59.2849C188.685 60.3094 186.916 60.2257 186.408 61.3377C186.186 61.8238 186.285 62.4131 186.055 62.8953C185.748 63.5368 184.09 64.3261 183.416 64.0974C182.741 63.8687 182.762 62.7136 182.552 62.1034C182.194 61.0607 182.361 60.5276 182.497 59.9527C182.82 58.5885 182.472 57.1211 182.923 55.7948Z" fill="#263238"/>
<path d="M185.407 64.7103C185.42 64.3497 185.036 63.4834 184.682 63.4128C183.737 63.2286 182.02 63.2377 181.91 65.6524C181.76 68.9531 185.105 68.4226 185.115 68.3285C185.123 68.254 185.361 65.9543 185.407 64.7103Z" fill="#FFBE9D"/>
<path d="M184.163 67.0321C184.15 67.0203 184.104 67.07 184.005 67.1092C183.908 67.1484 183.743 67.1719 183.575 67.0987C183.231 66.955 182.963 66.3879 182.974 65.792C182.979 65.4915 183.056 65.2093 183.172 64.9767C183.285 64.7402 183.448 64.5781 183.626 64.5546C183.802 64.522 183.921 64.633 183.958 64.7284C183.997 64.8225 183.973 64.8878 183.99 64.893C184 64.9022 184.064 64.8421 184.044 64.7036C184.034 64.6382 183.998 64.5585 183.924 64.4919C183.847 64.424 183.732 64.3848 183.609 64.3926C183.354 64.3991 183.114 64.6226 182.986 64.8774C182.842 65.1322 182.75 65.451 182.744 65.7881C182.735 66.4545 183.047 67.0922 183.519 67.2516C183.747 67.3221 183.945 67.262 184.048 67.1889C184.154 67.1118 184.175 67.0386 184.163 67.0321Z" fill="#EB996E"/>
<path d="M182.216 54.9397C182.228 53.9074 180.938 53.2319 179.932 52.998C178.926 52.7641 177.862 53.0698 176.956 53.5664C176.426 53.8565 175.893 54.2694 175.774 54.8613C175.656 55.4545 176.226 56.1601 176.792 55.9484C175.709 56.3182 175.159 57.766 175.723 58.763C176.287 59.76 177.811 60.0331 178.686 59.2948C178.404 60.2408 177.788 61.0823 176.971 61.6377C178.668 61.8794 180.471 61.1542 181.528 59.8044C182.586 58.4546 182.857 56.5299 182.216 54.9397Z" fill="#263238"/>
<path d="M179.925 60.189C179.902 60.1916 179.813 59.8179 179.801 59.1972C179.788 58.5804 179.881 57.7167 180.181 56.8165C180.487 55.9162 180.936 55.1727 181.321 54.6892C181.705 54.2031 182.001 53.9575 182.018 53.9745C182.079 54.0176 180.972 55.1139 180.389 56.8857C179.781 58.6484 180 60.1916 179.925 60.189Z" fill="#FF725E"/>
<path d="M194.586 51.3914C194.889 52.736 196.931 54.4582 197.828 55.5048C199.538 57.5014 199.877 58.1639 199.86 62.6261C200.667 61.0856 201.285 59.5751 201.224 57.8359C201.161 56.0967 200.521 54.3549 199.312 53.1031C198.103 51.8527 196.308 51.1418 194.586 51.3914Z" fill="#263238"/>
<path d="M208.585 88.1159C206.213 84.1619 204.697 81.7851 204.04 80.9854C203.114 79.8604 201.922 79.1966 201.126 78.849C200.683 78.6544 200.217 78.5211 199.741 78.4388L194.625 77.3059C194.619 79.6344 193.396 80.8705 190.956 81.0142C188.518 81.1579 186.271 79.5311 184.218 76.1338C180.277 76.7427 177.835 77.2902 176.893 77.775C175.478 78.5028 173.255 79.4266 172.032 85.5509L171.173 91.542L181.365 92.4841L182.341 107.628L187.396 111.149C196.737 113.578 201.706 114.871 202.303 115.032C202.901 115.193 203.298 107.677 203.495 92.4841C205.895 90.9331 207.591 89.4762 208.585 88.1159Z" fill="#263238"/>
<path d="M201.876 85.5695C201.889 85.5642 201.959 85.721 202.074 86.0072C202.19 86.292 202.339 86.7128 202.503 87.2381C202.835 88.2886 203.2 89.7756 203.406 91.4482C203.609 93.1207 203.614 94.6508 203.546 95.751C203.512 96.3011 203.469 96.7454 203.425 97.0498C203.383 97.3556 203.354 97.5228 203.34 97.5215C203.325 97.5202 203.328 97.3491 203.346 97.0433C203.366 96.7362 203.387 96.292 203.401 95.7445C203.433 94.6495 203.405 93.1324 203.204 91.473C202.999 89.8135 202.66 88.3344 202.365 87.2786C202.219 86.7507 202.092 86.326 201.998 86.0333C201.908 85.7393 201.863 85.5747 201.876 85.5695Z" fill="#455A64"/>
<path d="M201.442 110.376L182.253 106.2L181.366 92.4836L172.833 91.6943C173.043 97.9454 173.258 102 173.476 103.858C173.949 107.868 176.318 113.338 177.704 114.432C178.629 115.161 186.829 115.361 202.304 115.031L201.442 110.376Z" fill="#FFBE9D"/>
<path d="M212.335 112.862C212.199 113.13 211.918 113.305 211.62 113.279C211.56 113.274 211.498 113.262 211.434 113.241C211.151 113.15 211.023 112.817 211.049 112.24L209.016 111.908C207.253 113.045 206.058 113.991 205.43 114.744C204.803 115.498 203.69 115.57 202.089 114.959L201.257 110.624L205 107.24C204.848 107.374 204.857 107.231 205.029 106.809C205.2 106.386 205.679 106.255 206.463 106.414C206.585 106.206 206.902 106.064 207.414 105.989L210.697 106.367C211.374 106.445 211.979 106.826 212.343 107.402L213.732 109.6C214.22 110.654 214.425 111.303 214.347 111.549C214.228 111.919 213.973 112.063 213.581 111.98C213.474 112.674 213.329 113.033 213.147 113.057C212.965 113.082 212.694 113.016 212.335 112.862Z" fill="#FFBE9D"/>
<path d="M205.347 109.75C205.349 109.784 205.787 109.744 206.487 109.774C207.188 109.808 208.156 109.931 209.167 110.276C209.673 110.445 210.14 110.651 210.549 110.866C210.946 111.09 211.359 111.274 211.487 111.563C211.549 111.704 211.522 111.847 211.45 111.953C211.381 112.059 211.287 112.128 211.203 112.162C211.031 112.234 210.918 112.185 210.914 112.205C210.907 112.209 211.016 112.296 211.229 112.239C211.333 112.212 211.45 112.144 211.547 112.021C211.644 111.905 211.7 111.697 211.624 111.508C211.552 111.316 211.39 111.168 211.215 111.045C211.036 110.929 210.849 110.809 210.64 110.696C210.227 110.468 209.751 110.252 209.234 110.077C208.198 109.724 207.202 109.622 206.491 109.626C205.777 109.634 205.343 109.727 205.347 109.75Z" fill="#EB996E"/>
<path d="M205.117 111.843C205.121 111.904 206.456 111.85 208.099 111.945C209.74 112.035 211.061 112.242 211.072 112.181C211.076 112.154 210.752 112.068 210.217 111.974C209.682 111.88 208.937 111.784 208.11 111.736C207.282 111.69 206.531 111.701 205.99 111.733C205.447 111.766 205.115 111.816 205.117 111.843Z" fill="#EB996E"/>
<path d="M212.316 112.779C212.326 112.777 212.342 112.656 212.357 112.43C212.371 112.204 212.385 111.876 212.359 111.468C212.346 111.264 212.323 111.041 212.267 110.802C212.215 110.562 212.101 110.309 211.945 110.087C211.649 109.639 211.238 109.175 210.715 108.827C210.194 108.482 209.672 108.192 209.144 108.033C208.62 107.875 208.13 107.835 207.727 107.817C207.32 107.803 206.994 107.812 206.768 107.82C206.541 107.829 206.416 107.841 206.416 107.855C206.415 107.889 206.916 107.906 207.716 107.965C208.115 108.001 208.59 108.055 209.087 108.217C209.579 108.375 210.092 108.666 210.596 108.998C211.1 109.337 211.485 109.761 211.786 110.195C212.104 110.609 212.163 111.085 212.211 111.481C212.291 112.275 212.27 112.78 212.316 112.779Z" fill="#EB996E"/>
<path d="M207.573 106.823C207.572 106.854 208.065 106.867 208.849 106.958C209.604 107.074 210.812 107.129 211.501 108.17C212.247 109.117 212.881 110.011 213.158 110.746C213.452 111.475 213.427 111.979 213.469 111.975C213.481 111.975 213.5 111.851 213.489 111.626C213.479 111.403 213.431 111.075 213.298 110.695C213.046 109.92 212.414 108.992 211.664 108.04C211.474 107.8 211.266 107.573 211.027 107.394C210.788 107.211 210.509 107.105 210.255 107.031C209.736 106.886 209.26 106.843 208.863 106.81C208.066 106.758 207.572 106.797 207.573 106.823Z" fill="#EB996E"/>
<path d="M206.149 114.045C206.153 114.05 206.22 113.998 206.344 113.896C206.484 113.783 206.667 113.636 206.893 113.455C207.379 113.08 208.099 112.546 209.051 111.969L209.004 111.977C209.612 112.08 210.295 112.198 211.036 112.323L210.967 112.237C210.962 112.403 210.971 112.566 211.005 112.735C211.039 112.899 211.091 113.078 211.235 113.223C211.309 113.294 211.416 113.336 211.504 113.347C211.595 113.37 211.693 113.379 211.79 113.363C211.985 113.336 212.166 113.234 212.296 113.083C212.33 113.047 212.359 113.005 212.385 112.963L212.403 112.931L212.412 112.915L212.417 112.906C212.443 112.895 212.19 112.988 212.298 112.949L212.301 112.95L212.305 112.951L212.369 112.978C212.455 113.012 212.541 113.043 212.632 113.07C212.722 113.098 212.813 113.123 212.91 113.14C212.958 113.149 213.008 113.155 213.062 113.157C213.11 113.158 213.17 113.161 213.25 113.12C213.363 113.039 213.405 112.942 213.448 112.851C213.489 112.759 213.523 112.665 213.549 112.573C213.605 112.383 213.647 112.194 213.68 111.996L213.562 112.079C213.825 112.124 214.136 112.062 214.319 111.82C214.401 111.708 214.469 111.57 214.458 111.411C214.452 111.269 214.42 111.144 214.386 111.018C214.244 110.518 214.043 110.04 213.826 109.555L213.823 109.55L213.819 109.544C213.583 109.17 213.333 108.773 213.08 108.372C212.922 108.122 212.765 107.874 212.609 107.628C212.454 107.39 212.314 107.122 212.095 106.908C211.884 106.695 211.631 106.528 211.358 106.419C211.087 106.302 210.785 106.273 210.52 106.244C209.433 106.123 208.395 106.007 207.426 105.897L207.411 105.896L207.401 105.897C207.212 105.929 207.033 105.974 206.859 106.041C206.688 106.108 206.507 106.186 206.387 106.37L206.501 106.335C206.153 106.192 205.751 106.191 205.446 106.393C205.14 106.595 204.999 106.92 204.925 107.224L204.95 107.181C203.874 108.148 202.998 108.937 202.369 109.502C202.08 109.768 201.849 109.981 201.675 110.142C201.517 110.29 201.437 110.371 201.443 110.376C201.448 110.383 201.538 110.313 201.704 110.175C201.886 110.022 202.126 109.819 202.427 109.566C203.066 109.015 203.958 108.244 205.052 107.299L205.07 107.283L205.076 107.256C205.146 106.987 205.284 106.69 205.536 106.533C205.782 106.369 206.135 106.374 206.426 106.495L206.498 106.525L206.54 106.459C206.61 106.35 206.766 106.268 206.923 106.21C207.081 106.152 207.256 106.11 207.428 106.081L207.404 106.082C208.373 106.196 209.409 106.319 210.497 106.447C210.775 106.477 211.034 106.503 211.281 106.61C211.527 106.71 211.756 106.861 211.947 107.055C212.14 107.241 212.272 107.492 212.433 107.739C212.589 107.985 212.745 108.233 212.902 108.483C213.156 108.884 213.406 109.281 213.643 109.655L213.636 109.643C213.851 110.117 214.052 110.597 214.189 111.071C214.221 111.189 214.251 111.31 214.255 111.419C214.266 111.512 214.219 111.612 214.158 111.697C214.04 111.864 213.802 111.917 213.602 111.884L213.499 111.867L213.484 111.966C213.452 112.152 213.413 112.34 213.362 112.516C213.312 112.684 213.239 112.887 213.149 112.955C213.144 112.958 213.11 112.968 213.067 112.965C213.026 112.965 212.984 112.959 212.941 112.951C212.858 112.937 212.771 112.915 212.687 112.89C212.603 112.864 212.519 112.835 212.437 112.804L212.377 112.779L212.373 112.778H212.372C212.479 112.738 212.225 112.83 212.251 112.821L212.25 112.822L212.247 112.829L212.24 112.842L212.225 112.867C212.204 112.901 212.182 112.933 212.156 112.962C212.055 113.082 211.913 113.162 211.764 113.184C211.69 113.197 211.616 113.191 211.541 113.172C211.46 113.161 211.406 113.137 211.355 113.094C211.162 112.893 211.134 112.532 211.133 112.245V112.17L211.062 112.158C210.32 112.043 209.635 111.936 209.027 111.841L209 111.837L208.981 111.85C208.028 112.45 207.32 113.001 206.846 113.396C206.61 113.596 206.434 113.755 206.318 113.867C206.203 113.98 206.144 114.04 206.149 114.045Z" fill="#EB996E"/>
<path d="M237.231 100.253L211.956 100.458C211.135 100.458 210.352 100.853 210.23 101.663L207.467 120.086H194.448C194.03 120.086 193.688 120.425 193.688 120.845C193.688 121.263 194.03 121.603 194.448 121.603H207.24H209.668H236.028L238.87 102.161C239.023 101.157 238.246 100.253 237.231 100.253Z" fill="#E0E0E0"/>
<path d="M237.23 100.253C237.323 100.242 237.455 100.255 237.629 100.291C237.883 100.35 238.281 100.505 238.595 100.931C238.751 101.139 238.87 101.418 238.907 101.738C238.949 102.063 238.855 102.407 238.814 102.778C238.708 103.523 238.587 104.38 238.45 105.343C237.893 109.205 237.092 114.772 236.107 121.615L236.096 121.681H236.028C225.269 121.688 211.13 121.696 195.689 121.705C195.327 121.705 194.965 121.705 194.603 121.705C194.436 121.713 194.203 121.704 194.029 121.596C193.849 121.497 193.711 121.331 193.64 121.14C193.489 120.755 193.67 120.282 194.032 120.09C194.206 119.985 194.437 119.976 194.602 119.984H195.138C196.562 119.984 197.97 119.984 199.362 119.984C202.145 119.985 204.855 119.987 207.467 119.987L207.369 120.07C208.364 113.473 209.291 107.318 210.124 101.798C210.152 101.448 210.311 101.07 210.591 100.835C210.866 100.592 211.213 100.462 211.557 100.409C211.91 100.355 212.244 100.384 212.576 100.372C212.911 100.371 213.241 100.368 213.569 100.366C214.881 100.358 216.151 100.349 217.374 100.341C219.82 100.325 222.084 100.311 224.138 100.298C228.241 100.277 231.513 100.26 233.765 100.248C234.884 100.247 235.749 100.244 236.341 100.244C236.629 100.245 236.85 100.245 237.006 100.247C237.105 100.248 237.181 100.251 237.23 100.253C237.181 100.257 237.105 100.261 237.006 100.264C236.85 100.268 236.629 100.272 236.341 100.278C235.749 100.286 234.884 100.299 233.765 100.315C231.513 100.341 228.242 100.376 224.138 100.422C222.084 100.443 219.822 100.465 217.376 100.49C216.151 100.502 214.883 100.513 213.569 100.525C213.241 100.529 212.911 100.532 212.578 100.534C212.244 100.546 211.903 100.52 211.583 100.571C211.262 100.622 210.944 100.743 210.703 100.96C210.453 101.176 210.322 101.478 210.291 101.823C209.468 107.346 208.549 113.502 207.564 120.1L207.552 120.184H207.467C204.855 120.185 202.145 120.185 199.362 120.186C197.97 120.186 196.562 120.186 195.138 120.188H194.602C194.414 120.183 194.273 120.189 194.131 120.269C193.854 120.415 193.716 120.776 193.832 121.07C193.884 121.216 193.992 121.343 194.129 121.419C194.271 121.498 194.412 121.506 194.603 121.501C194.965 121.501 195.327 121.501 195.689 121.501C211.13 121.51 225.269 121.519 236.028 121.526L235.951 121.592C236.967 114.753 237.791 109.191 238.363 105.33C238.508 104.368 238.636 103.511 238.748 102.767C238.793 102.395 238.889 102.054 238.851 101.744C238.819 101.433 238.707 101.163 238.558 100.958C238.259 100.539 237.872 100.379 237.624 100.313C237.369 100.252 237.23 100.264 237.23 100.253Z" fill="#263238"/>
<path d="M221.938 110.695C221.938 111.568 222.647 112.277 223.521 112.277C224.395 112.277 225.103 111.568 225.103 110.695C225.103 109.821 224.395 109.111 223.521 109.111C222.647 109.111 221.938 109.821 221.938 110.695Z" fill="white"/>
<path d="M208.492 121.434C208.527 121.44 209.332 116.749 210.288 110.958C211.245 105.164 211.991 100.466 211.956 100.459C211.92 100.454 211.115 105.143 210.159 110.936C209.202 116.727 208.455 121.428 208.492 121.434Z" fill="#263238"/>
</g>
<defs>
<filter id="filter0_d_3741:1331" x="0" y="0" width="524" height="204" filterUnits="userSpaceOnUse" color-interpolation-filters="sRGB">
<feFlood flood-opacity="0" result="BackgroundImageFix"/>
<feColorMatrix in="SourceAlpha" type="matrix" values="0 0 0 0 0 0 0 0 0 0 0 0 0 0 0 0 0 0 127 0" result="hardAlpha"/>
<feOffset/>
<feGaussianBlur stdDeviation="1"/>
<feComposite in2="hardAlpha" operator="out"/>
<feColorMatrix type="matrix" values="0 0 0 0 0 0 0 0 0 0 0 0 0 0 0 0 0 0 0.25 0"/>
<feBlend mode="normal" in2="BackgroundImageFix" result="effect1_dropShadow_3741:1331"/>
<feBlend mode="normal" in="SourceGraphic" in2="effect1_dropShadow_3741:1331" result="shape"/>
</filter>
</defs>
</svg>
