<svg width="520" height="200" viewBox="0 0 520 200" fill="none" xmlns="http://www.w3.org/2000/svg">
<rect width="520" height="200" rx="6" fill="#FCFCFC"/>
<mask id="mask0" style="mask-type:alpha" maskUnits="userSpaceOnUse" x="0" y="0" width="520" height="200">
<rect width="520" height="200" rx="6" fill="white"/>
</mask>
<g mask="url(#mask0)">
<path fill-rule="evenodd" clip-rule="evenodd" d="M214 52C214 45.3726 219.373 40 226 40H333.842C340.469 40 345.842 45.3726 345.842 52V286.687C345.842 300.57 334.587 311.824 320.705 311.824H239.137C225.254 311.824 214 300.57 214 286.687V52Z" fill="#BCF8FF"/>
<path fill-rule="evenodd" clip-rule="evenodd" d="M218.755 59.9697C218.755 55.5515 222.337 51.9697 226.755 51.9697H332.654C337.073 51.9697 340.654 55.5514 340.654 59.9697V284.904C340.654 295.133 332.362 303.426 322.132 303.426H237.277C227.047 303.426 218.755 295.133 218.755 284.904V59.9697Z" fill="white"/>
<mask id="mask1" style="mask-type:alpha" maskUnits="userSpaceOnUse" x="218" y="51" width="123" height="253">
<path fill-rule="evenodd" clip-rule="evenodd" d="M218.755 59.9697C218.755 55.5515 222.337 51.9697 226.755 51.9697H332.654C337.073 51.9697 340.654 55.5514 340.654 59.9697V284.904C340.654 295.133 332.362 303.426 322.132 303.426H237.277C227.047 303.426 218.755 295.133 218.755 284.904V59.9697Z" fill="white"/>
</mask>
<g mask="url(#mask1)">
</g>
<path d="M292.295 44.4346C293.423 44.4346 294.337 45.3065 294.337 46.3821C294.337 47.4337 293.463 48.2907 292.37 48.3283L292.295 48.3296H256.135C255.007 48.3296 254.093 47.4576 254.093 46.3821C254.093 45.3304 254.967 44.4734 256.06 44.4359L256.135 44.4346H292.295Z" fill="#56CDD9"/>
<path d="M298.936 44.1094C300.064 44.1094 300.978 45.0176 300.978 46.138C300.978 47.2335 300.104 48.1262 299.011 48.1653L298.936 48.1667H298.829C297.701 48.1667 296.787 47.2584 296.787 46.138C296.787 45.0425 297.661 44.1498 298.754 44.1107L298.829 44.1094H298.936Z" fill="#56CDD9"/>
<path opacity="0.33996" d="M387 176.789H382.485C380.828 176.789 379.485 175.446 379.485 173.789V169L387 176.789Z" fill="#4EA3D6"/>
<path fill-rule="evenodd" clip-rule="evenodd" d="M319.42 107.752C319.42 101.814 314.606 97 308.668 97H250.048C244.11 97 239.296 101.814 239.296 107.752V179.83C239.296 185.768 244.11 190.582 250.048 190.582H308.668C314.606 190.582 319.42 185.768 319.42 179.83V107.752Z" fill="#B8E1F9"/>
<path fill-rule="evenodd" clip-rule="evenodd" d="M313.359 114.455C313.359 108.691 308.687 104.019 302.923 104.019H256.699C250.935 104.019 246.263 108.691 246.263 114.455C246.263 120.219 250.935 124.892 256.699 124.892H302.923C308.687 124.892 313.359 120.219 313.359 114.455Z" fill="#E3F4FF"/>
<path fill-rule="evenodd" clip-rule="evenodd" d="M308.824 114.382C308.824 110.597 305.756 107.528 301.97 107.528H301.163C297.378 107.528 294.309 110.597 294.309 114.382C294.309 118.168 297.378 121.237 301.163 121.237H301.97C305.756 121.237 308.824 118.168 308.824 114.382Z" fill="#BFE7FF"/>
<path fill-rule="evenodd" clip-rule="evenodd" d="M313.359 141.872C313.359 136.108 308.687 131.436 302.923 131.436H256.699C250.935 131.436 246.263 136.108 246.263 141.872C246.263 147.636 250.935 152.309 256.699 152.309H302.923C308.687 152.309 313.359 147.636 313.359 141.872Z" fill="#E3F4FF"/>
<path fill-rule="evenodd" clip-rule="evenodd" d="M313.359 169.288C313.359 163.524 308.687 158.852 302.923 158.852H256.699C250.935 158.852 246.263 163.524 246.263 169.288C246.263 175.052 250.935 179.725 256.699 179.725H302.923C308.687 179.725 313.359 175.052 313.359 169.288Z" fill="#E3F4FF"/>
<path fill-rule="evenodd" clip-rule="evenodd" d="M308.824 169.215C308.824 165.43 305.756 162.361 301.97 162.361H301.163C297.378 162.361 294.309 165.43 294.309 169.215C294.309 173.001 297.378 176.07 301.163 176.07H301.97C305.756 176.07 308.824 173.001 308.824 169.215Z" fill="#BFE7FF"/>
<path fill-rule="evenodd" clip-rule="evenodd" d="M308.516 141.854C308.516 138.069 305.447 135 301.661 135H300.855C297.069 135 294 138.069 294 141.854C294 145.64 297.069 148.708 300.855 148.708H301.661C305.447 148.708 308.516 145.64 308.516 141.854Z" fill="#BFE7FF"/>
<path fill-rule="evenodd" clip-rule="evenodd" d="M177.734 162.968C177.734 162.968 165.405 230.582 163.243 237.622C161.081 244.663 155.085 297.621 155.085 297.621L142.134 297.658C142.134 297.658 141.859 256.892 143.167 250.34C144.475 243.788 147.428 232.998 147.428 232.998C147.428 232.998 149.622 193.826 150.935 184.689C152.247 175.551 156.46 162.007 156.46 162.007L177.734 162.968Z" fill="#33373E"/>
<path fill-rule="evenodd" clip-rule="evenodd" d="M165.927 194.553C169.303 206.525 172.054 235.763 172.054 235.763C172.054 235.763 172.365 238.843 171.02 247.376C169.675 255.908 174.975 297.426 174.975 297.426L188.923 297.454C188.923 297.454 190.644 241.679 190.725 235.812C190.853 226.666 193.869 163.249 193.869 163.249L164.859 162.6C164.859 162.6 162.551 182.58 165.927 194.553Z" fill="#42474F"/>
<path fill-rule="evenodd" clip-rule="evenodd" d="M186.266 187.249L186.321 187.484C188.325 195.771 184.888 232.501 185.867 241.235L186.256 244.359C186.936 249.974 188.087 260.211 189.709 275.068L190.06 262.632C190.383 250.813 190.658 239.692 190.717 236.309L190.725 235.813C190.853 226.666 193.869 163.25 193.869 163.25L188.442 163.129L188.204 164.155C185.809 174.663 185.163 182.361 186.266 187.249Z" fill="white" fill-opacity="0.192499"/>
<path fill-rule="evenodd" clip-rule="evenodd" d="M186.971 80.0591C189.976 80.3853 189.763 85.628 186.105 85.9017C185.357 90.9557 182.691 93.3637 179.441 93.6423L179.621 101.287L165.244 101.278C165.244 101.278 169.292 95.878 169.091 88.485C168.889 81.0917 169.226 74.1465 169.226 74.1465L187.848 74.4781L186.971 80.0591Z" fill="#FBCCCC"/>
<path fill-rule="evenodd" clip-rule="evenodd" d="M188.413 76.9446C189.709 77.5658 188.677 80.3729 188.021 80.3729C185.012 79.1917 182.516 83.4449 181.248 87.7165C177.646 91.2241 169.687 91.3018 168.864 88.3676C165.751 81.9411 165.599 72.6486 169.231 71.9315C166.38 64.4635 204.892 60.5569 188.413 76.9446Z" fill="#33373E"/>
<path fill-rule="evenodd" clip-rule="evenodd" d="M185.197 88.7652C185.049 88.4432 184.167 90.6476 182.741 91.8293C181.266 93.0521 179.051 93.4102 179.441 93.6421C182.434 95.422 186.402 91.3889 185.197 88.7652Z" fill="url(#paint0_linear)"/>
<path fill-rule="evenodd" clip-rule="evenodd" d="M129.391 115.554C129.391 115.554 130.02 111.303 129.82 108.506C129.451 103.333 130.157 98.9697 129.016 98.2909C127.553 97.4203 127.187 105.144 127.187 105.144C127.187 105.144 118.83 91.485 117.088 93.1354C115.345 94.7854 118.98 101.963 118.403 104.039C117.827 106.114 123.586 116.152 123.586 116.152L129.391 115.554Z" fill="#FBCCCC"/>
<path fill-rule="evenodd" clip-rule="evenodd" d="M160.284 118.009C160.284 118.009 147.625 137.777 144.829 141.611C141.895 145.632 136.715 147.412 133.038 140.998C129.787 135.324 122.824 121.115 121.943 116.698C121.285 113.402 128.019 108.49 131.256 113.415C134.492 118.339 139.604 125.744 139.604 125.744C139.604 125.744 148.009 110.455 150.63 106.847C157.696 97.119 168.462 105.855 160.284 118.009Z" fill="#52C686"/>
<path fill-rule="evenodd" clip-rule="evenodd" d="M139.604 125.744L136.823 130.552L137.836 123.131L139.604 125.744Z" fill="black" fill-opacity="0.159856"/>
<path d="M131.02 113.574C128.079 112.641 125.387 113.138 123.238 116.771" stroke="#5386BF" stroke-linecap="round"/>
<path fill-rule="evenodd" clip-rule="evenodd" d="M166.351 98.2061L181.243 98.3013L181.853 98.5437C184.309 99.539 193.433 103.414 195.133 106.733C197.973 112.279 194.231 156.712 195.862 159.393C199.303 165.049 194.808 168.95 179.872 170.425L179.416 170.469C164.116 171.91 150.542 170.73 153.005 163.106C155.469 155.481 147.931 106.37 155 102.977L166.351 98.2061Z" fill="#5FDA96"/>
<path fill-rule="evenodd" clip-rule="evenodd" d="M182.412 109.459C180.205 114.204 184.588 126.553 195.558 146.505L195.694 142.048C196.053 130.922 196.581 117.36 195.918 110.535C188.989 105.355 184.487 104.995 182.412 109.459Z" fill="black" fill-opacity="0.159856"/>
<path fill-rule="evenodd" clip-rule="evenodd" d="M182.245 96.9039C181.319 96.6543 165.805 96.9039 165.189 96.9039C164.572 96.9039 164.572 99.5083 165.189 99.5083C165.565 99.5083 170.377 99.4374 182.246 99.2955C183.317 99.2827 186.175 100.479 186.175 100.479C186.175 100.479 183.172 97.1535 182.245 96.9039Z" fill="#52C686"/>
<path fill-rule="evenodd" clip-rule="evenodd" d="M242.344 142.098C242.344 142.098 250.457 143.369 251.988 142.121C253.519 140.873 259.615 132.387 258.949 130.926C258.283 129.467 252.721 132.555 252.247 131.626C251.637 130.433 254.783 126.178 252.027 125.93C251.317 125.866 250.815 128.485 248.817 130.21C246.818 131.936 241.994 135.763 241.994 135.763L242.344 142.098Z" fill="#FBCCCC"/>
<path fill-rule="evenodd" clip-rule="evenodd" d="M193.309 104.742C200.321 111.326 210.249 126.872 212.365 128.242C214.48 129.612 240.945 132.374 243.436 134.604C245.518 136.467 245.705 142.134 243.436 143.706C241.167 145.278 211.371 143.171 205.907 141.6C200.442 140.029 191.082 125.633 186.901 121.139C175.209 108.572 186.297 98.1586 193.309 104.742Z" fill="#52C686"/>
<path d="M240.684 133.691C241.994 135.204 242.655 137.408 241.994 141.715" stroke="#5386BF" stroke-linecap="round"/>
<path d="M301.04 117.865L297.723 114.548L298.92 113.35L301.04 115.47L304.51 112L305.708 113.198L301.04 117.865Z" fill="white"/>
<path d="M300.733 145.337L297.415 142.019L298.613 140.822L300.733 142.942L304.203 139.472L305.4 140.669L300.733 145.337Z" fill="white"/>
<path d="M301.318 171.865L298 168.548L299.198 167.35L301.318 169.47L304.788 166L305.985 167.198L301.318 171.865Z" fill="white"/>
</g>
<defs>
<linearGradient id="paint0_linear" x1="187.311" y1="96.9675" x2="175.976" y2="98.7586" gradientUnits="userSpaceOnUse">
<stop stop-color="#4D63A0"/>
<stop offset="1" stop-color="#222735"/>
</linearGradient>
</defs>
</svg>
