<svg width="524" height="204" viewBox="0 0 524 204" fill="none" xmlns="http://www.w3.org/2000/svg">
<g filter="url(#filter0_d_3740:1329)">
<rect x="2" y="2" width="520" height="200" rx="6" fill="#FCFCFC"/>
<mask id="mask0_3740:1329" style="mask-type:alpha" maskUnits="userSpaceOnUse" x="2" y="2" width="520" height="200">
<rect x="2" y="2" width="520" height="200" rx="6" fill="white"/>
</mask>
<g mask="url(#mask0_3740:1329)">
<path fill-rule="evenodd" clip-rule="evenodd" d="M174 44.5C174 35.6634 181.163 28.5 190 28.5H298.831C307.667 28.5 314.831 35.6634 314.831 44.5V297.173C314.831 311.056 303.577 322.31 289.694 322.31H199.137C185.254 322.31 174 311.056 174 297.173V44.5Z" fill="#263238"/>
<path fill-rule="evenodd" clip-rule="evenodd" d="M179.079 52.9429C179.079 42.7135 187.372 34.4209 197.601 34.4209H210.686C211.213 34.4209 211.644 34.8397 211.659 35.366C211.767 39.1379 214.856 42.1393 218.63 42.1393H269.739C273.513 42.1393 276.602 39.1379 276.71 35.366C276.725 34.8397 277.156 34.4209 277.683 34.4209H290.768C300.997 34.4209 309.29 42.7135 309.29 52.9429V296.114C309.29 306.343 300.997 314.636 290.768 314.636H197.601C187.372 314.636 179.079 306.343 179.079 296.114V52.9429Z" fill="white"/>
<mask id="mask1_3740:1329" style="mask-type:alpha" maskUnits="userSpaceOnUse" x="179" y="34" width="131" height="281">
<path fill-rule="evenodd" clip-rule="evenodd" d="M179.079 52.9429C179.079 42.7135 187.372 34.4209 197.601 34.4209H210.686C211.213 34.4209 211.644 34.8397 211.659 35.366C211.767 39.1379 214.856 42.1393 218.63 42.1393H269.739C273.513 42.1393 276.602 39.1379 276.71 35.366C276.725 34.8397 277.156 34.4209 277.683 34.4209H290.768C300.997 34.4209 309.29 42.7135 309.29 52.9429V296.114C309.29 306.343 300.997 314.636 290.768 314.636H197.601C187.372 314.636 179.079 306.343 179.079 296.114V52.9429Z" fill="white"/>
</mask>
<g mask="url(#mask1_3740:1329)">
</g>
<path d="M207.716 123.562H206.881V125H206.41V121.445H207.587C207.987 121.445 208.295 121.536 208.51 121.719C208.726 121.901 208.834 122.166 208.834 122.515C208.834 122.736 208.774 122.929 208.654 123.093C208.535 123.258 208.369 123.381 208.156 123.462L208.991 124.971V125H208.488L207.716 123.562ZM206.881 123.179H207.602C207.834 123.179 208.019 123.118 208.156 122.998C208.294 122.878 208.363 122.716 208.363 122.515C208.363 122.295 208.297 122.126 208.166 122.009C208.035 121.892 207.847 121.833 207.599 121.831H206.881V123.179ZM210.519 125.049C210.161 125.049 209.87 124.932 209.645 124.697C209.42 124.461 209.308 124.146 209.308 123.752V123.669C209.308 123.407 209.358 123.174 209.457 122.969C209.558 122.762 209.698 122.601 209.877 122.485C210.058 122.368 210.253 122.31 210.463 122.31C210.806 122.31 211.073 122.423 211.264 122.649C211.454 122.875 211.549 123.199 211.549 123.621V123.809H209.76C209.766 124.069 209.842 124.28 209.987 124.441C210.133 124.6 210.319 124.68 210.543 124.68C210.703 124.68 210.838 124.648 210.949 124.583C211.059 124.517 211.156 124.431 211.239 124.324L211.515 124.539C211.294 124.879 210.962 125.049 210.519 125.049ZM210.463 122.681C210.281 122.681 210.128 122.747 210.004 122.881C209.88 123.013 209.804 123.198 209.774 123.438H211.098V123.403C211.085 123.174 211.023 122.996 210.912 122.871C210.801 122.744 210.652 122.681 210.463 122.681ZM213.612 124.299C213.612 124.177 213.566 124.083 213.473 124.016C213.382 123.948 213.222 123.889 212.992 123.84C212.764 123.792 212.583 123.733 212.448 123.665C212.314 123.596 212.215 123.515 212.15 123.42C212.086 123.326 212.055 123.214 212.055 123.083C212.055 122.867 212.146 122.684 212.328 122.534C212.512 122.384 212.746 122.31 213.031 122.31C213.331 122.31 213.573 122.387 213.759 122.542C213.946 122.696 214.04 122.894 214.04 123.135H213.585C213.585 123.011 213.533 122.904 213.427 122.815C213.323 122.725 213.191 122.681 213.031 122.681C212.867 122.681 212.738 122.716 212.646 122.788C212.553 122.86 212.506 122.953 212.506 123.069C212.506 123.178 212.549 123.26 212.636 123.315C212.722 123.371 212.877 123.424 213.102 123.474C213.328 123.525 213.511 123.585 213.651 123.655C213.791 123.725 213.895 123.809 213.961 123.909C214.03 124.006 214.064 124.126 214.064 124.268C214.064 124.504 213.97 124.693 213.781 124.836C213.592 124.978 213.347 125.049 213.046 125.049C212.834 125.049 212.647 125.011 212.484 124.937C212.322 124.862 212.194 124.757 212.101 124.624C212.01 124.489 211.964 124.343 211.964 124.187H212.416C212.424 124.338 212.484 124.459 212.597 124.548C212.711 124.636 212.86 124.68 213.046 124.68C213.217 124.68 213.354 124.646 213.456 124.578C213.56 124.508 213.612 124.415 213.612 124.299ZM215.749 125.049C215.39 125.049 215.099 124.932 214.875 124.697C214.65 124.461 214.538 124.146 214.538 123.752V123.669C214.538 123.407 214.587 123.174 214.687 122.969C214.787 122.762 214.927 122.601 215.106 122.485C215.287 122.368 215.482 122.31 215.692 122.31C216.036 122.31 216.303 122.423 216.493 122.649C216.684 122.875 216.779 123.199 216.779 123.621V123.809H214.989C214.996 124.069 215.071 124.28 215.216 124.441C215.363 124.6 215.548 124.68 215.773 124.68C215.932 124.68 216.068 124.648 216.178 124.583C216.289 124.517 216.386 124.431 216.469 124.324L216.745 124.539C216.523 124.879 216.191 125.049 215.749 125.049ZM215.692 122.681C215.51 122.681 215.357 122.747 215.233 122.881C215.11 123.013 215.033 123.198 215.004 123.438H216.327V123.403C216.314 123.174 216.252 122.996 216.142 122.871C216.031 122.744 215.881 122.681 215.692 122.681ZM217.917 121.719V122.358H218.41V122.708H217.917V124.346C217.917 124.451 217.938 124.531 217.982 124.585C218.026 124.637 218.101 124.663 218.207 124.663C218.259 124.663 218.331 124.653 218.422 124.634V125C218.303 125.033 218.188 125.049 218.075 125.049C217.873 125.049 217.721 124.988 217.619 124.866C217.516 124.744 217.465 124.57 217.465 124.346V122.708H216.984V122.358H217.465V121.719H217.917ZM221.959 123.608V125H221.491V121.445H222.802C223.191 121.445 223.495 121.545 223.715 121.743C223.936 121.942 224.047 122.205 224.047 122.532C224.047 122.877 223.939 123.143 223.722 123.33C223.507 123.516 223.199 123.608 222.797 123.608H221.959ZM221.959 123.225H222.802C223.052 123.225 223.244 123.167 223.378 123.049C223.511 122.931 223.578 122.76 223.578 122.537C223.578 122.325 223.511 122.156 223.378 122.029C223.244 121.902 223.061 121.836 222.829 121.831H221.959V123.225ZM226.176 125C226.15 124.948 226.129 124.855 226.112 124.722C225.902 124.94 225.652 125.049 225.36 125.049C225.1 125.049 224.886 124.976 224.718 124.829C224.552 124.681 224.469 124.494 224.469 124.268C224.469 123.993 224.573 123.779 224.782 123.628C224.992 123.475 225.286 123.398 225.666 123.398H226.105V123.191C226.105 123.033 226.058 122.908 225.963 122.815C225.869 122.721 225.73 122.673 225.546 122.673C225.385 122.673 225.25 122.714 225.141 122.795C225.032 122.877 224.977 122.975 224.977 123.091H224.523C224.523 122.959 224.569 122.832 224.662 122.71C224.757 122.586 224.883 122.489 225.043 122.417C225.204 122.345 225.381 122.31 225.573 122.31C225.877 122.31 226.116 122.386 226.288 122.539C226.461 122.69 226.55 122.9 226.557 123.167V124.382C226.557 124.625 226.588 124.818 226.649 124.961V125H226.176ZM225.426 124.656C225.568 124.656 225.702 124.619 225.829 124.546C225.956 124.473 226.048 124.377 226.105 124.26V123.718H225.751C225.198 123.718 224.921 123.88 224.921 124.204C224.921 124.346 224.968 124.456 225.062 124.536C225.157 124.616 225.278 124.656 225.426 124.656ZM228.803 124.299C228.803 124.177 228.756 124.083 228.664 124.016C228.572 123.948 228.412 123.889 228.183 123.84C227.955 123.792 227.773 123.733 227.638 123.665C227.505 123.596 227.405 123.515 227.34 123.42C227.277 123.326 227.245 123.214 227.245 123.083C227.245 122.867 227.336 122.684 227.519 122.534C227.702 122.384 227.937 122.31 228.222 122.31C228.521 122.31 228.764 122.387 228.949 122.542C229.136 122.696 229.23 122.894 229.23 123.135H228.776C228.776 123.011 228.723 122.904 228.617 122.815C228.513 122.725 228.381 122.681 228.222 122.681C228.057 122.681 227.929 122.716 227.836 122.788C227.743 122.86 227.697 122.953 227.697 123.069C227.697 123.178 227.74 123.26 227.826 123.315C227.912 123.371 228.068 123.424 228.292 123.474C228.519 123.525 228.702 123.585 228.842 123.655C228.982 123.725 229.085 123.809 229.152 123.909C229.22 124.006 229.254 124.126 229.254 124.268C229.254 124.504 229.16 124.693 228.971 124.836C228.782 124.978 228.537 125.049 228.236 125.049C228.025 125.049 227.838 125.011 227.675 124.937C227.512 124.862 227.384 124.757 227.292 124.624C227.2 124.489 227.155 124.343 227.155 124.187H227.606C227.615 124.338 227.675 124.459 227.787 124.548C227.901 124.636 228.051 124.68 228.236 124.68C228.407 124.68 228.544 124.646 228.646 124.578C228.751 124.508 228.803 124.415 228.803 124.299ZM231.381 124.299C231.381 124.177 231.334 124.083 231.242 124.016C231.151 123.948 230.99 123.889 230.761 123.84C230.533 123.792 230.351 123.733 230.216 123.665C230.083 123.596 229.984 123.515 229.918 123.42C229.855 123.326 229.823 123.214 229.823 123.083C229.823 122.867 229.914 122.684 230.097 122.534C230.281 122.384 230.515 122.31 230.8 122.31C231.099 122.31 231.342 122.387 231.527 122.542C231.715 122.696 231.808 122.894 231.808 123.135H231.354C231.354 123.011 231.301 122.904 231.195 122.815C231.091 122.725 230.959 122.681 230.8 122.681C230.635 122.681 230.507 122.716 230.414 122.788C230.321 122.86 230.275 122.953 230.275 123.069C230.275 123.178 230.318 123.26 230.404 123.315C230.491 123.371 230.646 123.424 230.871 123.474C231.097 123.525 231.28 123.585 231.42 123.655C231.56 123.725 231.663 123.809 231.73 123.909C231.798 124.006 231.833 124.126 231.833 124.268C231.833 124.504 231.738 124.693 231.549 124.836C231.361 124.978 231.116 125.049 230.814 125.049C230.603 125.049 230.416 125.011 230.253 124.937C230.09 124.862 229.962 124.757 229.87 124.624C229.778 124.489 229.733 124.343 229.733 124.187H230.185C230.193 124.338 230.253 124.459 230.365 124.548C230.479 124.636 230.629 124.68 230.814 124.68C230.985 124.68 231.122 124.646 231.225 124.578C231.329 124.508 231.381 124.415 231.381 124.299ZM234.76 124.377L235.268 122.358H235.719L234.95 125H234.584L233.942 122.998L233.317 125H232.951L232.184 122.358H232.633L233.153 124.336L233.769 122.358H234.132L234.76 124.377ZM236.061 123.655C236.061 123.396 236.111 123.163 236.212 122.957C236.315 122.75 236.457 122.59 236.637 122.478C236.819 122.366 237.027 122.31 237.26 122.31C237.619 122.31 237.91 122.434 238.131 122.683C238.354 122.932 238.466 123.263 238.466 123.677V123.708C238.466 123.966 238.416 124.197 238.317 124.402C238.219 124.605 238.078 124.764 237.895 124.878C237.712 124.992 237.502 125.049 237.265 125.049C236.907 125.049 236.616 124.924 236.393 124.675C236.172 124.426 236.061 124.097 236.061 123.687V123.655ZM236.515 123.708C236.515 124.001 236.583 124.237 236.718 124.414C236.854 124.591 237.037 124.68 237.265 124.68C237.494 124.68 237.676 124.591 237.812 124.412C237.947 124.231 238.014 123.979 238.014 123.655C238.014 123.365 237.945 123.131 237.807 122.952C237.67 122.771 237.488 122.681 237.26 122.681C237.037 122.681 236.857 122.769 236.72 122.947C236.583 123.124 236.515 123.378 236.515 123.708ZM240.309 122.764C240.241 122.752 240.167 122.747 240.087 122.747C239.791 122.747 239.59 122.873 239.484 123.125V125H239.032V122.358H239.472L239.479 122.664C239.627 122.428 239.837 122.31 240.109 122.31C240.197 122.31 240.264 122.321 240.309 122.344V122.764ZM240.568 123.657C240.568 123.252 240.664 122.926 240.856 122.681C241.048 122.433 241.299 122.31 241.61 122.31C241.92 122.31 242.165 122.415 242.345 122.627V121.25H242.797V125H242.382L242.36 124.717C242.179 124.938 241.928 125.049 241.605 125.049C241.299 125.049 241.05 124.924 240.856 124.673C240.664 124.422 240.568 124.095 240.568 123.691V123.657ZM241.02 123.708C241.02 124.008 241.081 124.242 241.205 124.412C241.329 124.581 241.5 124.666 241.718 124.666C242.004 124.666 242.213 124.537 242.345 124.28V123.066C242.21 122.817 242.003 122.693 241.723 122.693C241.501 122.693 241.329 122.778 241.205 122.949C241.081 123.12 241.02 123.373 241.02 123.708Z" fill="#1F4EAD"/>
<path d="M208.027 151.872C207.983 152.248 207.844 152.539 207.61 152.744C207.377 152.947 207.067 153.049 206.68 153.049C206.26 153.049 205.923 152.898 205.669 152.597C205.417 152.296 205.291 151.893 205.291 151.389V151.047C205.291 150.716 205.349 150.426 205.466 150.175C205.585 149.925 205.753 149.733 205.969 149.599C206.186 149.464 206.436 149.396 206.721 149.396C207.099 149.396 207.402 149.502 207.629 149.714C207.857 149.924 207.99 150.215 208.027 150.588H207.556C207.515 150.305 207.427 150.1 207.29 149.973C207.155 149.846 206.965 149.782 206.721 149.782C206.422 149.782 206.187 149.893 206.016 150.114C205.846 150.336 205.762 150.651 205.762 151.059V151.403C205.762 151.789 205.842 152.096 206.003 152.324C206.165 152.552 206.39 152.666 206.68 152.666C206.94 152.666 207.139 152.607 207.278 152.49C207.418 152.371 207.511 152.165 207.556 151.872H208.027ZM208.479 151.655C208.479 151.396 208.529 151.163 208.63 150.957C208.733 150.75 208.875 150.59 209.055 150.478C209.237 150.366 209.445 150.31 209.678 150.31C210.037 150.31 210.328 150.434 210.549 150.683C210.772 150.932 210.884 151.263 210.884 151.677V151.708C210.884 151.966 210.834 152.197 210.735 152.402C210.637 152.605 210.496 152.764 210.312 152.878C210.13 152.992 209.92 153.049 209.683 153.049C209.325 153.049 209.034 152.924 208.811 152.675C208.59 152.426 208.479 152.097 208.479 151.687V151.655ZM208.933 151.708C208.933 152.001 209.001 152.237 209.136 152.414C209.272 152.591 209.455 152.68 209.683 152.68C209.912 152.68 210.094 152.591 210.229 152.412C210.365 152.231 210.432 151.979 210.432 151.655C210.432 151.365 210.363 151.131 210.225 150.952C210.088 150.771 209.906 150.681 209.678 150.681C209.455 150.681 209.275 150.769 209.138 150.947C209.001 151.124 208.933 151.378 208.933 151.708ZM211.877 150.358L211.892 150.69C212.094 150.437 212.358 150.31 212.683 150.31C213.241 150.31 213.523 150.625 213.528 151.254V153H213.076V151.252C213.075 151.062 213.031 150.921 212.944 150.83C212.86 150.738 212.727 150.693 212.546 150.693C212.4 150.693 212.271 150.732 212.161 150.81C212.05 150.888 211.964 150.991 211.902 151.118V153H211.45V150.358H211.877ZM214.431 153V150.708H214.014V150.358H214.431V150.087C214.431 149.804 214.507 149.585 214.658 149.431C214.81 149.276 215.024 149.199 215.3 149.199C215.404 149.199 215.508 149.213 215.61 149.24L215.586 149.606C215.509 149.592 215.428 149.584 215.342 149.584C215.195 149.584 215.082 149.628 215.002 149.714C214.923 149.799 214.883 149.921 214.883 150.08V150.358H215.447V150.708H214.883V153H214.431ZM216.438 153H215.986V150.358H216.438V153ZM215.95 149.658C215.95 149.584 215.972 149.523 216.016 149.472C216.061 149.422 216.128 149.396 216.216 149.396C216.304 149.396 216.37 149.422 216.416 149.472C216.462 149.523 216.484 149.584 216.484 149.658C216.484 149.731 216.462 149.792 216.416 149.841C216.37 149.89 216.304 149.914 216.216 149.914C216.128 149.914 216.061 149.89 216.016 149.841C215.972 149.792 215.95 149.731 215.95 149.658ZM218.44 150.764C218.372 150.752 218.298 150.747 218.218 150.747C217.922 150.747 217.721 150.873 217.615 151.125V153H217.163V150.358H217.603L217.61 150.664C217.758 150.428 217.968 150.31 218.24 150.31C218.328 150.31 218.394 150.321 218.44 150.344V150.764ZM219.282 150.358L219.294 150.651C219.488 150.424 219.749 150.31 220.078 150.31C220.448 150.31 220.699 150.451 220.833 150.734C220.92 150.607 221.034 150.505 221.174 150.427C221.316 150.349 221.483 150.31 221.675 150.31C222.254 150.31 222.549 150.616 222.559 151.23V153H222.107V151.257C222.107 151.068 222.064 150.927 221.978 150.834C221.891 150.74 221.746 150.693 221.543 150.693C221.375 150.693 221.236 150.743 221.125 150.844C221.015 150.944 220.951 151.078 220.933 151.247V153H220.479V151.269C220.479 150.885 220.291 150.693 219.915 150.693C219.618 150.693 219.416 150.819 219.307 151.071V153H218.855V150.358H219.282ZM225.022 151.608V153H224.553V149.445H225.864C226.253 149.445 226.558 149.545 226.777 149.743C226.999 149.942 227.109 150.205 227.109 150.532C227.109 150.877 227.001 151.143 226.785 151.33C226.57 151.516 226.261 151.608 225.859 151.608H225.022ZM225.022 151.225H225.864C226.115 151.225 226.307 151.167 226.44 151.049C226.574 150.931 226.641 150.76 226.641 150.537C226.641 150.325 226.574 150.156 226.44 150.029C226.307 149.902 226.124 149.836 225.891 149.831H225.022V151.225ZM229.238 153C229.212 152.948 229.191 152.855 229.175 152.722C228.965 152.94 228.714 153.049 228.423 153.049C228.162 153.049 227.948 152.976 227.781 152.829C227.615 152.681 227.532 152.494 227.532 152.268C227.532 151.993 227.636 151.779 227.844 151.628C228.054 151.475 228.349 151.398 228.728 151.398H229.167V151.191C229.167 151.033 229.12 150.908 229.026 150.815C228.931 150.721 228.792 150.673 228.608 150.673C228.447 150.673 228.312 150.714 228.203 150.795C228.094 150.877 228.04 150.975 228.04 151.091H227.585C227.585 150.959 227.632 150.832 227.725 150.71C227.819 150.586 227.946 150.489 228.105 150.417C228.267 150.345 228.443 150.31 228.635 150.31C228.94 150.31 229.178 150.386 229.351 150.539C229.523 150.69 229.613 150.9 229.619 151.167V152.382C229.619 152.625 229.65 152.818 229.712 152.961V153H229.238ZM228.489 152.656C228.63 152.656 228.765 152.619 228.892 152.546C229.019 152.473 229.111 152.377 229.167 152.26V151.718H228.813C228.26 151.718 227.983 151.88 227.983 152.204C227.983 152.346 228.031 152.456 228.125 152.536C228.219 152.616 228.341 152.656 228.489 152.656ZM231.865 152.299C231.865 152.177 231.819 152.083 231.726 152.016C231.635 151.948 231.475 151.889 231.245 151.84C231.017 151.792 230.836 151.733 230.701 151.665C230.567 151.596 230.468 151.515 230.403 151.42C230.339 151.326 230.308 151.214 230.308 151.083C230.308 150.867 230.399 150.684 230.581 150.534C230.765 150.384 230.999 150.31 231.284 150.31C231.584 150.31 231.826 150.387 232.012 150.542C232.199 150.696 232.292 150.894 232.292 151.135H231.838C231.838 151.011 231.785 150.904 231.68 150.815C231.576 150.725 231.444 150.681 231.284 150.681C231.12 150.681 230.991 150.716 230.898 150.788C230.806 150.86 230.759 150.953 230.759 151.069C230.759 151.178 230.802 151.26 230.889 151.315C230.975 151.371 231.13 151.424 231.355 151.474C231.581 151.525 231.764 151.585 231.904 151.655C232.044 151.725 232.148 151.809 232.214 151.909C232.283 152.006 232.317 152.126 232.317 152.268C232.317 152.504 232.222 152.693 232.034 152.836C231.845 152.978 231.6 153.049 231.299 153.049C231.087 153.049 230.9 153.011 230.737 152.937C230.575 152.862 230.447 152.757 230.354 152.624C230.263 152.489 230.217 152.343 230.217 152.187H230.669C230.677 152.338 230.737 152.459 230.85 152.548C230.964 152.636 231.113 152.68 231.299 152.68C231.47 152.68 231.606 152.646 231.709 152.578C231.813 152.508 231.865 152.415 231.865 152.299ZM234.443 152.299C234.443 152.177 234.397 152.083 234.304 152.016C234.213 151.948 234.053 151.889 233.823 151.84C233.595 151.792 233.414 151.733 233.279 151.665C233.145 151.596 233.046 151.515 232.981 151.42C232.917 151.326 232.886 151.214 232.886 151.083C232.886 150.867 232.977 150.684 233.159 150.534C233.343 150.384 233.577 150.31 233.862 150.31C234.162 150.31 234.404 150.387 234.59 150.542C234.777 150.696 234.871 150.894 234.871 151.135H234.417C234.417 151.011 234.364 150.904 234.258 150.815C234.154 150.725 234.022 150.681 233.862 150.681C233.698 150.681 233.569 150.716 233.477 150.788C233.384 150.86 233.337 150.953 233.337 151.069C233.337 151.178 233.381 151.26 233.467 151.315C233.553 151.371 233.708 151.424 233.933 151.474C234.159 151.525 234.342 151.585 234.482 151.655C234.622 151.725 234.726 151.809 234.792 151.909C234.861 152.006 234.895 152.126 234.895 152.268C234.895 152.504 234.801 152.693 234.612 152.836C234.423 152.978 234.178 153.049 233.877 153.049C233.665 153.049 233.478 153.011 233.315 152.937C233.153 152.862 233.025 152.757 232.932 152.624C232.841 152.489 232.795 152.343 232.795 152.187H233.247C233.255 152.338 233.315 152.459 233.428 152.548C233.542 152.636 233.691 152.68 233.877 152.68C234.048 152.68 234.185 152.646 234.287 152.578C234.391 152.508 234.443 152.415 234.443 152.299ZM237.822 152.377L238.33 150.358H238.782L238.013 153H237.646L237.004 150.998L236.379 153H236.013L235.247 150.358H235.696L236.216 152.336L236.831 150.358H237.195L237.822 152.377ZM239.124 151.655C239.124 151.396 239.174 151.163 239.275 150.957C239.377 150.75 239.519 150.59 239.7 150.478C239.882 150.366 240.09 150.31 240.322 150.31C240.682 150.31 240.972 150.434 241.194 150.683C241.417 150.932 241.528 151.263 241.528 151.677V151.708C241.528 151.966 241.479 152.197 241.379 152.402C241.282 152.605 241.141 152.764 240.957 152.878C240.775 152.992 240.565 153.049 240.327 153.049C239.969 153.049 239.679 152.924 239.456 152.675C239.234 152.426 239.124 152.097 239.124 151.687V151.655ZM239.578 151.708C239.578 152.001 239.645 152.237 239.78 152.414C239.917 152.591 240.099 152.68 240.327 152.68C240.557 152.68 240.739 152.591 240.874 152.412C241.009 152.231 241.077 151.979 241.077 151.655C241.077 151.365 241.007 151.131 240.869 150.952C240.732 150.771 240.55 150.681 240.322 150.681C240.099 150.681 239.919 150.769 239.783 150.947C239.646 151.124 239.578 151.378 239.578 151.708ZM243.372 150.764C243.303 150.752 243.229 150.747 243.149 150.747C242.853 150.747 242.652 150.873 242.546 151.125V153H242.095V150.358H242.534L242.542 150.664C242.69 150.428 242.9 150.31 243.171 150.31C243.259 150.31 243.326 150.321 243.372 150.344V150.764ZM243.63 151.657C243.63 151.252 243.726 150.926 243.918 150.681C244.111 150.433 244.362 150.31 244.673 150.31C244.982 150.31 245.227 150.415 245.408 150.627V149.25H245.859V153H245.444L245.422 152.717C245.242 152.938 244.99 153.049 244.668 153.049C244.362 153.049 244.112 152.924 243.918 152.673C243.726 152.422 243.63 152.095 243.63 151.691V151.657ZM244.082 151.708C244.082 152.008 244.144 152.242 244.268 152.412C244.391 152.581 244.562 152.666 244.78 152.666C245.067 152.666 245.276 152.537 245.408 152.28V151.066C245.273 150.817 245.065 150.693 244.785 150.693C244.564 150.693 244.391 150.778 244.268 150.949C244.144 151.12 244.082 151.373 244.082 151.708Z" fill="#1F4EAD"/>
<path fill-rule="evenodd" clip-rule="evenodd" d="M374.035 170.885C374.035 170.885 366.3 178.628 366.774 179.385C367.249 180.147 371.147 178.376 371.147 178.376C371.147 178.376 366.284 186.51 367.284 187.135C368.284 187.759 373.401 186.494 374.97 184.818C376.539 183.141 378.96 174.681 378.96 174.681L390.724 152.386L382.192 149.399L374.035 170.885Z" fill="url(#paint0_linear_3740:1329)"/>
<path fill-rule="evenodd" clip-rule="evenodd" d="M366.136 129.672C369.384 134.78 380.318 149.335 380.318 149.335L379.522 152.239L389.57 159.21C389.57 159.21 392.424 151.23 392.672 150.107C393.489 146.404 376.981 122.77 373.285 119.355C367.465 113.978 361.172 121.867 366.136 129.672Z" fill="#467FFF"/>
<path fill-rule="evenodd" clip-rule="evenodd" d="M382.931 153.199C383.119 152.829 380.334 149.283 380.334 149.283L379.862 151.008C379.862 151.008 382.744 153.569 382.931 153.199Z" fill="black" fill-opacity="0.159856"/>
<path fill-rule="evenodd" clip-rule="evenodd" d="M379.459 151.265L390.135 159.514L387.756 164.85L378.422 154.343L379.459 151.265Z" fill="#FFEDC2"/>
<path fill-rule="evenodd" clip-rule="evenodd" d="M345.94 164.919L365.658 162.75L365.948 163.022C367.354 164.377 373.461 170.67 375.216 179.272C378.529 195.51 374.095 225.502 374.193 232.079C374.287 238.655 377.358 242.624 378.634 251.922C379.91 261.221 380.031 302.779 380.031 302.779C376.647 304.808 373.67 304.953 369.635 302.657L345.94 164.919Z" fill="#383D44"/>
<path fill-rule="evenodd" clip-rule="evenodd" d="M363.554 267.304L345.94 164.919L356.904 163.713C357.392 199.281 364.21 247.36 363.554 267.304Z" fill="white" fill-opacity="0.192499"/>
<path fill-rule="evenodd" clip-rule="evenodd" d="M336.16 166.327L358.302 165.567L358.467 165.877C359.542 167.939 365.428 180.013 363.611 193.736C361.059 212.999 354.573 235.581 354.255 239.03C353.689 245.181 354.822 249.634 355.286 255.987C355.75 262.339 353.515 302.292 353.515 302.292C350.23 304.292 346.32 304.685 341.349 302.353C341.349 302.353 336.862 248.084 336.829 239.496C336.796 230.907 336.16 166.327 336.16 166.327Z" fill="#42474F"/>
<path fill-rule="evenodd" clip-rule="evenodd" d="M340.716 187.162L340.569 188.589C339.094 203.638 339.105 235.598 339.676 240.527L339.755 241.162C340.388 246.724 340.409 260.844 339.816 283.523L339.045 273.737C337.583 254.906 336.844 243.492 336.829 239.496L336.802 235.36C336.675 218.637 336.16 166.327 336.16 166.327L340.83 166.167C341.329 174.424 341.291 181.423 340.716 187.162Z" fill="#51565E"/>
<path fill-rule="evenodd" clip-rule="evenodd" d="M344.602 94.9965C341.878 95.2981 342.071 100.145 345.388 100.398C346.065 105.07 348.483 107.297 351.43 107.554L351.267 114.621L364.303 114.614C364.303 114.614 360.632 109.621 360.815 102.786C360.998 95.9511 360.692 89.5303 360.692 89.5303L343.807 89.8368L344.602 94.9965Z" fill="url(#paint1_linear_3740:1329)"/>
<path fill-rule="evenodd" clip-rule="evenodd" d="M344.01 95.3599C347.183 94.0901 349.527 99.5573 351.955 103.357C354.383 107.157 360.673 106.511 361.54 103.357C364.822 96.4486 367.651 87.0562 363.821 86.2853C363.281 76.3006 337.456 78.6579 344.01 95.3599Z" fill="#9E5229"/>
<path fill-rule="evenodd" clip-rule="evenodd" d="M361.616 82.2568H356.112H355.999L355.925 82.3411C350.978 87.9284 349.84 96.1278 352.087 103.554C352.332 103.903 352.611 104.211 352.916 104.48C350.269 96.9518 351.242 88.4569 356.225 82.7568H362.188L362.202 82.7603C362.02 82.5827 361.824 82.4149 361.616 82.2568Z" fill="black" fill-opacity="0.199355"/>
<ellipse cx="358.278" cy="82.5071" rx="3.11254" ry="3.14971" fill="#FB9934"/>
<path fill-rule="evenodd" clip-rule="evenodd" d="M341.183 115.989C338.274 120.313 333.427 134.987 333.152 138.288C332.842 142.096 336.876 148.162 336.943 153.675C337.002 159.188 333.934 175.788 334.856 177.339C335.77 178.889 361.992 185.755 363.703 185.718C365.407 185.68 376.163 176.336 374.813 173.107C373.456 169.878 367.158 161.854 367.8 157.454C368.434 153.055 372.117 136.816 373.946 131.29C375.768 125.763 375.16 119.96 371.76 117.582C370.078 116.405 365.589 113.062 357.595 113.078C349.601 113.093 341.408 115.654 341.183 115.989Z" fill="#1F4EAD"/>
<path fill-rule="evenodd" clip-rule="evenodd" d="M350.209 112.762C350.209 112.762 349.873 114.621 351.345 114.621C352.818 114.621 362.697 114.95 364.035 114.362C365.372 113.774 364.971 112.762 364.971 112.762H350.209Z" fill="#FFF6E1"/>
<path fill-rule="evenodd" clip-rule="evenodd" d="M336.961 125.341L337.051 125.295C342.437 122.574 345.672 122.454 346.757 124.935C348.159 128.141 344.523 135.846 335.85 148.05C334.659 144.349 332.946 140.82 333.152 138.289C333.311 136.378 335.001 130.659 336.961 125.341Z" fill="black" fill-opacity="0.159856"/>
<path fill-rule="evenodd" clip-rule="evenodd" d="M301.03 116.328C301.03 116.328 300.06 114.197 298.534 113.62C297.009 113.043 294.677 109.223 295.037 108.114C295.398 107.005 298.553 103.928 298.553 103.928C298.553 103.928 295.764 96.3535 296.999 95.4987C298.091 94.7431 302.221 104.284 302.221 104.284C302.221 104.284 304.649 104.655 305.21 105.63C306.622 108.089 305.554 113.62 305.554 113.62L319.89 134.818L313.312 143.353L301.03 116.328Z" fill="url(#paint2_linear_3740:1329)"/>
<path fill-rule="evenodd" clip-rule="evenodd" d="M337.624 117.971C332.776 122.33 320.917 133.893 320.917 133.893L319.155 131.161L310.287 140.351C310.287 140.351 316.977 150.392 319.155 150.462C324.832 150.645 335.002 139.8 344.563 131.332C353.136 123.74 346.662 109.847 337.624 117.971Z" fill="#467FFF"/>
<path fill-rule="evenodd" clip-rule="evenodd" d="M320.953 133.907C320.953 133.907 317.626 137.801 317.352 137.376C317.077 136.952 319.861 132.219 319.861 132.219L320.953 133.907Z" fill="black" fill-opacity="0.159856"/>
<path fill-rule="evenodd" clip-rule="evenodd" d="M320.217 131.78L309.932 143.353L306.763 136.749L318.26 129.447L320.217 131.78Z" fill="#FFEDC2"/>
<path fill-rule="evenodd" clip-rule="evenodd" d="M357.732 80.0004C357.732 80.0004 360.644 76.1612 364.008 77.1684C367.371 78.1757 370.413 84.3498 368.969 90.1533C367.531 95.9576 368.717 99.2681 370.46 103.18C375.144 113.702 358.928 120.383 358.928 120.383C358.928 120.383 360.193 112.586 357.732 107.878C355.197 103.029 353.758 96.8113 353.758 93.0062C353.758 86.3893 357.732 80.0004 357.732 80.0004Z" fill="#9E5229"/>
<path d="M277.352 194.668H210.254C207.412 194.668 205.108 192.365 205.108 189.522V186.26C205.108 183.418 207.412 181.114 210.254 181.114H277.352C280.194 181.114 282.498 183.418 282.498 186.26V189.522C282.498 192.365 280.194 194.668 277.352 194.668Z" fill="#1F4EAD"/>
<path fill-rule="evenodd" clip-rule="evenodd" d="M234.035 185.167H236.118C237.619 185.167 238.648 186.071 238.648 187.46C238.648 188.848 237.619 189.752 236.118 189.752H234.035V185.167ZM236.067 188.88C236.977 188.88 237.574 188.338 237.574 187.46C237.574 186.582 236.977 186.038 236.067 186.038H235.097V188.88H236.067Z" fill="white"/>
<path fill-rule="evenodd" clip-rule="evenodd" d="M239.114 187.99C239.114 186.928 239.933 186.176 241.053 186.176C242.174 186.176 242.987 186.928 242.987 187.99C242.987 189.052 242.174 189.805 241.053 189.805C239.933 189.805 239.114 189.052 239.114 187.99ZM241.951 187.99C241.951 187.381 241.565 187.014 241.053 187.014C240.542 187.014 240.149 187.381 240.149 187.99C240.149 188.599 240.542 188.967 241.053 188.967C241.565 188.967 241.951 188.599 241.951 187.99Z" fill="white"/>
<path d="M247.273 187.735V189.752H246.25V187.891C246.25 187.321 245.987 187.06 245.536 187.06C245.045 187.06 244.691 187.361 244.691 188.01V189.752H243.669V186.227H244.644V186.641C244.921 186.34 245.333 186.176 245.811 186.176C246.644 186.176 247.273 186.66 247.273 187.735Z" fill="white"/>
<path fill-rule="evenodd" clip-rule="evenodd" d="M251.67 188.279H249.003C249.102 188.718 249.476 188.987 250.012 188.987C250.386 188.987 250.655 188.874 250.896 188.645L251.44 189.234C251.112 189.608 250.621 189.805 249.986 189.805C248.768 189.805 247.975 189.038 247.975 187.99C247.975 186.935 248.78 186.176 249.856 186.176C250.89 186.176 251.689 186.87 251.689 188.004C251.689 188.083 251.676 188.193 251.67 188.279ZM248.99 187.681H250.726C250.655 187.236 250.32 186.948 249.862 186.948C249.397 186.948 249.062 187.23 248.99 187.681Z" fill="white"/>
<path d="M256.738 82.6969C256.738 90.2602 250.606 96.3923 243.041 96.3923C235.476 96.3923 229.346 90.2602 229.346 82.6969C229.346 75.1321 235.476 69 243.041 69C250.606 69 256.738 75.1321 256.738 82.6969Z" fill="#1F4EAD"/>
<path d="M240.628 80.2062H240.4V78.9269C240.4 77.4531 241.599 76.2559 243.073 76.2559C244.545 76.2559 245.744 77.4531 245.744 78.9269V79.9691H245.516V78.9269C245.516 77.5792 244.419 76.4838 243.073 76.4838C241.725 76.4838 240.628 77.5792 240.628 78.9269V80.2062Z" fill="white"/>
<path fill-rule="evenodd" clip-rule="evenodd" d="M246.436 89.1364H239.645C239.024 89.1364 238.518 88.6305 238.518 88.0106V81.2176C238.518 80.5962 239.024 80.0918 239.645 80.0918H246.436C247.058 80.0918 247.564 80.5962 247.564 81.2176V88.0106C247.564 88.6305 247.058 89.1364 246.436 89.1364ZM239.645 80.3197C239.15 80.3197 238.745 80.7223 238.745 81.2176V88.0106C238.745 88.5059 239.15 88.9085 239.645 88.9085H246.436C246.932 88.9085 247.336 88.5059 247.336 88.0106V81.2176C247.336 80.7223 246.932 80.3197 246.436 80.3197H239.645Z" fill="white"/>
<path fill-rule="evenodd" clip-rule="evenodd" d="M243.073 84.8367C242.485 84.8367 242.007 84.3581 242.007 83.7701C242.007 83.1822 242.485 82.7051 243.073 82.7051C243.661 82.7051 244.138 83.1822 244.138 83.7701C244.138 84.3581 243.661 84.8367 243.073 84.8367ZM243.073 82.933C242.61 82.933 242.235 83.3083 242.235 83.7701C242.235 84.2335 242.61 84.6088 243.073 84.6088C243.535 84.6088 243.911 84.2335 243.911 83.7701C243.911 83.3083 243.535 82.933 243.073 82.933Z" fill="white"/>
<path d="M243.154 86.5973H242.926V84.6738H243.154V86.5973Z" fill="white"/>
</g>
</g>
<defs>
<filter id="filter0_d_3740:1329" x="0" y="0" width="524" height="204" filterUnits="userSpaceOnUse" color-interpolation-filters="sRGB">
<feFlood flood-opacity="0" result="BackgroundImageFix"/>
<feColorMatrix in="SourceAlpha" type="matrix" values="0 0 0 0 0 0 0 0 0 0 0 0 0 0 0 0 0 0 127 0" result="hardAlpha"/>
<feOffset/>
<feGaussianBlur stdDeviation="1"/>
<feComposite in2="hardAlpha" operator="out"/>
<feColorMatrix type="matrix" values="0 0 0 0 0 0 0 0 0 0 0 0 0 0 0 0 0 0 0.25 0"/>
<feBlend mode="normal" in2="BackgroundImageFix" result="effect1_dropShadow_3740:1329"/>
<feBlend mode="normal" in="SourceGraphic" in2="effect1_dropShadow_3740:1329" result="shape"/>
</filter>
<linearGradient id="paint0_linear_3740:1329" x1="364.85" y1="139.132" x2="367.58" y2="184.94" gradientUnits="userSpaceOnUse">
<stop stop-color="#FDC6C6"/>
<stop offset="1" stop-color="#FFCCA1"/>
</linearGradient>
<linearGradient id="paint1_linear_3740:1329" x1="338.979" y1="83.4223" x2="341.217" y2="113.297" gradientUnits="userSpaceOnUse">
<stop stop-color="#FDC6C6"/>
<stop offset="1" stop-color="#FFCCA1"/>
</linearGradient>
<linearGradient id="paint2_linear_3740:1329" x1="290.693" y1="83.7965" x2="297.699" y2="140.275" gradientUnits="userSpaceOnUse">
<stop stop-color="#FDC6C6"/>
<stop offset="1" stop-color="#FFCCA1"/>
</linearGradient>
</defs>
</svg>
