<svg width="520" height="200" viewBox="0 0 520 200" fill="none" xmlns="http://www.w3.org/2000/svg">
<rect width="520" height="200" rx="6" fill="#FCFCFC"/>
<mask id="mask0" style="mask-type:alpha" maskUnits="userSpaceOnUse" x="0" y="0" width="520" height="200">
<rect width="520" height="200" rx="6" fill="white"/>
</mask>
<g mask="url(#mask0)">
<path fill-rule="evenodd" clip-rule="evenodd" d="M304.616 157.319L294.752 234.87L299.924 234.802L309.787 158.045L304.616 157.319Z" fill="#D2D2D2"/>
<path fill-rule="evenodd" clip-rule="evenodd" d="M308.808 157.319L318.671 234.87L313.5 234.802L303.637 158.045L308.808 157.319Z" fill="#D2D2D2"/>
<path fill-rule="evenodd" clip-rule="evenodd" d="M338.877 157.319L348.74 234.87L343.569 234.802L333.706 158.045L338.877 157.319Z" fill="#D2D2D2"/>
<path fill-rule="evenodd" clip-rule="evenodd" d="M272.102 169.509C267.627 169.509 264 165.882 264 161.407C264 156.933 267.627 153.305 272.102 153.305H303.302C309.022 153.305 313.803 148.955 314.341 143.261L319.276 91.0447C319.814 85.3505 324.595 81 330.315 81H347.697C354.158 81 359.25 86.5006 358.753 92.9416L353.631 159.275C353.185 165.051 348.368 169.509 342.576 169.509H272.102Z" fill="#D2D2D2"/>
<path fill-rule="evenodd" clip-rule="evenodd" d="M264.002 161.339C264.033 161.339 264.065 161.339 264.097 161.339H334.377C340.169 161.339 344.985 156.882 345.432 151.107L350.549 85.0214C350.648 83.746 350.527 82.5073 350.221 81.3409C349.345 81.1184 348.426 81 347.478 81H330.192C324.473 81 319.693 85.3488 319.153 91.0417L314.223 143.058C313.683 148.751 308.903 153.1 303.184 153.1H272.081C267.618 153.1 264 156.718 264 161.181C264 161.234 264.001 161.286 264.002 161.339Z" fill="#B2B0B0"/>
<path fill-rule="evenodd" clip-rule="evenodd" d="M308.228 133.918C300.805 134.248 259.487 143.356 251.98 144.903C244.473 146.45 238.126 154.823 243.851 164.518C250.28 175.401 266.869 206.309 270.896 213.276C272.89 216.725 282.947 214.791 280.585 209.003C276.181 198.213 274.136 171.107 262.908 161.224C262.908 161.224 300.666 167.773 316.976 160.271C328.83 154.818 326.148 133.119 308.228 133.918Z" fill="#42474F"/>
<path fill-rule="evenodd" clip-rule="evenodd" d="M256.442 86.1151C256.442 86.1151 256.526 80.0953 254.413 76.9493C252.3 73.8033 252.216 70.4616 250.617 70.571C249.018 70.6804 250.601 78.4477 250.601 78.4477C250.601 78.4477 248.572 77.6752 247.115 76.6981C245.657 75.721 241.237 70.9038 240.205 71.7575C238.453 73.2119 241.274 81.4163 242.81 83.0565C244.352 84.6973 252.772 90.0927 252.772 90.0927L273.396 111.11L277.269 100.433L256.442 86.1151Z" fill="#FFE0D1"/>
<path fill-rule="evenodd" clip-rule="evenodd" d="M302.063 84.1291C298.61 92.1114 292.287 106.775 289.68 111.15C286.413 116.629 281.262 119.043 275.23 114.978C273.629 113.899 268.751 109.775 268.751 109.775L274.654 96.8287L278.483 99.9779C278.483 99.9779 284.964 83.4213 290.177 73.8302C294.692 65.5323 307.319 71.9941 302.063 84.1291Z" fill="#FFB66F"/>
<path fill-rule="evenodd" clip-rule="evenodd" d="M278.416 99.987C278.416 99.987 276.675 105.871 276.268 105.53C275.861 105.189 276.579 98.4492 276.579 98.4492L278.416 99.987Z" fill="black" fill-opacity="0.159856"/>
<path fill-rule="evenodd" clip-rule="evenodd" d="M276.121 97.5448L271.185 114.021L265.942 109.919L273.239 95.3135L276.121 97.5448Z" fill="#FFEDC2"/>
<path fill-rule="evenodd" clip-rule="evenodd" d="M308.333 28.4329C308.333 28.4329 310.928 24.1636 315.04 24.4824C319.152 24.8011 324.139 31.053 323.875 37.9822C323.619 44.9105 325.149 45.9998 328.097 50.0057C336.021 60.7832 323.764 73.4092 323.764 73.4092L307.483 73.4205L306.876 43.1978L308.333 28.4329Z" fill="#42474F"/>
<path fill-rule="evenodd" clip-rule="evenodd" d="M314.789 30.9272C325.88 38.4808 319.518 47.2548 318.407 49.3147C316.266 64.3011 320.666 65.0687 327.305 68.4145L324.994 72.5354L315.477 70.7516L307.467 31.6869L314.789 30.9272Z" fill="black" fill-opacity="0.199355"/>
<path fill-rule="evenodd" clip-rule="evenodd" d="M320.016 67.4027C320.016 67.4027 314.361 66.27 314.193 58.3639C314.025 50.4579 314.957 47.7592 314.957 47.7592L304.292 47.5674C304.292 47.5674 304.176 56.3786 304.174 59.5656C304.17 67.3147 298.185 68.2135 298.185 68.2135C298.185 68.2135 299.429 74.3435 309.092 74.885C316.637 75.3084 320.016 67.4027 320.016 67.4027Z" fill="#F9C7B0"/>
<path fill-rule="evenodd" clip-rule="evenodd" d="M314.566 30.6651C314.956 26.1044 307.416 24.9987 306.018 28.5218C306.018 28.5218 305.633 31.6611 308.087 32.885C311.406 34.5338 314.566 30.6651 314.566 30.6651Z" fill="#FB9934"/>
<path fill-rule="evenodd" clip-rule="evenodd" d="M315.568 42.4115C320.183 41.2429 320.867 48.1933 316.031 49.2116C316.031 49.2116 315.273 59.4527 305.525 61.5247C297.609 63.2074 294.705 52.0763 294.156 49.8492C293.571 47.4747 291.891 39.6221 291.891 39.6221L314.156 34.8788L315.568 42.4115Z" fill="#FFE0D1"/>
<path fill-rule="evenodd" clip-rule="evenodd" d="M314.016 47.1171C313.178 47.0697 312.032 42.7313 312.032 42.7313C309.561 42.7662 309.03 42.3214 306.616 39.7728C299.019 43.1545 293.726 44.819 294.262 50.7742C294.262 50.7742 285.436 38.6366 294.893 31.6456C303.213 25.5024 313.765 27.3698 317.014 34.3194C319.312 39.2241 318.741 43.3064 318.741 43.3064C318.741 43.3064 317.128 41.6481 315.249 42.5472C313.371 43.4463 314.854 47.1646 314.016 47.1171Z" fill="#42474F"/>
<path d="M306.028 54.6465C306.028 54.6465 304.122 57.0993 301.043 55.8362" stroke="#F77B7B" stroke-width="1.5" stroke-linecap="round"/>
<path d="M304.977 57.2413C304.325 57.727 303.635 57.8991 302.944 57.6998" stroke="#F49494" stroke-linecap="round"/>
<path d="M315.87 46.1635C315.59 45.0847 315.74 44.149 316.817 43.7383" stroke="#F77B7B" stroke-linecap="round"/>
<path fill-rule="evenodd" clip-rule="evenodd" d="M300.414 67.158C300.284 67.1518 295.724 69.1459 295.199 69.9147C291.778 74.9232 285.496 92.5514 285.173 96.3755C284.808 100.787 291.181 107.814 291.259 114.199C291.328 120.586 288.533 139.815 289.617 141.612C290.693 143.408 297.763 151.941 299.238 151.976C300.721 152.01 301.828 147.53 304.075 147.628C306.313 147.725 310.98 153.665 312.993 153.622C314.997 153.579 335.764 140.451 334.177 136.71C332.581 132.97 325.172 123.674 325.927 118.577C326.673 113.482 332.633 94.6705 334.784 88.2682C336.927 81.8659 338.653 76.7658 334.654 74.0109C330.655 71.256 317.643 66.2168 317.643 66.2168L305.992 72.72C305.992 72.72 301.091 67.1905 300.414 67.158Z" fill="#FF9F43"/>
<path fill-rule="evenodd" clip-rule="evenodd" d="M304.557 72.5391C301.063 84.1343 296.267 95.5595 294.346 106.432L299.933 103.429L305.086 107.325C304.722 96.0209 306.624 84.1518 307.498 72.5391H304.557Z" fill="#FFF6E1"/>
<path fill-rule="evenodd" clip-rule="evenodd" d="M324.966 81.4425L325.098 82.3802C326.664 94.0243 324.811 108.154 321.601 110.31C318.324 112.51 305.569 110.351 305.569 112.093C305.569 113.836 323.196 129.807 320.302 137.442C318.711 141.64 319.244 145.373 321.9 148.642L322.672 148.124C328.692 144.05 335.084 138.847 334.177 136.71C332.58 132.97 325.172 123.674 325.927 118.577C326.643 113.685 332.164 96.1535 334.508 89.0944L335.255 86.8563C336.122 84.2321 336.845 81.8549 337.019 79.8039L336.481 79.4554C327.871 73.9483 324.033 74.6108 324.966 81.4425Z" fill="black" fill-opacity="0.159856"/>
<path fill-rule="evenodd" clip-rule="evenodd" d="M319.793 67.0379L317.643 66.2168L305.737 72.3835C305.737 72.3835 307.975 78.0682 311.94 75.2374C315.338 72.8167 313.904 70.6865 316.568 69.5877C319.223 68.4888 319.793 67.0379 319.793 67.0379Z" fill="#FFF6E1"/>
<path fill-rule="evenodd" clip-rule="evenodd" d="M305.737 72.3839C304.874 74.2967 303.119 75.4145 302.212 75.067C300.715 74.4931 301.357 72.2064 300.767 71.0512C300.345 70.2317 300.072 70.108 299.702 69.3385C299.358 68.6326 299.344 67.7855 299.432 67.5517L300.604 67.0205C300.604 67.0205 302.213 68.5352 302.962 69.3385C303.895 70.3395 305.737 72.3839 305.737 72.3839Z" fill="#FFF6E1"/>
<path fill-rule="evenodd" clip-rule="evenodd" d="M318.844 103.095C318.844 103.095 311.835 96.9125 309.689 96.195C307.543 95.4775 294.976 94.6156 295.055 96.2369C295.146 97.9738 301.895 97.8739 302.595 98.7285C303.294 99.5825 303.453 105.423 306.097 106.079C308.735 106.734 316.646 107.865 316.646 107.865L335.567 119.237L336.375 108.846L318.844 103.095Z" fill="#FFE0D1"/>
<path fill-rule="evenodd" clip-rule="evenodd" d="M337.492 76.9174C344.877 87.3045 351.182 103.127 353.603 109.295C356.023 115.464 353.581 124.768 342.939 122.941C341.142 122.633 337.111 121.396 337.111 121.396L334.568 107.109L337.848 108.482C337.848 108.482 327.271 89.7975 324.688 84.7887C320.374 76.4236 330.988 67.7654 337.492 76.9174Z" fill="#FFB66F"/>
<path fill-rule="evenodd" clip-rule="evenodd" d="M337.848 108.482C337.848 108.482 343.221 111.097 342.545 109.947C341.87 108.797 335.822 104.849 335.822 104.849L337.848 108.482Z" fill="black" fill-opacity="0.159856"/>
<path fill-rule="evenodd" clip-rule="evenodd" d="M337.336 107.822L339.093 123.27L332.145 121.069L333.194 105.93L337.336 107.822Z" fill="#FFEDC2"/>
<path fill-rule="evenodd" clip-rule="evenodd" d="M330.676 130.792C330.676 130.792 344.723 151.886 327.928 161.307C313.586 169.353 269.349 159.929 269.349 159.929C269.349 159.929 270.134 166.225 269.349 171.84C267.3 186.505 257.554 210.938 255.492 214.008C252.64 218.254 243.954 215.052 243.79 211.517C243.626 207.982 250.338 162.833 251.359 154.223C252.374 145.613 255.58 144.362 264.944 142.009C267.095 141.468 292.533 135.168 294.863 135.351C314.887 136.929 330.676 130.792 330.676 130.792Z" fill="#42474F"/>
<path opacity="0.439941" fill-rule="evenodd" clip-rule="evenodd" d="M320.472 158.963C305.95 160.585 267.504 157.242 265.96 158.761C264.486 160.211 264.732 185.441 261.425 200.043C264.682 191.195 268.209 180.004 269.35 171.84C270.134 166.225 269.35 159.929 269.35 159.929L270.852 160.228C278.69 161.745 315.026 168.259 327.928 161.307C335.496 157.23 338.424 150.916 336.712 142.367C334.648 152.452 329.235 157.984 320.472 158.963Z" fill="white" fill-opacity="0.192499"/>
<ellipse rx="2.44034" ry="4.46024" transform="matrix(-0.97437 0.224951 0.224951 0.97437 245.166 155.378)" fill="white" fill-opacity="0.192499"/>
<ellipse rx="3.2535" ry="4.86614" transform="matrix(-0.961262 -0.275637 -0.275637 0.961262 256.556 152.541)" fill="white" fill-opacity="0.192499"/>
<path d="M219.424 74.2484C218.593 72.7072 219.59 70.8154 221.331 70.6291L243.266 68.2808C244.243 68.1762 245.189 68.6618 245.673 69.5167L259.957 94.7441C260.798 96.2286 259.912 98.0975 258.231 98.3865L236.372 102.145C235.329 102.324 234.288 101.817 233.786 100.886L219.424 74.2484Z" fill="#7596FF"/>
<path fill-rule="evenodd" clip-rule="evenodd" d="M220.419 74.1095C219.624 72.615 220.538 70.7827 222.21 70.5189L243.598 67.1439C244.636 66.9801 245.664 67.4929 246.157 68.421L259.882 94.2336C260.677 95.7281 259.763 97.5604 258.091 97.8242L236.703 101.199C235.665 101.363 234.637 100.85 234.143 99.9221L220.419 74.1095Z" fill="url(#paint0_linear)"/>
<path d="M220.957 72.4287L244.737 68.3819L259.351 95.8656L235.684 99.4631L220.957 72.4287Z" fill="white"/>
<path d="M227.09 69.1449C226.8 68.6523 227.105 68.0234 227.672 67.9464L236.51 66.7448C237.148 66.6579 237.777 66.9629 238.104 67.5185L239.54 69.9583C239.83 70.4509 239.525 71.0799 238.959 71.1569L230.121 72.3585C229.482 72.4453 228.853 72.1403 228.526 71.5848L227.09 69.1449Z" fill="#7367F0"/>
<path fill-rule="evenodd" clip-rule="evenodd" d="M239.513 76.4097C239.83 76.2413 240.223 76.3611 240.391 76.6774C240.547 76.971 240.454 77.3307 240.187 77.5154L240.122 77.5548L229.538 79.3354C229.222 79.5038 228.829 79.3839 228.66 79.0677C228.504 78.7741 228.597 78.4143 228.865 78.2296L228.929 78.1902L239.513 76.4097Z" fill="#A7C3FF"/>
<path fill-rule="evenodd" clip-rule="evenodd" d="M242.557 82.1362C242.874 81.9678 243.267 82.0877 243.435 82.4039C243.591 82.6976 243.499 83.0573 243.231 83.242L243.166 83.2814L232.583 85.0619C232.266 85.2303 231.873 85.1105 231.705 84.7943C231.549 84.5006 231.641 84.1409 231.909 83.9562L231.974 83.9168L242.557 82.1362Z" fill="#A7C3FF"/>
<path fill-rule="evenodd" clip-rule="evenodd" d="M245.602 87.8618C245.919 87.6934 246.312 87.8133 246.48 88.1295C246.636 88.4231 246.543 88.7829 246.276 88.9676L246.211 89.007L235.627 90.7875C235.31 90.9559 234.917 90.8361 234.749 90.5198C234.593 90.2262 234.686 89.8665 234.953 89.6818L235.018 89.6424L245.602 87.8618Z" fill="#A7C3FF"/>
<path fill-rule="evenodd" clip-rule="evenodd" d="M218.587 132.062H234.93V235.459H218.587V132.062Z" fill="#D2D2D2"/>
<path fill-rule="evenodd" clip-rule="evenodd" d="M218.587 128H228.393V235.458H218.587V128Z" fill="#EBEBEB"/>
<path fill-rule="evenodd" clip-rule="evenodd" d="M144.234 132.062H225.131V163.074H160.577V235.459H144.234V132.062Z" fill="#D2D2D2"/>
<path fill-rule="evenodd" clip-rule="evenodd" d="M144.234 132.062H154.04V235.459H144.234V132.062Z" fill="#EBEBEB"/>
<path fill-rule="evenodd" clip-rule="evenodd" d="M346.539 132.062H362.882V235.459H346.539V132.062Z" fill="#C5C5C5"/>
<path fill-rule="evenodd" clip-rule="evenodd" d="M272.186 132.062H353.083V170.451H288.528V235.459H272.186V132.062Z" fill="#D2D2D2"/>
<path fill-rule="evenodd" clip-rule="evenodd" d="M157.302 128L281.896 128V170.375H157.302V128Z" fill="#EBEBEB"/>
<path fill-rule="evenodd" clip-rule="evenodd" d="M269.734 132.062H279.54V170.375H269.734V132.062Z" fill="#C3C3C3"/>
<path fill-rule="evenodd" clip-rule="evenodd" d="M272.186 132.062H281.991V235.459H272.186V132.062Z" fill="#EBEBEB"/>
<path fill-rule="evenodd" clip-rule="evenodd" d="M275.493 134.093C275.493 130.728 278.221 128 281.586 128L365.784 128C369.149 128 371.877 130.728 371.877 134.093C371.877 137.458 369.149 140.186 365.784 140.186H281.586C278.221 140.186 275.493 137.458 275.493 134.093Z" fill="#C5C5C5"/>
<path fill-rule="evenodd" clip-rule="evenodd" d="M147.591 130.438H272.186V142.624H147.591V130.438Z" fill="#D2D2D2"/>
<path fill-rule="evenodd" clip-rule="evenodd" d="M135.497 134.093C135.497 130.728 138.225 128 141.59 128H284.07C287.435 128 290.163 130.728 290.163 134.093C290.163 137.458 287.435 140.186 284.07 140.186H141.59C138.225 140.186 135.497 137.458 135.497 134.093Z" fill="#EBEBEB"/>
<path fill-rule="evenodd" clip-rule="evenodd" d="M302.545 116.55H306.587C307.367 116.55 308 117.186 308 117.972V119.919C308 121.78 306.5 123.289 304.65 123.289H302.545C302.21 123.289 301.939 123.016 301.939 122.679C301.939 122.343 302.21 122.07 302.545 122.07H304.65C305.831 122.07 306.788 121.107 306.788 119.919V117.972C306.788 117.859 306.698 117.769 306.587 117.769H302.545C302.21 117.769 301.939 117.496 301.939 117.159C301.939 116.823 302.21 116.55 302.545 116.55Z" fill="#8C81FF"/>
<path fill-rule="evenodd" clip-rule="evenodd" d="M289.122 115C288.23 115 287.507 115.728 287.507 116.625V120.688C287.507 123.612 289.702 126.022 292.525 126.339L292.526 127.188H299.597L299.597 126.321C302.349 125.938 304.469 123.562 304.469 120.688V116.625C304.469 115.728 303.745 115 302.853 115H289.122Z" fill="#7367F0"/>
<path fill-rule="evenodd" clip-rule="evenodd" d="M304.769 126.795C304.769 126.563 304.581 126.375 304.35 126.375H288.228C287.996 126.375 287.808 126.563 287.808 126.795C287.808 127.016 287.979 127.199 288.2 127.214L294.144 127.611H298.385L304.377 127.214C304.598 127.199 304.769 127.016 304.769 126.795Z" fill="#8C81FF"/>
<path fill-rule="evenodd" clip-rule="evenodd" d="M194.23 126.551C194.23 125.939 194.726 125.443 195.338 125.443H273.851C274.463 125.443 274.959 125.939 274.959 126.551C274.959 127.163 274.463 127.658 273.851 127.658H195.338C194.726 127.658 194.23 127.163 194.23 126.551Z" fill="#8C81FF"/>
<path fill-rule="evenodd" clip-rule="evenodd" d="M247.409 126.551C247.409 125.939 247.905 125.443 248.517 125.443H273.851C274.463 125.443 274.959 125.939 274.959 126.551C274.959 127.163 274.463 127.658 273.851 127.658H248.517C247.905 127.658 247.409 127.163 247.409 126.551Z" fill="#7367F0"/>
<path fill-rule="evenodd" clip-rule="evenodd" d="M190.527 96.0632C190.248 93.9091 191.925 92 194.097 92H241.66C243.469 92 244.997 93.3427 245.23 95.1368L248.647 121.475C248.926 123.629 247.249 125.539 245.076 125.539H197.514C195.705 125.539 194.177 124.196 193.944 122.402L190.527 96.0632Z" fill="#7367F0"/>
<path fill-rule="evenodd" clip-rule="evenodd" d="M190.527 96.0632C190.248 93.9091 191.925 92 194.097 92H239.919C241.728 92 243.256 93.3427 243.489 95.1368L246.906 121.475C247.186 123.629 245.508 125.539 243.336 125.539H197.514C195.705 125.539 194.177 124.196 193.944 122.402L190.527 96.0632Z" fill="url(#paint1_linear)"/>
<ellipse cx="217.823" cy="109.303" rx="3.44749" ry="3.74863" transform="rotate(-37 217.823 109.303)" fill="white"/>
<path fill-rule="evenodd" clip-rule="evenodd" d="M359.478 196.571C366.242 181.267 372.388 165.55 378.013 149.485C365.055 161.7 354.978 176.581 356.413 196.571H359.478Z" fill="#57E295"/>
<path fill-rule="evenodd" clip-rule="evenodd" d="M355.873 198.169C354.272 172.074 354.95 147.839 368.369 134C366.518 162.651 363.055 182.834 358.67 198.169H355.873Z" fill="#28C76F"/>
<path fill-rule="evenodd" clip-rule="evenodd" d="M355.257 195.451C347.76 177.216 340.227 171.989 334 153.271C354.38 163.839 355.657 172.566 359.657 195.451H355.257Z" fill="#57E295"/>
<path fill-rule="evenodd" clip-rule="evenodd" d="M351.222 195.451L337.773 177.216C344.269 179.067 355.125 182.066 355.125 195.451H351.222Z" fill="#28C76F"/>
<path fill-rule="evenodd" clip-rule="evenodd" d="M363.801 195.452H368.287C371.138 189.498 375.156 185.399 384.876 190.368C378.505 180.662 365.432 177.724 363.801 195.452Z" fill="#57E295"/>
<path fill-rule="evenodd" clip-rule="evenodd" d="M359.674 195.452H363.405C370.252 185.659 373.196 181.391 380.282 173.028C370.947 176.571 361.366 181.391 359.674 195.452Z" fill="#28C76F"/>
<path fill-rule="evenodd" clip-rule="evenodd" d="M350.295 194.038H369.142C369.86 194.038 370.442 194.617 370.442 195.331V198.887C375.208 204.868 377.591 210.849 377.591 216.83C377.591 222.627 375.556 228.423 371.486 234.22C371.243 234.566 370.845 234.773 370.421 234.773H349.017C348.592 234.773 348.194 234.566 347.951 234.22C343.881 228.423 341.846 222.627 341.846 216.83C341.846 210.962 344.14 205.094 348.728 199.226L348.995 198.887V195.331C348.995 194.617 349.577 194.038 350.295 194.038Z" fill="#7367F0"/>
<mask id="mask1" style="mask-type:alpha" maskUnits="userSpaceOnUse" x="341" y="194" width="37" height="41">
<path fill-rule="evenodd" clip-rule="evenodd" d="M350.295 194.038H369.142C369.86 194.038 370.442 194.617 370.442 195.331V198.887C375.208 204.868 377.591 210.849 377.591 216.83C377.591 222.627 375.556 228.423 371.486 234.22C371.243 234.566 370.845 234.773 370.421 234.773H349.017C348.592 234.773 348.194 234.566 347.951 234.22C343.881 228.423 341.846 222.627 341.846 216.83C341.846 210.962 344.14 205.094 348.728 199.226L348.995 198.887V195.331C348.995 194.617 349.577 194.038 350.295 194.038Z" fill="white"/>
</mask>
<g mask="url(#mask1)">
<path fill-rule="evenodd" clip-rule="evenodd" d="M337.297 192.918H354.194C346.105 211.653 362.062 222.747 354.194 241.411H337.297V192.918Z" fill="#857AF9"/>
</g>
</g>
<defs>
<linearGradient id="paint0_linear" x1="206.255" y1="51.7369" x2="237.313" y2="110.148" gradientUnits="userSpaceOnUse">
<stop stop-color="#7367F0"/>
<stop offset="1" stop-color="#8CA5FF"/>
</linearGradient>
<linearGradient id="paint1_linear" x1="185.472" y1="74.1887" x2="185.472" y2="125.539" gradientUnits="userSpaceOnUse">
<stop stop-color="#7367F0"/>
<stop offset="1" stop-color="#8CA5FF"/>
</linearGradient>
</defs>
</svg>
