<svg width="524" height="204" viewBox="0 0 524 204" fill="none" xmlns="http://www.w3.org/2000/svg">
<g filter="url(#filter0_d_3739:1328)">
<rect x="2" y="2" width="520" height="200" rx="6" fill="#FCFCFC"/>
</g>
<path d="M242.36 105.614H192.124V22.457H242.36V105.614Z" fill="#E0E0E0"/>
<path d="M240.69 105.614H190.452V22.457H240.69V105.614Z" fill="#EBEBEB"/>
<path d="M238.55 103.927H192.592V24.1436H238.55V103.927Z" fill="#FAFAFA"/>
<path d="M229.602 93.5599H201.342V34.5107H229.602V93.5599Z" fill="#EBEBEB"/>
<path d="M201.341 72.6641C201.276 67.1474 206.236 61.7626 211.698 60.9921C214.303 60.6255 217.07 61.1418 219.504 60.1448C223.848 58.3636 225.231 52.5915 229.602 50.8789L229.801 93.5594H201.341V72.6641Z" fill="#E0E0E0"/>
<path d="M352.838 66.1231L348.715 66.145L348.605 45.6288L352.728 45.6055L352.838 66.1231Z" fill="#E0E0E0"/>
<path d="M323.623 56.9864L312.945 57.0441L312.884 45.7169L323.561 45.6592L323.623 56.9864Z" fill="#EBEBEB"/>
<path d="M334.25 56.9298L323.572 56.9861L323.512 45.6602L334.188 45.6025L334.25 56.9298Z" fill="#F5F5F5"/>
<path d="M312.901 48.8451C319.997 48.9042 327.11 48.8616 334.206 48.7462C334.351 48.7449 334.35 48.521 334.204 48.5196C327.108 48.4812 319.995 48.5155 312.9 48.6501C312.775 48.6529 312.775 48.8438 312.901 48.8451Z" fill="#E0E0E0"/>
<path d="M325.676 66.0274L306.276 66.1304L306.227 56.9003L325.626 56.7959L325.676 66.0274Z" fill="#EBEBEB"/>
<path d="M344.984 65.9235L325.584 66.0279L325.535 56.7977L344.934 56.6934L344.984 65.9235Z" fill="#F5F5F5"/>
<path d="M306.241 59.4679C319.128 59.6149 332.061 59.483 344.948 59.277C345.094 59.2743 345.092 59.0504 344.947 59.0504C332.058 58.9818 319.125 58.99 306.239 59.2743C306.114 59.277 306.116 59.4665 306.241 59.4679Z" fill="#E0E0E0"/>
<path d="M374.145 69.4388H298.985V66.1318H374.145V69.4388Z" fill="#E0E0E0"/>
<path d="M314.342 79.005H311.29V67.7217H314.342V79.005Z" fill="#E0E0E0"/>
<path d="M359.888 79.005H356.837V67.7217H359.888V79.005Z" fill="#E0E0E0"/>
<path d="M356.903 66.1726L352.779 66.1945L352.628 37.978L356.752 37.9561L356.903 66.1726Z" fill="#EBEBEB"/>
<path d="M363.316 66.0754L356.91 66.1097L356.788 43.2423L363.194 43.208L363.316 66.0754Z" fill="#F5F5F5"/>
<path d="M363.15 47.6142C363.15 47.676 361.716 47.7254 359.948 47.7254C358.179 47.7254 356.744 47.676 356.744 47.6142C356.744 47.5537 358.179 47.5029 359.948 47.5029C361.716 47.5029 363.15 47.5537 363.15 47.6142Z" fill="#E0E0E0"/>
<path d="M363.15 46.6532C363.15 46.7137 361.716 46.7645 359.948 46.7645C358.179 46.7645 356.744 46.7137 356.744 46.6532C356.744 46.5914 358.179 46.542 359.948 46.542C361.716 46.542 363.15 46.5914 363.15 46.6532Z" fill="#E0E0E0"/>
<path d="M363.15 62.6347C363.15 62.6965 361.716 62.7459 359.948 62.7459C358.179 62.7459 356.744 62.6965 356.744 62.6347C356.744 62.5729 358.179 62.5234 359.948 62.5234C361.716 62.5234 363.15 62.5729 363.15 62.6347Z" fill="#E0E0E0"/>
<path d="M363.15 61.6747C363.15 61.7351 361.716 61.7846 359.948 61.7846C358.179 61.7846 356.744 61.7351 356.744 61.6747C356.744 61.6129 358.179 61.5635 359.948 61.5635C361.716 61.5635 363.15 61.6129 363.15 61.6747Z" fill="#E0E0E0"/>
<path d="M360.051 59.5785C359.989 59.5785 359.939 57.2713 359.939 54.4272C359.939 51.5802 359.989 49.2744 360.051 49.2744C360.112 49.2744 360.162 51.5802 360.162 54.4272C360.162 57.2713 360.112 59.5785 360.051 59.5785Z" fill="#E0E0E0"/>
<path d="M370.194 66.0833H363.22V48.8232H370.194V66.0833Z" fill="#EBEBEB"/>
<path d="M355.814 42.774C355.814 43.4278 355.284 43.9579 354.629 43.9579C353.975 43.9579 353.443 43.4278 353.443 42.774C353.443 42.119 353.975 41.5889 354.629 41.5889C355.284 41.5889 355.814 42.119 355.814 42.774Z" fill="#E0E0E0"/>
<path d="M354.995 62.8195H354.263V46.0332H354.995V62.8195Z" fill="#E0E0E0"/>
<path d="M249.6 176.99C247.083 178.908 247.029 181.136 249.442 183.67C249.504 183.735 249.592 183.771 249.681 183.771L282.684 183.579C284.564 181.471 284.723 179.203 283.165 176.775L249.6 176.99Z" fill="#EBEBEB"/>
<path d="M275.39 179.994C275.39 180.031 271.281 180.061 266.212 180.061C261.143 180.061 257.034 180.031 257.034 179.994C257.034 179.958 261.143 179.928 266.212 179.928C271.281 179.928 275.39 179.958 275.39 179.994Z" fill="#E0E0E0"/>
<path d="M270.257 181.188C270.257 181.225 268.326 181.254 265.943 181.254C263.559 181.254 261.627 181.225 261.627 181.188C261.627 181.151 263.559 181.121 265.943 181.121C268.326 181.121 270.257 181.151 270.257 181.188Z" fill="#E0E0E0"/>
<path d="M278.764 183.473C278.744 183.468 278.837 183.094 278.94 182.483C279.043 181.872 279.138 181.019 279.131 180.074C279.12 179.13 279.009 178.279 278.895 177.671C278.781 177.061 278.679 176.691 278.701 176.684C278.709 176.681 278.744 176.772 278.797 176.938C278.852 177.104 278.918 177.347 278.987 177.652C279.126 178.26 279.253 179.119 279.264 180.074C279.271 181.029 279.16 181.89 279.032 182.5C278.969 182.806 278.909 183.05 278.856 183.218C278.806 183.384 278.774 183.476 278.764 183.473Z" fill="#E0E0E0"/>
<path d="M281.228 176.735C281.237 176.73 281.289 176.816 281.375 176.973C281.421 177.053 281.471 177.151 281.522 177.27C281.573 177.387 281.639 177.52 281.69 177.674C281.808 177.976 281.916 178.348 282.004 178.768C282.085 179.19 282.142 179.661 282.148 180.157C282.15 180.654 282.1 181.125 282.026 181.548C281.945 181.97 281.844 182.345 281.731 182.648C281.681 182.803 281.618 182.936 281.569 183.055C281.519 183.174 281.47 183.273 281.426 183.353C281.342 183.513 281.291 183.598 281.283 183.594C281.261 183.583 281.445 183.228 281.642 182.618C281.742 182.314 281.833 181.944 281.905 181.527C281.973 181.11 282.017 180.646 282.015 180.158C282.008 179.671 281.956 179.208 281.883 178.792C281.804 178.377 281.706 178.008 281.602 177.705C281.396 177.098 281.205 176.746 281.228 176.735Z" fill="#E0E0E0"/>
<path d="M254.808 183.517C254.8 183.521 254.746 183.443 254.654 183.296C254.607 183.223 254.552 183.132 254.5 183.021C254.447 182.91 254.378 182.787 254.323 182.64C254.201 182.356 254.09 182.002 254.002 181.6C253.922 181.197 253.87 180.745 253.874 180.27C253.884 179.795 253.947 179.346 254.037 178.945C254.136 178.545 254.256 178.194 254.388 177.912C254.445 177.768 254.517 177.647 254.573 177.539C254.629 177.429 254.686 177.338 254.735 177.267C254.831 177.122 254.888 177.046 254.894 177.051C254.918 177.065 254.705 177.383 254.474 177.949C254.356 178.231 254.248 178.58 254.157 178.972C254.075 179.366 254.017 179.807 254.007 180.273C254.004 180.737 254.051 181.179 254.123 181.576C254.202 181.97 254.301 182.322 254.411 182.606C254.627 183.179 254.831 183.503 254.808 183.517Z" fill="#E0E0E0"/>
<path d="M251.244 184.322C251.237 184.327 251.177 184.238 251.075 184.072C251.023 183.989 250.963 183.886 250.902 183.761C250.842 183.638 250.765 183.499 250.703 183.336C250.563 183.017 250.432 182.62 250.325 182.171C250.225 181.72 250.154 181.215 250.139 180.682C250.13 180.148 250.18 179.641 250.259 179.185C250.346 178.732 250.459 178.331 250.585 178.006C250.64 177.839 250.71 177.698 250.765 177.572C250.82 177.444 250.875 177.338 250.924 177.254C251.018 177.084 251.074 176.992 251.082 176.996C251.105 177.009 250.895 177.385 250.674 178.037C250.56 178.361 250.46 178.76 250.38 179.207C250.309 179.656 250.264 180.155 250.272 180.68C250.287 181.203 250.354 181.7 250.445 182.145C250.544 182.587 250.663 182.981 250.79 183.301C251.04 183.943 251.267 184.308 251.244 184.322Z" fill="#E0E0E0"/>
<path d="M281.474 193.631C281.474 193.797 281.474 195.902 281.474 199.945H269.252V193.631H281.474Z" fill="#EBEBEB"/>
<path d="M242.006 196.847C242.007 196.902 242.01 196.958 242.013 197.013C242.111 198.925 243.735 200.402 245.648 200.402H282.044V199.945H273.404C271.66 199.945 270.246 198.532 270.246 196.788C270.246 195.044 271.66 193.631 273.404 193.631H282.044V192.959L245.637 193.083C243.582 193.089 241.93 194.792 242.006 196.847Z" fill="#E0E0E0"/>
<path d="M281.474 196.872C281.474 196.909 278.961 196.939 275.863 196.939C272.763 196.939 270.25 196.909 270.25 196.872C270.25 196.836 272.763 196.806 275.863 196.806C278.961 196.806 281.474 196.836 281.474 196.872Z" fill="#E0E0E0"/>
<path d="M281.297 198.296C281.297 198.332 278.919 198.362 275.987 198.362C273.054 198.362 270.677 198.332 270.677 198.296C270.677 198.259 273.054 198.229 275.987 198.229C278.919 198.229 281.297 198.259 281.297 198.296Z" fill="#E0E0E0"/>
<path d="M281.474 199.596C281.474 199.633 279.336 199.663 276.7 199.663C274.062 199.663 271.925 199.633 271.925 199.596C271.925 199.559 274.062 199.53 276.7 199.53C279.336 199.53 281.474 199.559 281.474 199.596Z" fill="#E0E0E0"/>
<path d="M281.474 195.593C281.474 195.63 279.013 195.661 275.978 195.661C272.941 195.661 270.48 195.63 270.48 195.593C270.48 195.558 272.941 195.527 275.978 195.527C279.013 195.527 281.474 195.558 281.474 195.593Z" fill="#E0E0E0"/>
<path d="M281.297 194.315C281.297 194.352 279.106 194.382 276.405 194.382C273.702 194.382 271.512 194.352 271.512 194.315C271.512 194.278 273.702 194.249 276.405 194.249C279.106 194.249 281.297 194.278 281.297 194.315Z" fill="#E0E0E0"/>
<path d="M246.416 193.188C246.435 193.209 246.06 193.493 245.642 194.107C245.225 194.711 244.799 195.69 244.811 196.823C244.827 197.956 245.274 198.926 245.705 199.519C246.138 200.123 246.52 200.399 246.501 200.42C246.495 200.425 246.399 200.362 246.238 200.226C246.076 200.09 245.859 199.875 245.63 199.575C245.171 198.983 244.693 197.993 244.678 196.825C244.666 195.657 245.119 194.655 245.564 194.053C245.787 193.748 245.999 193.526 246.157 193.387C246.314 193.248 246.41 193.181 246.416 193.188Z" fill="#F5F5F5"/>
<path d="M245.185 193.052C245.204 193.073 244.829 193.358 244.412 193.972C243.994 194.576 243.569 195.556 243.581 196.689C243.596 197.822 244.044 198.791 244.475 199.385C244.908 199.989 245.289 200.265 245.27 200.285C245.265 200.291 245.167 200.228 245.006 200.092C244.846 199.956 244.629 199.74 244.399 199.439C243.939 198.849 243.463 197.857 243.448 196.69C243.435 195.521 243.889 194.52 244.334 193.919C244.556 193.612 244.769 193.391 244.927 193.253C245.083 193.112 245.18 193.047 245.185 193.052Z" fill="#F5F5F5"/>
<path d="M269.915 193.188C269.935 193.209 269.559 193.493 269.141 194.107C268.724 194.711 268.298 195.69 268.31 196.823C268.326 197.956 268.775 198.926 269.205 199.519C269.637 200.123 270.019 200.399 270 200.42C269.996 200.425 269.898 200.362 269.737 200.226C269.577 200.09 269.358 199.875 269.129 199.575C268.67 198.983 268.192 197.993 268.177 196.825C268.165 195.657 268.618 194.655 269.063 194.053C269.286 193.748 269.498 193.526 269.656 193.387C269.814 193.248 269.909 193.181 269.915 193.188Z" fill="#F5F5F5"/>
<path d="M268.684 193.052C268.703 193.073 268.328 193.358 267.911 193.972C267.493 194.576 267.068 195.556 267.08 196.689C267.095 197.822 267.543 198.791 267.974 199.385C268.407 199.989 268.788 200.265 268.769 200.285C268.765 200.291 268.668 200.228 268.507 200.092C268.345 199.956 268.128 199.74 267.899 199.439C267.44 198.849 266.962 197.857 266.947 196.69C266.934 195.521 267.388 194.52 267.833 193.919C268.055 193.612 268.268 193.391 268.426 193.253C268.582 193.112 268.679 193.047 268.684 193.052Z" fill="#F5F5F5"/>
<path d="M250.557 197.734C250.545 196.879 250.534 196.022 250.522 195.166C250.519 194.942 250.515 194.713 250.432 194.504C250.349 194.297 250.167 194.113 249.945 194.094C249.624 193.951 249.121 194.219 248.897 194.59C248.672 194.96 248.647 195.415 248.644 195.849C248.64 196.526 248.673 197.203 248.743 197.877C248.776 198.197 248.822 198.526 248.982 198.806C249.142 199.084 249.445 199.306 249.765 199.277C250.084 199.248 250.339 198.98 250.452 198.681C250.564 198.381 250.562 198.054 250.557 197.734Z" fill="#F5F5F5"/>
<path d="M264.692 196.995C264.692 197.032 262.06 197.062 258.817 197.062C255.57 197.062 252.939 197.032 252.939 196.995C252.939 196.958 255.57 196.929 258.817 196.929C262.06 196.929 264.692 196.958 264.692 196.995Z" fill="#F5F5F5"/>
<path d="M248.119 192.936L248.051 186.949H251.31L251.423 192.936H248.119Z" fill="#F5F5F5"/>
<path d="M251.118 188.014C251.118 188.051 250.439 188.081 249.603 188.081C248.767 188.081 248.09 188.051 248.09 188.014C248.09 187.977 248.767 187.948 249.603 187.948C250.439 187.948 251.118 187.977 251.118 188.014Z" fill="#E0E0E0"/>
<path d="M251.118 188.938C251.118 188.975 250.439 189.005 249.603 189.005C248.767 189.005 248.09 188.975 248.09 188.938C248.09 188.901 248.767 188.872 249.603 188.872C250.439 188.872 251.118 188.901 251.118 188.938Z" fill="#E0E0E0"/>
<path d="M251.118 189.862C251.118 189.899 250.439 189.928 249.603 189.928C248.767 189.928 248.09 189.899 248.09 189.862C248.09 189.825 248.767 189.795 249.603 189.795C250.439 189.795 251.118 189.825 251.118 189.862Z" fill="#E0E0E0"/>
<path d="M251.118 190.786C251.118 190.822 250.439 190.852 249.603 190.852C248.767 190.852 248.09 190.822 248.09 190.786C248.09 190.749 248.767 190.719 249.603 190.719C250.439 190.719 251.118 190.749 251.118 190.786Z" fill="#E0E0E0"/>
<path d="M251.118 191.709C251.118 191.747 250.439 191.777 249.603 191.777C248.767 191.777 248.09 191.747 248.09 191.709C248.09 191.674 248.767 191.644 249.603 191.644C250.439 191.644 251.118 191.674 251.118 191.709Z" fill="#E0E0E0"/>
<path d="M247.878 186.79H283.995C284.44 188.773 284.379 190.954 283.995 193.261H248.033V192.82H250.231C250.803 192.82 251.268 192.356 251.268 191.783V188.202C251.268 187.629 250.803 187.165 250.231 187.165H247.878V186.79Z" fill="#EBEBEB"/>
<path d="M256.418 190.029H257.019C257.042 190.029 257.064 190.035 257.085 190.046C257.128 190.07 257.149 190.108 257.149 190.158C257.149 190.173 257.148 190.187 257.144 190.198C257.133 190.249 257.119 190.3 257.104 190.352C257.019 190.627 256.894 190.855 256.727 191.033C256.56 191.21 256.389 191.3 256.213 191.3C256.19 191.3 256.165 191.298 256.14 191.294C255.975 191.269 255.839 191.171 255.729 190.997C255.61 190.805 255.55 190.562 255.55 190.272C255.55 190.102 255.574 189.929 255.621 189.756C255.698 189.474 255.817 189.242 255.979 189.057C256.148 188.865 256.33 188.769 256.522 188.769C256.603 188.769 256.68 188.786 256.751 188.821C256.906 188.898 257.023 189.043 257.103 189.26C257.112 189.279 257.117 189.3 257.117 189.321C257.117 189.343 257.111 189.365 257.099 189.385C257.073 189.428 257.036 189.45 256.987 189.45C256.974 189.45 256.961 189.448 256.946 189.443C256.905 189.429 256.878 189.402 256.864 189.362L256.857 189.351C256.838 189.297 256.814 189.251 256.784 189.208C256.706 189.093 256.61 189.036 256.496 189.036C256.43 189.036 256.364 189.06 256.297 189.109C256.17 189.2 256.06 189.356 255.968 189.582C255.874 189.812 255.826 190.039 255.826 190.261C255.826 190.476 255.86 190.653 255.93 190.796C256.006 190.954 256.111 191.032 256.243 191.032C256.334 191.03 256.43 190.973 256.536 190.856C256.663 190.712 256.766 190.525 256.845 190.297C256.567 190.297 256.423 190.294 256.412 190.292C256.319 190.276 256.271 190.228 256.268 190.146C256.271 190.13 256.275 190.114 256.282 190.102C256.305 190.054 256.35 190.029 256.418 190.029Z" fill="#FAFAFA"/>
<path fill-rule="evenodd" clip-rule="evenodd" d="M258.468 188.853C258.473 188.865 258.479 188.88 258.484 188.897C258.509 188.986 258.651 189.732 258.909 191.135C258.913 191.146 258.914 191.157 258.914 191.167C258.914 191.19 258.909 191.212 258.898 191.234C258.872 191.278 258.836 191.3 258.789 191.3C258.784 191.3 258.776 191.299 258.769 191.299C258.718 191.289 258.684 191.26 258.668 191.209L258.526 190.465H257.784L257.427 191.212C257.424 191.22 257.42 191.229 257.415 191.237C257.382 191.279 257.343 191.3 257.303 191.3C257.279 191.3 257.254 191.293 257.233 191.279C257.193 191.252 257.173 191.216 257.173 191.169C257.173 191.157 257.176 191.145 257.181 191.131C257.204 191.079 257.242 190.998 257.292 190.887C257.811 189.752 258.122 189.083 258.223 188.879C258.252 188.82 258.295 188.789 258.348 188.788C258.401 188.789 258.44 188.811 258.468 188.853ZM258.306 189.354L257.905 190.198H258.471L258.306 189.354Z" fill="#FAFAFA"/>
<path d="M260.481 191.3H259.394C259.369 191.3 259.345 191.293 259.324 191.279C259.292 191.256 259.271 191.21 259.262 191.142V191.14C259.262 191.096 259.362 190.353 259.562 188.913C259.564 188.896 259.565 188.88 259.569 188.865C259.591 188.811 259.631 188.785 259.686 188.785C259.708 188.785 259.727 188.791 259.746 188.8C259.792 188.824 259.814 188.862 259.814 188.914C259.804 189.013 259.779 189.216 259.74 189.525C259.616 190.477 259.55 190.98 259.545 191.032H260.47C260.495 191.032 260.518 191.036 260.54 191.046C260.595 191.068 260.623 191.109 260.623 191.167C260.623 191.18 260.62 191.195 260.616 191.209C260.598 191.259 260.553 191.289 260.481 191.3Z" fill="#FAFAFA"/>
<path fill-rule="evenodd" clip-rule="evenodd" d="M261.97 188.853C261.975 188.865 261.981 188.88 261.986 188.897C262.013 188.986 262.154 189.732 262.412 191.135C262.416 191.146 262.418 191.157 262.418 191.167C262.418 191.19 262.412 191.212 262.4 191.234C262.374 191.278 262.338 191.3 262.293 191.3C262.286 191.3 262.279 191.299 262.272 191.299C262.22 191.289 262.187 191.26 262.172 191.209L262.028 190.465H261.286L260.929 191.212C260.926 191.22 260.922 191.229 260.918 191.237C260.884 191.279 260.847 191.3 260.805 191.3C260.781 191.3 260.757 191.293 260.735 191.279C260.695 191.252 260.676 191.216 260.676 191.169C260.676 191.157 260.679 191.145 260.685 191.131C260.706 191.079 260.744 190.998 260.794 190.887C261.313 189.752 261.625 189.083 261.727 188.879C261.756 188.82 261.797 188.789 261.852 188.788C261.904 188.789 261.942 188.811 261.97 188.853ZM261.809 189.354L261.407 190.198H261.974L261.809 189.354Z" fill="#FAFAFA"/>
<path d="M263.704 190.138C263.79 190.373 263.855 190.556 263.901 190.683C264.013 190.994 264.07 191.157 264.07 191.174C264.07 191.198 264.063 191.22 264.049 191.239C264.023 191.279 263.986 191.3 263.941 191.3C263.891 191.299 263.855 191.27 263.832 191.212C263.824 191.189 263.817 191.171 263.811 191.157C263.752 191.021 263.655 190.766 263.52 190.389L262.905 191.231C262.871 191.277 262.832 191.299 262.79 191.3C262.766 191.3 262.744 191.293 262.722 191.282C262.681 191.257 262.661 191.22 262.661 191.174C262.661 191.163 262.661 191.153 262.662 191.146C262.666 191.127 262.687 191.091 262.728 191.04C262.934 190.774 263.162 190.457 263.412 190.087C263.386 190.016 263.361 189.947 263.336 189.883C263.106 189.261 262.989 188.941 262.989 188.92C262.989 188.897 262.994 188.875 263.005 188.853C263.029 188.81 263.064 188.788 263.111 188.788C263.167 188.789 263.207 188.814 263.232 188.861L263.596 189.84L264.321 188.851C264.353 188.811 264.391 188.791 264.438 188.791C264.458 188.791 264.479 188.795 264.497 188.805C264.538 188.828 264.56 188.866 264.56 188.92C264.56 188.939 264.556 188.958 264.546 188.98L263.704 190.138Z" fill="#FAFAFA"/>
<path d="M266.399 188.796C266.418 188.796 266.439 188.801 266.458 188.811C266.502 188.834 266.525 188.871 266.528 188.922C266.349 190.33 266.252 191.091 266.233 191.203C266.192 191.444 266.115 191.641 265.999 191.798C265.826 192.034 265.586 192.154 265.277 192.154C265.178 192.154 265.061 192.122 264.929 192.06C264.743 191.974 264.615 191.863 264.545 191.724C264.535 191.705 264.53 191.683 264.53 191.661C264.53 191.637 264.537 191.617 264.548 191.596C264.574 191.552 264.611 191.532 264.66 191.532C264.699 191.532 264.732 191.549 264.759 191.584C264.92 191.795 265.105 191.901 265.317 191.902C265.483 191.901 265.627 191.828 265.749 191.683C265.885 191.515 265.966 191.287 265.988 190.999C265.947 191.063 265.894 191.12 265.828 191.168C265.711 191.254 265.58 191.295 265.438 191.295C265.414 191.295 265.389 191.294 265.365 191.291C265.199 191.268 265.061 191.169 264.951 190.995C264.831 190.801 264.77 190.559 264.77 190.269C264.77 190.138 264.776 190.002 264.788 189.86C264.809 189.64 264.858 189.327 264.935 188.922C264.938 188.91 264.942 188.898 264.947 188.885C264.969 188.826 265.008 188.796 265.064 188.796C265.085 188.796 265.107 188.801 265.127 188.814C265.17 188.838 265.192 188.873 265.192 188.918C265.192 188.984 265.171 189.15 265.131 189.414C265.075 189.803 265.046 190.055 265.046 190.173C265.046 190.415 265.078 190.611 265.142 190.764C265.218 190.94 265.325 191.029 265.465 191.029C265.479 191.029 265.494 191.028 265.509 191.023C265.615 191.003 265.723 190.915 265.834 190.764C265.962 190.588 266.051 190.389 266.104 190.164L266.268 188.922C266.271 188.903 266.277 188.885 266.285 188.867C266.308 188.821 266.347 188.796 266.399 188.796Z" fill="#FAFAFA"/>
<path d="M282.639 193.345C282.602 193.345 282.571 191.859 282.571 190.025C282.571 188.192 282.602 186.706 282.639 186.706C282.676 186.706 282.706 188.192 282.706 190.025C282.706 191.859 282.676 193.345 282.639 193.345Z" fill="#F5F5F5"/>
<path d="M253.084 193.345C253.047 193.345 253.017 191.859 253.017 190.025C253.017 188.192 253.047 186.706 253.084 186.706C253.121 186.706 253.15 188.192 253.15 190.025C253.15 191.859 253.121 193.345 253.084 193.345Z" fill="#E0E0E0"/>
<path d="M283.272 193.345C283.236 193.345 283.206 191.859 283.206 190.025C283.206 188.192 283.236 186.706 283.272 186.706C283.309 186.706 283.339 188.192 283.339 190.025C283.339 191.859 283.309 193.345 283.272 193.345Z" fill="#F5F5F5"/>
<path d="M252.493 193.345C252.456 193.345 252.425 191.859 252.425 190.025C252.425 188.192 252.456 186.706 252.493 186.706C252.528 186.706 252.559 188.192 252.559 190.025C252.559 191.859 252.528 193.345 252.493 193.345Z" fill="#E0E0E0"/>
<path d="M273.881 187.799L273.875 187.788C274.861 188.583 276.202 189.665 277.693 190.867L277.726 190.895L277.685 190.906C277.523 190.948 277.351 190.993 277.177 191.04C276.018 191.344 274.92 191.632 273.954 191.885L273.947 191.887L273.941 191.885C272.744 191.377 271.733 190.948 271.02 190.646C270.667 190.495 270.387 190.374 270.193 190.292C270.1 190.25 270.027 190.219 269.975 190.197C269.952 190.186 269.934 190.178 269.92 190.171C269.906 190.165 269.901 190.163 269.901 190.161C269.901 190.161 269.908 190.164 269.92 190.168C269.935 190.174 269.954 190.18 269.978 190.19C270.03 190.212 270.103 190.241 270.199 190.279C270.393 190.36 270.674 190.477 271.03 190.624C271.744 190.922 272.756 191.346 273.956 191.848H273.944C274.909 191.592 276.007 191.302 277.166 190.998C277.34 190.951 277.512 190.906 277.674 190.863L277.666 190.901C276.178 189.696 274.841 188.611 273.856 187.813L273.851 187.807V187.8" fill="#E0E0E0"/>
<path d="M277.347 190.388L277.556 190.584L277.835 190.524L277.714 190.782L277.857 191.029L277.574 190.993L277.383 191.206L277.329 190.925L277.068 190.809L277.318 190.672L277.347 190.388Z" fill="#E0E0E0"/>
<path d="M273.686 191.603L273.829 191.721L274.006 191.671L273.937 191.843L274.04 191.997L273.856 191.984L273.741 192.13L273.696 191.95L273.522 191.887L273.679 191.788L273.686 191.603Z" fill="#E0E0E0"/>
<path d="M269.641 189.943L269.868 189.957L270.008 189.778L270.064 189.998L270.279 190.076L270.086 190.199L270.078 190.425L269.904 190.28L269.685 190.343L269.768 190.131L269.641 189.943Z" fill="#E0E0E0"/>
<path d="M279.06 187.848L279.286 187.862L279.426 187.684L279.483 187.903L279.695 187.982L279.503 188.102L279.495 188.33L279.321 188.185L279.102 188.248L279.186 188.037L279.06 187.848Z" fill="#E0E0E0"/>
<path d="M273.697 187.699L273.841 187.709L273.93 187.595L273.966 187.735L274.102 187.784L273.98 187.863L273.974 188.007L273.863 187.915L273.724 187.955L273.778 187.82L273.697 187.699Z" fill="#E0E0E0"/>
<path d="M279.377 188.006C279.377 188.022 278.142 187.98 276.619 187.916C275.096 187.85 273.863 187.785 273.865 187.77C273.865 187.756 275.099 187.798 276.622 187.862C278.144 187.927 279.378 187.993 279.377 188.006Z" fill="#E0E0E0"/>
<path d="M280.764 186.734H244.134C243.655 185.647 243.537 184.613 244.134 183.686H280.764C281.245 184.795 281.205 185.803 280.764 186.734Z" fill="#E0E0E0"/>
<path d="M271.564 185.667H251.719V184.558H271.564V185.667Z" fill="#EBEBEB"/>
<path d="M245.541 186.751C245.53 186.761 245.398 186.636 245.251 186.383C245.104 186.133 244.957 185.747 244.917 185.301C244.879 184.855 244.956 184.45 245.057 184.178C245.158 183.903 245.266 183.756 245.278 183.763C245.298 183.774 245.222 183.935 245.148 184.205C245.072 184.476 245.013 184.863 245.051 185.289C245.089 185.716 245.214 186.087 245.335 186.339C245.456 186.593 245.559 186.739 245.541 186.751Z" fill="#E0E0E0"/>
<path d="M246.333 186.751C246.322 186.761 246.192 186.636 246.045 186.383C245.897 186.133 245.75 185.747 245.71 185.301C245.671 184.855 245.748 184.45 245.85 184.178C245.951 183.903 246.059 183.756 246.071 183.763C246.09 183.774 246.015 183.935 245.941 184.205C245.865 184.476 245.806 184.863 245.843 185.289C245.881 185.716 246.006 186.087 246.127 186.339C246.248 186.593 246.351 186.739 246.333 186.751Z" fill="#E0E0E0"/>
<path d="M279.282 186.679C279.242 186.665 279.54 186.031 279.54 185.189C279.551 184.347 279.259 183.71 279.3 183.695C279.323 183.674 279.683 184.313 279.673 185.19C279.673 186.067 279.305 186.701 279.282 186.679Z" fill="#F5F5F5"/>
<path d="M278.601 186.673C278.561 186.663 278.715 186.02 278.711 185.213C278.712 184.405 278.557 183.763 278.597 183.753C278.627 183.742 278.845 184.385 278.844 185.213C278.848 186.041 278.631 186.685 278.601 186.673Z" fill="#F5F5F5"/>
<path d="M301.702 172.524L250.233 172.493C244.043 172.489 239.027 167.47 239.028 161.28L239.054 32.2472C239.056 26.0535 244.078 21.0353 250.272 21.0381L301.74 21.0683C307.93 21.0724 312.946 26.092 312.945 32.2816L312.919 161.315C312.919 167.508 307.895 172.528 301.702 172.524Z" fill="#263238"/>
<path d="M301.571 25.6708L291.592 25.6653C290.253 25.6653 289.168 26.7983 289.168 28.1964L289.167 30.0065C289.167 31.4059 288.082 32.5403 286.744 32.5389L267.294 32.5279C265.955 32.5265 264.87 31.3921 264.87 29.9927L264.871 28.1827C264.871 26.7832 263.786 25.6489 262.449 25.6489L258.939 25.6461L250.206 25.6406C245.867 25.6393 242.35 29.1536 242.349 33.492L242.324 159.436C242.323 163.772 245.836 167.288 250.171 167.29L301.537 167.319C305.874 167.322 309.392 163.808 309.393 159.469L309.418 33.5249C309.418 29.1893 305.905 25.6736 301.571 25.6708Z" fill="white"/>
<path d="M309.994 45.6813C309.994 45.7418 294.828 45.7898 276.125 45.7898C257.413 45.7898 242.25 45.7418 242.25 45.6813C242.25 45.6223 257.413 45.5742 276.125 45.5742C294.828 45.5742 309.994 45.6223 309.994 45.6813Z" fill="#263238"/>
<path d="M249.336 41.0163C249.287 41.0163 249.239 40.9998 249.2 40.9655L247.243 39.2488C247.198 39.209 247.172 39.1513 247.173 39.0909C247.173 39.0305 247.201 38.9742 247.248 38.9357L249.205 37.3083C249.292 37.2355 249.422 37.2479 249.494 37.3344C249.567 37.4223 249.555 37.5528 249.467 37.6255L247.697 39.0978L249.471 40.6551C249.558 40.7307 249.566 40.8597 249.49 40.9463C249.45 40.993 249.393 41.0163 249.336 41.0163Z" fill="#263238"/>
<path d="M292.041 38.9792C292.041 39.0382 285.666 39.0863 277.804 39.0863C269.939 39.0863 263.565 39.0382 263.565 38.9792C263.565 38.9201 269.939 38.8721 277.804 38.8721C285.666 38.8721 292.041 38.9201 292.041 38.9792Z" fill="#263238"/>
<path d="M300.288 38.9654C300.288 39.3747 299.958 39.7056 299.55 39.7056C299.142 39.7056 298.811 39.3747 298.811 38.9654C298.811 38.5575 299.142 38.2266 299.55 38.2266C299.958 38.2266 300.288 38.5575 300.288 38.9654Z" fill="#263238"/>
<path d="M302.425 38.9654C302.425 39.3747 302.094 39.7056 301.685 39.7056C301.277 39.7056 300.946 39.3747 300.946 38.9654C300.946 38.5575 301.277 38.2266 301.685 38.2266C302.094 38.2266 302.425 38.5575 302.425 38.9654Z" fill="#263238"/>
<path d="M304.561 38.9654C304.561 39.3747 304.23 39.7056 303.822 39.7056C303.413 39.7056 303.082 39.3747 303.082 38.9654C303.082 38.5575 303.413 38.2266 303.822 38.2266C304.23 38.2266 304.561 38.5575 304.561 38.9654Z" fill="#263238"/>
<path fill-rule="evenodd" clip-rule="evenodd" d="M269.7 73.3521C269.7 73.83 269.501 74.117 269.17 74.117C268.993 74.117 268.867 74.0346 268.82 73.8767C268.711 74.0346 268.544 74.117 268.323 74.117C267.942 74.117 267.661 73.8273 267.661 73.4125C267.661 73.0046 267.942 72.7149 268.323 72.7149C268.516 72.7149 268.676 72.7808 268.784 72.9113V72.7313H269.09V73.6693C269.09 73.8108 269.156 73.8575 269.233 73.8575C269.383 73.8575 269.465 73.6831 269.465 73.3576C269.465 72.7671 269.035 72.3702 268.405 72.3702C267.765 72.3702 267.341 72.7973 267.341 73.3988C267.341 74.0085 267.76 74.4343 268.394 74.4343C268.563 74.4343 268.762 74.3986 268.93 74.3134L269.004 74.5332C268.836 74.6197 268.599 74.6636 268.394 74.6636C267.611 74.6636 267.087 74.1308 267.087 73.3988C267.087 72.6764 267.617 72.1436 268.405 72.1436C269.167 72.1436 269.7 72.6489 269.7 73.3521ZM268.79 73.4125C268.79 73.1392 268.612 72.9827 268.38 72.9827C268.14 72.9827 267.972 73.1475 267.972 73.4125C267.972 73.6803 268.14 73.8492 268.38 73.8492C268.612 73.8492 268.79 73.6886 268.79 73.4125Z" fill="#263238"/>
<path d="M285.267 74.1007C285.267 74.1597 282.287 74.2078 278.612 74.2078C274.935 74.2078 271.955 74.1597 271.955 74.1007C271.955 74.0403 274.935 73.9922 278.612 73.9922C282.287 73.9922 285.267 74.0403 285.267 74.1007Z" fill="#263238"/>
<path d="M258.946 92.9323C258.946 92.9914 258.532 93.0394 258.023 93.0394C257.513 93.0394 257.101 92.9914 257.101 92.9323C257.101 92.8733 257.513 92.8252 258.023 92.8252C258.532 92.8252 258.946 92.8733 258.946 92.9323Z" fill="#263238"/>
<path d="M263.291 97.3972C263.291 97.4562 261.066 97.5043 258.321 97.5043C255.575 97.5043 253.351 97.4562 253.351 97.3972C253.351 97.3381 255.575 97.29 258.321 97.29C261.066 97.29 263.291 97.3381 263.291 97.3972Z" fill="#263238"/>
<path d="M278.945 92.9323C278.945 92.9914 277.679 93.0394 276.118 93.0394C274.556 93.0394 273.29 92.9914 273.29 92.9323C273.29 92.8733 274.556 92.8252 276.118 92.8252C277.679 92.8252 278.945 92.8733 278.945 92.9323Z" fill="#263238"/>
<path d="M280.611 97.1579C280.611 97.2169 278.333 97.265 275.523 97.265C272.712 97.265 270.433 97.2169 270.433 97.1579C270.433 97.0988 272.712 97.0508 275.523 97.0508C278.333 97.0508 280.611 97.0988 280.611 97.1579Z" fill="#263238"/>
<path d="M297.396 92.9919C297.396 93.0523 295.69 93.1004 293.586 93.1004C291.483 93.1004 289.777 93.0523 289.777 92.9919C289.777 92.9328 291.483 92.8848 293.586 92.8848C295.69 92.8848 297.396 92.9328 297.396 92.9919Z" fill="#263238"/>
<path d="M298.824 97.3376C298.824 97.3966 296.626 97.4447 293.915 97.4447C291.202 97.4447 289.004 97.3966 289.004 97.3376C289.004 97.2785 291.202 97.2305 293.915 97.2305C296.626 97.2305 298.824 97.2785 298.824 97.3376Z" fill="#263238"/>
<path d="M284.588 110.193H256.662C256.082 110.193 255.612 109.724 255.612 109.144V102.611C255.612 102.033 256.082 101.563 256.662 101.563H284.588C285.168 101.563 285.637 102.033 285.637 102.611V109.144C285.637 109.724 285.168 110.193 284.588 110.193Z" fill="#1F4EAD"/>
<path d="M279.96 106.023C279.96 106.082 276.096 106.13 271.329 106.13C266.559 106.13 262.696 106.082 262.696 106.023C262.696 105.964 266.559 105.916 271.329 105.916C276.096 105.916 279.96 105.964 279.96 106.023Z" fill="white"/>
<path d="M295.726 110.249H289.097C288.559 110.249 288.122 109.812 288.122 109.272V102.378C288.122 101.84 288.559 101.403 289.097 101.403H295.726C296.265 101.403 296.701 101.84 296.701 102.378V109.272C296.701 109.812 296.265 110.249 295.726 110.249Z" fill="#EBEBEB"/>
<path d="M291.487 105.373H293.336L292.49 106.672L291.487 105.373Z" fill="#263238"/>
<path d="M285.638 116.614C285.638 116.673 280.864 116.721 274.976 116.721C269.088 116.721 264.315 116.673 264.315 116.614C264.315 116.554 269.088 116.506 274.976 116.506C280.864 116.506 285.638 116.554 285.638 116.614Z" fill="#E0E0E0"/>
<path d="M291.845 120.63C291.845 120.689 284.832 120.737 276.182 120.737C267.529 120.737 260.518 120.689 260.518 120.63C260.518 120.571 267.529 120.522 276.182 120.522C284.832 120.522 291.845 120.571 291.845 120.63Z" fill="#E0E0E0"/>
<path d="M309.849 127.593C309.849 127.654 294.829 127.702 276.304 127.702C257.774 127.702 242.757 127.654 242.757 127.593C242.757 127.534 257.774 127.486 276.304 127.486C294.829 127.486 309.849 127.534 309.849 127.593Z" fill="#263238"/>
<path d="M276.964 135.408C276.905 135.408 276.856 133.708 276.856 131.611C276.856 129.514 276.905 127.813 276.964 127.813C277.023 127.813 277.071 129.514 277.071 131.611C277.071 133.708 277.023 135.408 276.964 135.408Z" fill="#263238"/>
<path d="M265.355 81.7958C265.355 83.7102 263.803 85.2621 261.889 85.2621C259.974 85.2621 258.422 83.7102 258.422 81.7958C258.422 79.8814 259.974 78.3281 261.889 78.3281C263.803 78.3281 265.355 79.8814 265.355 81.7958Z" fill="#1F4EAD"/>
<path d="M260.323 81.859L260.768 81.414L261.626 82.1762L263.311 80.5557L263.725 81.0006L261.563 83.0345L260.323 81.859Z" fill="white"/>
<path d="M276.781 167.305L249.595 167.294C245.538 167.294 242.25 164.006 242.25 159.951V135.408H276.781V167.305Z" fill="#EBEBEB"/>
<path d="M301.858 167.371L276.453 167.305V135.408H309.487V159.744C309.487 163.832 305.948 167.371 301.858 167.371Z" fill="#455A64"/>
<path d="M309.849 135.408C309.849 135.467 294.831 135.515 276.307 135.515C257.777 135.515 242.761 135.467 242.761 135.408C242.761 135.349 257.777 135.301 276.307 135.301C294.831 135.301 309.849 135.349 309.849 135.408Z" fill="#263238"/>
<path d="M275.795 154.067C275.792 154.07 275.761 154.05 275.702 154.009C275.633 153.96 275.548 153.898 275.443 153.821C275.206 153.644 274.878 153.398 274.461 153.086C273.6 152.428 272.379 151.497 270.876 150.349C270.122 149.778 269.292 149.117 268.408 148.468C267.956 148.194 267.327 148.199 266.863 148.521C266.642 148.679 266.44 148.924 266.221 149.135C266.006 149.354 265.787 149.575 265.566 149.799C263.796 151.591 261.85 153.559 259.808 155.624C259.687 155.748 259.565 155.87 259.454 155.984L259.388 156.05L259.314 155.994C258.171 155.142 257.057 154.311 255.982 153.511C255.443 153.11 254.916 152.715 254.4 152.33C253.933 151.901 253.272 151.793 252.746 152.054C252.484 152.169 252.288 152.397 252.061 152.6C251.841 152.805 251.624 153.005 251.411 153.204C250.986 153.601 250.572 153.986 250.171 154.358C249.372 155.1 248.626 155.792 247.945 156.424C246.591 157.672 245.491 158.685 244.718 159.398C244.343 159.737 244.048 160.004 243.833 160.199C243.739 160.281 243.663 160.349 243.601 160.402C243.548 160.447 243.519 160.469 243.516 160.467C243.513 160.464 243.537 160.436 243.586 160.387C243.644 160.328 243.715 160.257 243.804 160.167C244.012 159.967 244.299 159.689 244.661 159.338C245.424 158.613 246.507 157.584 247.843 156.314C248.519 155.676 249.258 154.979 250.052 154.229C250.449 153.854 250.861 153.467 251.284 153.068C251.497 152.868 251.711 152.666 251.929 152.46C252.039 152.358 252.149 152.254 252.259 152.151C252.378 152.041 252.514 151.948 252.661 151.876C252.954 151.732 253.297 151.68 253.629 151.735C253.794 151.761 253.958 151.813 254.109 151.89C254.264 151.966 254.394 152.074 254.522 152.166C255.04 152.551 255.568 152.943 256.107 153.343C257.182 154.142 258.297 154.972 259.441 155.822L259.301 155.833C259.412 155.719 259.535 155.597 259.656 155.473C261.702 153.412 263.652 151.448 265.426 149.66C265.649 149.436 265.867 149.216 266.084 148.999C266.308 148.786 266.493 148.556 266.757 148.365C267.284 148.004 267.993 148.005 268.498 148.315C269.414 148.995 270.212 149.645 270.969 150.23C272.455 151.4 273.662 152.35 274.512 153.02C274.917 153.344 275.237 153.601 275.469 153.787C275.57 153.87 275.651 153.938 275.715 153.991C275.77 154.038 275.796 154.064 275.795 154.067Z" fill="#263238"/>
<path d="M262.318 143.36C262.294 143.362 262.306 143.094 262.184 142.639C262.063 142.195 261.761 141.542 261.089 141.041C260.757 140.796 260.341 140.589 259.86 140.507C259.384 140.428 258.848 140.446 258.339 140.641C257.829 140.825 257.343 141.173 256.998 141.653C256.644 142.126 256.445 142.734 256.438 143.36C256.445 143.987 256.644 144.594 256.998 145.068C257.343 145.547 257.829 145.894 258.339 146.078C258.848 146.275 259.385 146.293 259.86 146.213C260.341 146.132 260.757 145.924 261.089 145.679C261.761 145.177 262.063 144.526 262.184 144.081C262.306 143.627 262.294 143.359 262.318 143.36C262.325 143.36 262.329 143.426 262.329 143.553C262.334 143.679 262.317 143.866 262.265 144.101C262.166 144.565 261.875 145.256 261.181 145.799C260.838 146.066 260.401 146.293 259.893 146.389C259.389 146.479 258.818 146.468 258.271 146.265C257.725 146.073 257.201 145.705 256.829 145.191C256.446 144.686 256.229 144.032 256.224 143.36C256.229 142.688 256.446 142.034 256.829 141.528C257.201 141.016 257.725 140.648 258.271 140.456C258.818 140.253 259.389 140.24 259.893 140.332C260.401 140.427 260.838 140.655 261.181 140.92C261.875 141.464 262.166 142.156 262.265 142.619C262.317 142.854 262.334 143.042 262.329 143.168C262.329 143.295 262.325 143.36 262.318 143.36Z" fill="#263238"/>
<path d="M308.479 153.064C308.478 153.068 308.447 153.047 308.39 153.006C308.324 152.957 308.241 152.895 308.141 152.819C307.91 152.641 307.594 152.393 307.195 152.082C306.365 151.424 305.188 150.49 303.74 149.342C303.013 148.769 302.215 148.106 301.362 147.46C300.926 147.189 300.306 147.2 299.868 147.536C299.661 147.699 299.463 147.944 299.256 148.153C299.048 148.371 298.839 148.591 298.628 148.815C296.931 150.6 295.068 152.56 293.111 154.618C292.993 154.742 292.875 154.865 292.767 154.979L292.699 155.049L292.624 154.99C291.522 154.138 290.45 153.305 289.413 152.503C288.895 152.101 288.387 151.707 287.89 151.321C287.444 150.89 286.793 150.792 286.289 151.063C286.041 151.188 285.852 151.417 285.633 151.618C285.423 151.822 285.216 152.023 285.011 152.22C284.602 152.616 284.205 152.999 283.822 153.371C283.054 154.112 282.339 154.801 281.685 155.431C280.386 156.677 279.331 157.686 278.588 158.399C278.228 158.737 277.946 159.003 277.74 159.197C277.649 159.279 277.575 159.345 277.516 159.4C277.464 159.446 277.436 159.467 277.433 159.465C277.431 159.462 277.454 159.435 277.501 159.385C277.556 159.326 277.624 159.255 277.709 159.167C277.908 158.965 278.183 158.689 278.531 158.34C279.263 157.616 280.301 156.589 281.581 155.324C282.229 154.687 282.938 153.992 283.698 153.245C284.08 152.871 284.474 152.484 284.881 152.086C285.084 151.887 285.29 151.685 285.5 151.48C285.605 151.379 285.71 151.276 285.816 151.171C285.927 151.064 286.056 150.964 286.198 150.89C286.479 150.737 286.817 150.68 287.143 150.73C287.306 150.755 287.466 150.806 287.614 150.881C287.765 150.958 287.893 151.067 288.015 151.159C288.513 151.543 289.023 151.938 289.542 152.337C290.579 153.139 291.653 153.97 292.754 154.822L292.611 154.832C292.72 154.717 292.838 154.594 292.956 154.47C294.917 152.415 296.784 150.46 298.485 148.677C298.698 148.456 298.908 148.236 299.116 148.019C299.331 147.807 299.506 147.583 299.757 147.385C300.255 147.005 300.963 146.996 301.454 147.308C302.341 147.986 303.105 148.637 303.836 149.224C305.265 150.394 306.427 151.346 307.247 152.017C307.637 152.343 307.945 152.598 308.167 152.785C308.263 152.867 308.342 152.935 308.403 152.989C308.456 153.036 308.482 153.061 308.479 153.064Z" fill="#263238"/>
<path d="M294.474 142.454C294.45 142.456 294.461 142.188 294.34 141.735C294.22 141.288 293.917 140.637 293.246 140.136C292.913 139.89 292.496 139.684 292.017 139.602C291.54 139.524 291.005 139.54 290.495 139.736C289.986 139.92 289.499 140.268 289.155 140.747C288.8 141.221 288.601 141.828 288.594 142.454C288.6 143.08 288.8 143.687 289.155 144.161C289.499 144.642 289.986 144.989 290.495 145.173C291.005 145.37 291.54 145.386 292.017 145.308C292.496 145.226 292.913 145.018 293.246 144.774C293.917 144.272 294.22 143.62 294.34 143.175C294.461 142.722 294.45 142.453 294.474 142.454C294.482 142.454 294.486 142.52 294.486 142.646C294.489 142.773 294.474 142.961 294.421 143.196C294.323 143.66 294.031 144.351 293.338 144.895C292.995 145.16 292.558 145.388 292.05 145.482C291.546 145.574 290.974 145.563 290.428 145.359C289.881 145.168 289.358 144.798 288.986 144.286C288.603 143.781 288.386 143.127 288.38 142.454C288.386 141.783 288.603 141.129 288.986 140.624C289.358 140.11 289.881 139.742 290.428 139.551C290.974 139.346 291.546 139.335 292.05 139.427C292.558 139.522 292.995 139.75 293.338 140.015C294.031 140.559 294.323 141.25 294.421 141.714C294.474 141.949 294.489 142.137 294.486 142.262C294.486 142.39 294.482 142.454 294.474 142.454Z" fill="#263238"/>
<path d="M286.515 61.1073C286.515 66.3768 282.242 70.6493 276.973 70.6493C271.702 70.6493 267.43 66.3768 267.43 61.1073C267.43 55.8365 271.702 51.5654 276.973 51.5654C282.242 51.5654 286.515 55.8365 286.515 61.1073Z" fill="#F5F5F5"/>
<path d="M283.143 68.3465C282.86 65.4144 280.365 62.9287 276.976 62.9287C273.588 62.9287 271.269 65.4927 270.807 68.3685C272.203 69.9121 274.259 70.6729 276.976 70.6496C279.692 70.6276 281.748 69.8599 283.143 68.3465Z" fill="#E0E0E0"/>
<path d="M280.717 59.8415C280.717 61.9084 279.043 63.5825 276.976 63.5825C274.91 63.5825 273.235 61.9084 273.235 59.8415C273.235 57.7747 274.91 56.1006 276.976 56.1006C279.043 56.1006 280.717 57.7747 280.717 59.8415Z" fill="#E0E0E0"/>
<path d="M283.098 68.0194C283.053 68.0318 283.046 67.3259 282.514 66.2561C282.233 65.7356 281.8 65.1423 281.166 64.5985C280.533 64.0601 279.705 63.5561 278.728 63.2306L278.533 63.1675L278.712 63.0713C279.304 62.7541 279.845 62.2432 280.202 61.584C280.562 60.9276 280.721 60.1173 280.597 59.3125C280.489 58.5077 280.074 57.7167 279.427 57.1399C278.786 56.5604 277.91 56.2074 277.002 56.2074C276.096 56.2074 275.222 56.5562 274.581 57.1344C273.933 57.7071 273.519 58.4968 273.405 59.2988C273.275 60.1036 273.438 60.9097 273.788 61.5689C273.968 61.8971 274.189 62.1924 274.441 62.4437C274.693 62.6978 274.98 62.8887 275.271 63.0754L275.436 63.1812L275.247 63.232C274.243 63.5012 273.413 64.0066 272.809 64.5792C272.199 65.1519 271.801 65.774 271.532 66.3041C271.263 66.8384 271.117 67.2861 271.029 67.591C270.983 67.7434 270.956 67.8629 270.936 67.9425C270.917 68.0222 270.907 68.0634 270.902 68.062C270.897 68.062 270.899 68.0194 270.91 67.937C270.922 67.856 270.941 67.7338 270.978 67.5786C271.053 67.2655 271.184 66.8095 271.444 66.2616C271.704 65.7164 272.096 65.075 272.713 64.479C273.323 63.883 274.173 63.3501 275.201 63.0645L275.177 63.221C274.888 63.0397 274.579 62.8379 274.313 62.5742C274.046 62.3119 273.812 62.0042 273.621 61.6595C273.247 60.9688 273.07 60.1187 273.205 59.2699C273.32 58.4198 273.755 57.5835 274.439 56.9765C275.116 56.364 276.043 55.9918 277.002 55.9932C277.963 55.9932 278.893 56.3681 279.569 56.9833C280.251 57.5931 280.687 58.4322 280.799 59.2837C280.926 60.1338 280.752 60.9866 280.369 61.6746C279.989 62.3668 279.416 62.8983 278.793 63.2251L278.776 63.0658C279.787 63.4119 280.615 63.9324 281.256 64.4927C281.896 65.0585 282.328 65.6738 282.602 66.2121C282.722 66.4896 282.843 66.7313 282.896 66.9606C282.962 67.1845 283.023 67.374 283.038 67.5347C283.058 67.6802 283.076 67.7983 283.09 67.8958C283.099 67.9769 283.104 68.0194 283.098 68.0194Z" fill="#263238"/>
<path d="M286.515 61.1077C286.511 61.1077 286.505 61.0555 286.496 60.9525C286.488 60.8399 286.477 60.6902 286.463 60.5007C286.456 60.3991 286.449 60.2892 286.441 60.167C286.427 60.0448 286.401 59.9129 286.378 59.7687C286.331 59.4817 286.287 59.148 286.176 58.7854C286.005 58.0507 285.658 57.1814 285.114 56.2612C284.565 55.3452 283.772 54.388 282.697 53.5764C281.625 52.773 280.272 52.089 278.71 51.813C277.161 51.5479 275.41 51.5974 273.744 52.2305C273.321 52.3665 272.923 52.5766 272.512 52.773C272.125 53.0078 271.716 53.2234 271.355 53.5173C270.97 53.781 270.635 54.112 270.284 54.4292C269.966 54.7808 269.633 55.1255 269.358 55.5251C268.796 56.3052 268.306 57.1731 268.008 58.1262C267.7 59.0752 267.536 60.0818 267.522 61.1063C267.536 62.1309 267.7 63.1389 268.008 64.0865C268.305 65.0409 268.795 65.9089 269.358 66.6903C269.631 67.0886 269.965 67.4333 270.282 67.7849C270.635 68.1035 270.97 68.4331 271.355 68.6968C271.716 68.9907 272.125 69.2076 272.512 69.4425C272.922 69.6389 273.321 69.849 273.744 69.9849C275.412 70.618 277.161 70.6675 278.712 70.4011C280.272 70.1264 281.625 69.4425 282.697 68.6377C283.774 67.8261 284.565 66.8702 285.114 65.9528C285.659 65.0327 286.005 64.1648 286.176 63.4287C286.287 63.0661 286.331 62.7337 286.378 62.4453C286.401 62.3025 286.427 62.1693 286.441 62.0485C286.449 61.9262 286.456 61.815 286.463 61.7147C286.477 61.5238 286.488 61.3741 286.496 61.2615C286.505 61.1599 286.511 61.1077 286.515 61.1077C286.519 61.1077 286.52 61.1599 286.518 61.2629C286.515 61.3755 286.511 61.5266 286.505 61.7175C286.503 61.8191 286.498 61.9303 286.494 62.0526C286.483 62.1762 286.46 62.3094 286.441 62.455C286.401 62.7447 286.363 63.0826 286.257 63.4493C286.097 64.195 285.758 65.0767 285.217 66.0146C284.671 66.9485 283.877 67.9263 282.789 68.7586C281.706 69.5839 280.334 70.2871 278.745 70.5755C277.165 70.8543 275.381 70.8117 273.677 70.1703C273.244 70.033 272.837 69.8201 272.418 69.6196C272.021 69.3807 271.602 69.1609 271.233 68.8616C270.84 68.5924 270.495 68.2559 270.135 67.9318C269.81 67.5734 269.469 67.2218 269.188 66.8139C268.612 66.016 268.11 65.1302 267.805 64.1538C267.49 63.1842 267.32 62.1542 267.306 61.1063C267.32 60.0585 267.49 59.0285 267.806 58.0589C268.111 57.0839 268.612 56.1967 269.189 55.4001C269.469 54.9923 269.811 54.6407 270.137 54.2823C270.496 53.9581 270.84 53.6217 271.233 53.3525C271.602 53.0545 272.021 52.8334 272.418 52.5958C272.837 52.3953 273.244 52.1824 273.677 52.0451C275.381 51.4037 277.165 51.3598 278.743 51.6386C280.332 51.927 281.706 52.6315 282.789 53.4555C283.877 54.2877 284.671 55.2656 285.217 56.1994C285.758 57.1374 286.097 58.0205 286.257 58.7648C286.363 59.1329 286.401 59.4693 286.441 59.7605C286.46 59.9047 286.483 60.0379 286.494 60.1615C286.498 60.2837 286.503 60.3963 286.505 60.498C286.511 60.6889 286.515 60.8399 286.518 60.9525C286.52 61.0555 286.519 61.1077 286.515 61.1077Z" fill="#263238"/>
<path d="M270.543 84.0039L272.168 79.3125H272.988L270.879 85H270.215L268.109 79.3125H268.926L270.543 84.0039ZM275.223 85.0781C274.65 85.0781 274.184 84.8906 273.824 84.5156C273.465 84.138 273.285 83.6341 273.285 83.0039V82.8711C273.285 82.4518 273.365 82.0781 273.523 81.75C273.685 81.4193 273.909 81.1615 274.195 80.9766C274.484 80.7891 274.797 80.6953 275.133 80.6953C275.682 80.6953 276.109 80.8763 276.414 81.2383C276.719 81.6003 276.871 82.1185 276.871 82.793V83.0938H274.008C274.018 83.5104 274.139 83.8477 274.371 84.1055C274.605 84.3607 274.902 84.4883 275.262 84.4883C275.517 84.4883 275.733 84.4362 275.91 84.332C276.087 84.2279 276.242 84.0898 276.375 83.918L276.816 84.2617C276.462 84.806 275.931 85.0781 275.223 85.0781ZM275.133 81.2891C274.841 81.2891 274.596 81.3958 274.398 81.6094C274.201 81.8203 274.078 82.1172 274.031 82.5H276.148V82.4453C276.128 82.0781 276.029 81.7943 275.852 81.5938C275.674 81.3906 275.435 81.2891 275.133 81.2891ZM279.754 81.4219C279.645 81.4036 279.526 81.3945 279.398 81.3945C278.924 81.3945 278.603 81.5964 278.434 82V85H277.711V80.7734H278.414L278.426 81.2617C278.663 80.8841 278.999 80.6953 279.434 80.6953C279.574 80.6953 279.681 80.7135 279.754 80.75V81.4219ZM281.207 85H280.484V80.7734H281.207V85ZM280.426 79.6523C280.426 79.5352 280.461 79.4362 280.531 79.3555C280.604 79.2747 280.711 79.2344 280.852 79.2344C280.992 79.2344 281.099 79.2747 281.172 79.3555C281.245 79.4362 281.281 79.5352 281.281 79.6523C281.281 79.7695 281.245 79.8672 281.172 79.9453C281.099 80.0234 280.992 80.0625 280.852 80.0625C280.711 80.0625 280.604 80.0234 280.531 79.9453C280.461 79.8672 280.426 79.7695 280.426 79.6523ZM282.723 85V81.332H282.055V80.7734H282.723V80.3398C282.723 79.8867 282.844 79.5365 283.086 79.2891C283.328 79.0417 283.671 78.918 284.113 78.918C284.28 78.918 284.445 78.9401 284.609 78.9844L284.57 79.5703C284.448 79.5469 284.318 79.5352 284.18 79.5352C283.945 79.5352 283.764 79.6042 283.637 79.7422C283.509 79.8776 283.445 80.0729 283.445 80.3281V80.7734H284.348V81.332H283.445V85H282.723ZM286.531 83.9414L287.516 80.7734H288.289L286.59 85.6523C286.327 86.3555 285.909 86.707 285.336 86.707L285.199 86.6953L284.93 86.6445V86.0586L285.125 86.0742C285.37 86.0742 285.56 86.0247 285.695 85.9258C285.833 85.8268 285.947 85.6458 286.035 85.3828L286.195 84.9531L284.688 80.7734H285.477L286.531 83.9414Z" fill="#1F4EAD"/>
<path d="M237.509 104.45C232.498 107.046 228.657 111.515 225.894 116.435C223.13 121.356 221.349 126.756 219.586 132.116L218.042 159.763C223.873 149.843 228.552 138.183 229.817 126.746C228.524 126.631 227.23 126.517 225.938 126.402C228.539 126.005 230.722 124.119 232.112 121.885C233.5 119.649 234.216 117.071 234.914 114.535C233.336 114.769 231.758 115.003 230.18 115.238C233.888 112.764 236.575 108.808 237.509 104.45Z" fill="#455A64"/>
<path d="M237.509 104.45C232.498 107.046 228.657 111.515 225.894 116.435C223.13 121.356 221.349 126.756 219.586 132.116L218.042 159.763C223.873 149.843 228.552 138.183 229.817 126.746C228.524 126.631 227.23 126.517 225.938 126.402C228.539 126.005 230.722 124.119 232.112 121.885C233.5 119.649 234.216 117.071 234.914 114.535C233.336 114.769 231.758 115.003 230.18 115.238C233.888 112.764 236.575 108.808 237.509 104.45Z" fill="#455A64"/>
<path d="M217.18 166.241C208.742 156.142 204.572 146.272 204.67 136.633H209.782C206.08 134.198 204.376 132.3 204.669 130.936C204.961 129.572 205.156 126.311 205.254 121.15L209.928 122.319C207.591 121.15 206.277 119.641 205.984 117.791C205.692 115.941 206.032 110.73 207.006 102.162C210.805 106.154 213.288 110.195 214.456 114.285C216.209 120.419 220.809 127.577 219.458 146.272C218.559 158.737 217.798 165.393 217.18 166.241Z" fill="#455A64"/>
<path d="M223.594 167.669C232.735 161.58 238.321 154.65 240.352 146.878L236.241 145.759C239.75 144.612 241.537 143.459 241.599 142.298C241.662 141.138 242.218 138.474 243.27 134.303L239.256 134.219C241.39 133.791 242.777 132.865 243.417 131.442C244.057 130.018 244.922 125.755 246.014 118.652C242.088 121.032 239.208 123.738 237.373 126.77C234.622 131.319 229.357 136.066 226.353 151.393C224.35 161.61 223.431 167.036 223.594 167.669Z" fill="#455A64"/>
<path d="M210.464 115.368C210.467 115.368 210.482 115.422 210.508 115.526C210.536 115.641 210.571 115.795 210.618 115.992C210.711 116.415 210.846 117.019 211.016 117.791C211.192 118.571 211.395 119.528 211.616 120.642C211.84 121.756 212.103 123.023 212.358 124.429C212.899 127.238 213.47 130.596 214.058 134.333C214.628 138.071 215.198 142.189 215.705 146.524C216.201 150.861 216.586 155.003 216.885 158.772C217.163 162.545 217.373 165.944 217.487 168.802C217.56 170.23 217.593 171.524 217.629 172.66C217.669 173.795 217.689 174.773 217.696 175.572C217.706 176.363 217.713 176.981 217.718 177.414C217.718 177.616 217.718 177.775 217.718 177.893C217.717 178 217.714 178.057 217.711 178.057C217.707 178.057 217.702 178 217.696 177.893C217.691 177.775 217.684 177.617 217.674 177.415C217.66 176.983 217.64 176.365 217.614 175.575C217.592 174.776 217.56 173.798 217.509 172.664C217.463 171.529 217.417 170.237 217.336 168.81C217.203 165.954 216.977 162.557 216.687 158.789C216.378 155.02 215.988 150.883 215.492 146.548C214.985 142.217 214.422 138.1 213.863 134.361C213.286 130.627 212.732 127.268 212.21 124.457C211.962 123.049 211.711 121.782 211.498 120.665C211.288 119.55 211.097 118.59 210.935 117.807C210.78 117.033 210.659 116.426 210.575 116.001C210.538 115.802 210.508 115.647 210.488 115.53C210.468 115.424 210.46 115.37 210.464 115.368Z" fill="#263238"/>
<path d="M215.423 175.516C207.702 166.755 202.644 159.728 200.247 154.433L202.962 153.272C200.994 153.596 198.978 152.752 197.452 151.468C195.926 150.182 194.805 148.493 193.707 146.828L197.283 146.224C194.031 145.312 191.166 143.093 189.47 140.172C193.689 140.867 197.507 143.184 200.653 146.081C203.201 148.427 205.358 151.15 207.43 153.934C208.441 155.291 209.326 156.737 210.062 158.261C212.008 162.284 215.43 170.69 215.423 175.516Z" fill="#455A64"/>
<path d="M240.535 126.303C240.537 126.304 240.52 126.35 240.48 126.436C240.434 126.532 240.375 126.657 240.301 126.816C240.134 127.163 239.896 127.651 239.594 128.274C239.284 128.905 238.905 129.677 238.477 130.581C238.049 131.482 237.549 132.503 237.026 133.646C235.957 135.922 234.728 138.652 233.407 141.701C232.097 144.756 230.703 148.133 229.316 151.71C227.936 155.288 226.696 158.727 225.609 161.868C224.535 165.014 223.608 167.86 222.868 170.263C222.486 171.461 222.169 172.553 221.879 173.508C221.588 174.463 221.348 175.29 221.154 175.965C220.958 176.63 220.805 177.151 220.697 177.519C220.645 177.686 220.604 177.819 220.573 177.921C220.543 178.012 220.527 178.057 220.524 178.057C220.52 178.056 220.529 178.007 220.551 177.915C220.577 177.812 220.612 177.678 220.656 177.508C220.755 177.137 220.895 176.612 221.073 175.942C221.256 175.264 221.484 174.434 221.764 173.474C222.043 172.516 222.35 171.42 222.723 170.218C223.445 167.809 224.357 164.955 225.423 161.805C226.499 158.657 227.735 155.214 229.115 151.631C230.504 148.054 231.905 144.675 233.226 141.622C234.558 138.575 235.802 135.85 236.889 133.582C237.421 132.443 237.931 131.425 238.37 130.527C238.807 129.629 239.197 128.861 239.52 128.237C239.837 127.621 240.086 127.138 240.263 126.797C240.345 126.642 240.41 126.52 240.461 126.426C240.506 126.343 240.531 126.3 240.535 126.303Z" fill="#263238"/>
<path d="M216.407 181.147C216.398 181.148 216.38 181.065 216.353 180.905C216.324 180.723 216.287 180.492 216.242 180.208C216.198 179.904 216.141 179.533 216.062 179.105C215.985 178.676 215.911 178.186 215.794 177.65C215.587 176.575 215.29 175.305 214.911 173.907C214.521 172.513 214.04 170.995 213.454 169.43C212.859 167.868 212.216 166.411 211.589 165.106C210.949 163.807 210.332 162.656 209.776 161.713C209.51 161.234 209.242 160.816 209.017 160.444C208.793 160.07 208.591 159.755 208.422 159.498C208.268 159.255 208.143 159.057 208.044 158.9C207.961 158.763 207.919 158.689 207.925 158.685C207.932 158.681 207.984 158.747 208.08 158.877C208.188 159.027 208.324 159.218 208.492 159.451C208.671 159.701 208.885 160.011 209.118 160.379C209.353 160.747 209.63 161.159 209.907 161.635C210.481 162.573 211.114 163.719 211.766 165.019C212.406 166.323 213.058 167.786 213.656 169.354C214.244 170.925 214.72 172.452 215.102 173.855C215.473 175.261 215.754 176.539 215.944 177.623C216.051 178.161 216.114 178.656 216.181 179.087C216.25 179.518 216.294 179.89 216.324 180.197C216.353 180.484 216.378 180.716 216.396 180.9C216.409 181.062 216.413 181.147 216.407 181.147Z" fill="#263238"/>
<path d="M231.688 183.226H206.34V178.057H231.688V183.226Z" fill="#1F4EAD"/>
<path d="M208.756 183.226L211.497 200.617H226.814L229.37 183.226H208.756Z" fill="#1F4EAD"/>
<path d="M230.133 183.226C230.133 183.287 225.337 183.335 219.424 183.335C213.509 183.335 208.715 183.287 208.715 183.226C208.715 183.167 213.509 183.119 219.424 183.119C225.337 183.119 230.133 183.167 230.133 183.226Z" fill="#263238"/>
<g opacity="0.302">
<g opacity="0.302">
<path opacity="0.302" d="M237.509 104.45C232.498 107.046 228.657 111.515 225.894 116.435C223.13 121.356 221.349 126.756 219.586 132.116L218.042 159.763C223.873 149.843 228.552 138.183 229.817 126.746C228.524 126.631 227.23 126.517 225.938 126.402C228.539 126.005 230.722 124.119 232.112 121.885C233.5 119.649 234.216 117.071 234.914 114.535C233.336 114.769 231.758 115.003 230.18 115.238C233.888 112.764 236.575 108.808 237.509 104.45Z" fill="black"/>
</g>
</g>
<path d="M355.518 126.763C358.321 131.414 359.931 135.954 360.346 140.382C360.762 144.811 359.491 164.913 356.536 200.688H304.252C313.589 156.509 319.785 133.003 322.843 130.169L323.156 125.759L355.518 126.763Z" fill="#263238"/>
<path d="M357.75 132.083C357.765 132.297 357.759 132.609 357.732 133.018C357.692 133.629 357.58 134.536 357.231 135.652C356.89 136.766 356.287 138.09 355.279 139.414C354.772 140.073 354.16 140.725 353.427 141.32C352.695 141.915 351.853 142.452 350.952 142.974C350.051 143.498 349.087 144.01 348.124 144.605C347.168 145.205 346.193 145.888 345.39 146.797C344.6 147.716 343.955 148.807 343.528 150.031C343.106 151.257 342.863 152.577 342.677 153.935C342.491 155.296 342.373 156.701 342.186 158.134C341.992 159.562 341.728 161.027 341.196 162.443C340.672 163.858 339.818 165.193 338.665 166.246C337.516 167.31 336.127 168.105 334.682 168.77C331.784 170.095 328.767 170.94 326.21 172.486C324.933 173.254 323.826 174.237 322.974 175.38C322.127 176.532 321.568 177.837 321.141 179.135C320.3 181.745 319.947 184.355 319.261 186.713C319.17 187.007 319.081 187.298 318.993 187.586C318.893 187.87 318.792 188.153 318.695 188.434C318.461 188.979 318.251 189.524 317.977 190.025C317.732 190.542 317.425 191.01 317.146 191.481C316.991 191.706 316.837 191.929 316.684 192.148L316.455 192.475L316.208 192.783C314.913 194.425 313.469 195.682 312.084 196.593C310.699 197.509 309.395 198.117 308.296 198.504C307.193 198.886 306.307 199.088 305.703 199.194C305.405 199.238 305.177 199.272 305.014 199.297C304.909 199.312 304.831 199.321 304.778 199.325C304.83 199.312 304.907 199.295 305.01 199.275C305.173 199.246 305.4 199.205 305.695 199.151C306.295 199.032 307.174 198.819 308.267 198.426C309.358 198.028 310.649 197.412 312.018 196.494C313.387 195.579 314.813 194.324 316.088 192.69L316.333 192.383L316.558 192.059C316.708 191.841 316.859 191.62 317.013 191.396C317.286 190.928 317.589 190.462 317.828 189.95C318.099 189.453 318.305 188.913 318.534 188.372C318.63 188.094 318.728 187.814 318.827 187.533C318.913 187.246 319.001 186.956 319.089 186.665C319.765 184.319 320.109 181.71 320.953 179.073C321.383 177.763 321.946 176.438 322.808 175.259C323.676 174.09 324.808 173.085 326.1 172.308C328.691 170.738 331.717 169.892 334.591 168.575C336.025 167.916 337.394 167.132 338.519 166.089C339.649 165.057 340.483 163.759 340.999 162.369C341.524 160.978 341.789 159.528 341.983 158.106C342.171 156.681 342.292 155.274 342.481 153.909C342.671 152.544 342.918 151.212 343.349 149.969C343.786 148.728 344.449 147.613 345.257 146.677C346.082 145.752 347.072 145.065 348.036 144.464C349.009 143.869 349.975 143.361 350.876 142.843C351.776 142.325 352.614 141.798 353.341 141.214C354.069 140.631 354.679 139.989 355.184 139.341C356.191 138.036 356.801 136.73 357.151 135.628C357.511 134.522 357.634 133.623 357.688 133.014C357.724 132.711 357.724 132.476 357.733 132.319C357.739 132.215 357.744 132.137 357.75 132.083Z" fill="#455A64"/>
<path d="M359.219 136.961C359.238 137.008 359.266 137.076 359.298 137.17C359.352 137.306 359.409 137.519 359.475 137.797C359.583 138.358 359.666 139.226 359.429 140.298C359.201 141.365 358.675 142.633 357.718 143.862C356.773 145.099 355.437 146.274 353.929 147.497C352.434 148.729 350.731 150.056 349.423 151.923C348.775 152.855 348.278 153.935 348.033 155.121C347.777 156.303 347.713 157.555 347.634 158.838C347.561 160.121 347.429 161.449 347.083 162.76C346.747 164.073 346.244 165.371 345.579 166.613C344.254 169.091 342.278 171.352 339.78 172.996C337.262 174.64 334.422 175.432 331.932 176.675C330.688 177.294 329.511 178.019 328.56 178.955C327.609 179.889 326.883 180.996 326.354 182.156C325.294 184.489 324.858 186.917 324.267 189.124C323.975 190.231 323.653 191.294 323.264 192.287C322.862 193.274 322.385 194.189 321.823 194.991C321.267 195.797 320.622 196.48 319.962 197.062C319.641 197.364 319.29 197.61 318.964 197.867C318.617 198.092 318.293 198.332 317.949 198.515C316.606 199.297 315.325 199.731 314.258 199.954C313.189 200.188 312.336 200.202 311.765 200.217C311.485 200.203 311.268 200.192 311.113 200.184C311.015 200.178 310.941 200.173 310.892 200.166C310.942 200.163 311.017 200.162 311.114 200.162C311.269 200.164 311.485 200.169 311.764 200.173C312.334 200.144 313.181 200.116 314.24 199.873C315.296 199.637 316.563 199.195 317.889 198.411C318.228 198.228 318.545 197.988 318.889 197.763C319.21 197.507 319.556 197.261 319.872 196.96C320.52 196.381 321.153 195.703 321.7 194.905C322.249 194.111 322.715 193.206 323.11 192.227C323.492 191.241 323.808 190.184 324.095 189.079C324.679 186.877 325.106 184.441 326.174 182.074C326.708 180.895 327.447 179.764 328.417 178.806C329.388 177.851 330.584 177.113 331.839 176.487C334.352 175.232 337.183 174.436 339.662 172.816C342.127 171.194 344.082 168.962 345.394 166.512C346.052 165.287 346.55 164.006 346.885 162.71C347.229 161.415 347.362 160.107 347.436 158.826C347.52 157.544 347.584 156.282 347.849 155.079C348.101 153.875 348.614 152.765 349.276 151.823C350.613 149.929 352.333 148.604 353.833 147.38C355.346 146.165 356.679 145.006 357.623 143.788C358.579 142.581 359.109 141.332 359.348 140.28C359.593 139.223 359.527 138.364 359.432 137.806C359.322 137.245 359.203 136.966 359.219 136.961Z" fill="#455A64"/>
<path d="M306.153 99.6424C308.413 115.231 311.282 123.784 314.758 125.299C317.388 126.446 319.5 125.46 320.942 122.809C321.903 121.043 323.606 113.789 326.051 101.046L315.903 100.81L315.524 104.612L311.613 97.3311L306.153 99.6424Z" fill="#936760"/>
<path d="M321.112 114.911C321.119 114.909 321.089 114.844 321.027 114.726C320.953 114.59 320.861 114.421 320.748 114.215C320.49 113.748 320.138 113.114 319.711 112.342C318.838 110.758 317.639 108.568 316.329 106.14C315.035 103.717 313.865 101.525 313.003 99.9076C312.589 99.1276 312.25 98.4862 312 98.0152C311.889 97.8092 311.797 97.6389 311.723 97.5029C311.657 97.3876 311.62 97.3271 311.613 97.3313C311.607 97.334 311.633 97.3985 311.687 97.5208C311.753 97.6609 311.834 97.8366 311.933 98.0495C312.15 98.5068 312.474 99.1619 312.88 99.9708C313.693 101.586 314.847 103.804 316.159 106.232C317.469 108.661 318.688 110.842 319.592 112.409C320.044 113.192 320.419 113.821 320.682 114.253C320.807 114.453 320.91 114.615 320.993 114.747C321.065 114.858 321.107 114.915 321.112 114.911Z" fill="#6F4C47"/>
<path d="M356.476 105.111L353.58 118.067L354.95 126.763H323.118L325.198 86.1698L333.135 85.4941L352.525 88.7682L356.476 105.111Z" fill="#1F4EAD"/>
<path d="M348.377 88.5346C353.906 88.0279 357.987 89.6539 360.619 93.4141C362.23 95.7158 364.167 99.5089 366.429 104.795L355.392 106.698L348.377 88.5346Z" fill="#1F4EAD"/>
<g opacity="0.302">
<path opacity="0.302" d="M353.404 105.263C352.324 102.962 349.807 101.412 347.266 101.488C346.714 101.504 346.094 101.635 345.798 102.102C345.488 102.594 345.669 103.235 345.881 103.775C346.158 104.48 346.523 105.223 347.202 105.561C347.696 105.809 348.277 105.798 348.806 105.958C349.454 106.156 349.994 106.604 350.514 107.039C350.935 107.392 351.364 107.755 351.639 108.23C351.859 108.607 351.969 109.037 352.076 109.46C352.614 111.579 353.041 115.948 353.58 118.067L354.173 116.242C354.187 114.499 354.202 112.758 354.215 111.016C354.232 109.062 354.232 107.032 353.404 105.263Z" fill="black"/>
</g>
<path d="M343.507 116.065C343.513 116.034 343.941 116.108 344.638 116.161C345.333 116.216 346.299 116.229 347.354 116.093C348.409 115.954 349.341 115.693 349.999 115.462C350.658 115.232 351.052 115.05 351.066 115.079C351.073 115.09 350.98 115.148 350.807 115.241C350.634 115.337 350.374 115.458 350.047 115.591C349.393 115.858 348.451 116.145 347.38 116.285C346.308 116.424 345.323 116.389 344.624 116.299C344.274 116.253 343.992 116.204 343.8 116.156C343.609 116.109 343.505 116.078 343.507 116.065Z" fill="#263238"/>
<path d="M329.62 116.633C329.636 116.582 334.139 117.865 339.679 119.501C345.221 121.135 349.7 122.502 349.685 122.554C349.67 122.605 345.167 121.322 339.624 119.686C334.084 118.052 329.604 116.685 329.62 116.633Z" fill="#263238"/>
<g opacity="0.302">
<path opacity="0.302" d="M343.737 116.119C344.529 117.329 346.037 118.029 347.474 117.855C348.909 117.68 350.024 116.759 350.502 115.394C348.324 116.278 346.07 116.408 343.737 116.119Z" fill="black"/>
</g>
<g opacity="0.302">
<g opacity="0.302">
<g opacity="0.302">
<g opacity="0.302">
<g opacity="0.302">
<g opacity="0.302">
<path opacity="0.302" d="M348.474 122.157L348.357 122.202C345.515 122.71 342.853 122.186 340.126 121.233C337.402 120.281 334.865 118.868 332.348 117.453C337.723 119.021 343.098 120.59 348.474 122.157Z" fill="black"/>
</g>
</g>
</g>
</g>
</g>
</g>
<path d="M325.198 86.1693C321.702 86.5978 319.273 88.3062 317.915 91.2946C316.557 94.2829 315.381 97.5625 314.39 101.133L325.09 103.542C326.212 97.5075 326.816 93.4246 326.902 91.2946C327.042 87.7953 327.18 86.0676 325.198 86.1693Z" fill="#1F4EAD"/>
<path d="M324.189 104.976C324.135 104.976 324.095 103.631 324.098 101.973C324.102 100.316 324.149 98.9727 324.202 98.9727C324.256 98.9727 324.296 100.316 324.293 101.975C324.289 103.631 324.242 104.976 324.189 104.976Z" fill="#263238"/>
<path d="M330.002 57.4508C332.835 53.9873 336.639 51.9932 341.114 51.9204C343.638 51.8778 344.681 52.4024 346.5 52.8927C348.318 53.383 349.958 54.3581 351.041 55.8976C352.33 57.7255 353.412 59.7731 353.655 61.9952C353.905 64.279 354.156 66.578 353.983 68.8687C353.811 71.1594 353.189 73.4653 351.841 75.3248L346.012 76.3383C342.793 76.4468 339.53 76.5525 336.395 75.8192C333.258 75.0844 330.212 73.3966 328.532 70.6486C326.199 66.8307 327.167 60.9144 330.002 57.4508Z" fill="#263238"/>
<path d="M350.077 78.6068C350.065 78.6205 350.172 78.7496 350.425 78.9117C350.676 79.0738 351.085 79.2537 351.625 79.3182C352.16 79.3745 352.839 79.3045 353.477 78.9419C354.122 78.5876 354.65 77.9037 354.871 77.0934C355.088 76.2818 354.977 75.4248 354.6 74.7945C354.23 74.1586 353.679 73.7576 353.189 73.5365C352.689 73.3181 352.246 73.2687 351.948 73.2811C351.647 73.2934 351.49 73.3525 351.493 73.3703C351.489 73.439 352.171 73.2948 353.082 73.7576C353.523 73.9897 354.006 74.3783 354.321 74.951C354.641 75.5168 354.73 76.2735 354.535 77.0028C354.336 77.7293 353.877 78.339 353.315 78.6659C352.756 79.0023 352.143 79.0943 351.645 79.0724C350.625 79.0133 350.109 78.5436 350.077 78.6068Z" fill="#E0E0E0"/>
<path d="M324.352 74.37C324.497 73.0558 325.187 71.7635 326.325 71.0905C327.464 70.4176 329.055 70.4863 330.004 71.4091L330.92 72.5009C332.356 73.1121 333.258 74.7436 333.083 76.2941C332.91 77.8446 331.718 79.211 330.226 79.667C328.734 80.1216 327.022 79.6807 325.88 78.6178C324.74 77.5534 324.182 75.9205 324.352 74.37Z" fill="#263238"/>
<path d="M325.507 78.3004C325.549 78.2798 325.146 77.9077 325.194 77.14C325.243 76.3943 325.784 75.4164 326.527 74.521C327.287 73.6201 328.179 73.0035 328.863 72.6478C329.546 72.2811 330.015 72.1479 330 72.0998C329.995 72.071 329.5 72.1369 328.774 72.4665C328.049 72.7851 327.098 73.399 326.31 74.3356C325.915 74.8012 325.599 75.2928 325.367 75.7694C325.133 76.2418 324.988 76.7197 324.992 77.1345C324.99 77.5492 325.124 77.8706 325.253 78.0587C325.385 78.2469 325.497 78.3128 325.507 78.3004Z" fill="#455A64"/>
<path d="M328.328 80.0218C328.422 80.0163 328.026 78.2543 328.587 76.1724C329.117 74.0835 330.326 72.7418 330.246 72.6896C330.223 72.6676 329.891 72.967 329.476 73.5548C329.061 74.1398 328.591 75.0339 328.31 76.101C328.032 77.168 328.004 78.1774 328.079 78.8902C328.153 79.6057 328.296 80.0301 328.328 80.0218Z" fill="#455A64"/>
<path d="M346.013 85.7932C345.975 83.7483 345.927 82.0742 345.927 82.0838C349.095 81.7336 351.117 79.5294 351.993 75.4684C352.645 72.4403 352.767 67.4207 352.733 63.3117C352.704 59.6119 349.554 54.5759 344.986 54.5595L342.956 54.3232L335.187 57.4119C334.065 57.4682 333.173 58.3746 333.133 59.498L332.899 85.5144L340.41 103.748L345.799 96.4447L346.013 85.7932Z" fill="#936760"/>
<path d="M342.856 74.0428C342.899 73.7228 343.077 73.4385 343.304 73.2435C343.76 72.8535 344.424 72.815 344.912 73.1515C345.399 73.4879 345.678 74.1774 345.586 74.8173C345.313 75.1936 344.894 75.4477 344.431 75.4875C344.36 75.4944 344.287 75.4958 344.214 75.4944C343.864 75.4848 343.506 75.3667 343.238 75.1085C342.97 74.8489 342.804 74.4397 342.856 74.0428Z" fill="#6F4C47"/>
<path d="M349.713 67.52C349.705 67.9375 349.345 68.2739 348.91 68.2739C348.474 68.2739 348.128 67.9361 348.136 67.5186C348.145 67.1025 348.504 66.7646 348.938 66.7646C349.375 66.766 349.721 67.1039 349.713 67.52Z" fill="#263238"/>
<path d="M351.221 65.5936C351.118 65.6911 350.545 65.2159 349.697 65.172C348.851 65.1157 348.204 65.5181 348.117 65.4082C348.075 65.3601 348.185 65.1802 348.466 64.9976C348.744 64.8163 349.209 64.6501 349.738 64.6803C350.265 64.7133 350.699 64.9317 350.944 65.1445C351.194 65.3588 351.272 65.5497 351.221 65.5936Z" fill="#263238"/>
<path d="M345.893 72.0164C345.891 71.9683 346.423 71.9065 347.282 71.8434C347.501 71.8338 347.708 71.8022 347.752 71.6566C347.812 71.5028 347.734 71.2638 347.644 71.007C347.469 70.4714 347.285 69.9097 347.093 69.3219C346.333 66.9255 345.795 64.9602 345.893 64.93C345.989 64.9012 346.684 66.8197 347.444 69.2148C347.626 69.8053 347.8 70.3684 347.966 70.9081C348.035 71.1581 348.16 71.4451 348.032 71.7637C347.965 71.9216 347.8 72.0315 347.659 72.0604C347.517 72.0961 347.396 72.0906 347.288 72.0919C346.427 72.0906 345.893 72.0659 345.893 72.0164Z" fill="#263238"/>
<path d="M345.927 82.082C343.161 82.1094 340.458 81.2264 337.819 79.4355C339.123 82.3553 341.837 83.7368 345.958 83.5775L345.927 82.082Z" fill="#6F4C47"/>
<path d="M343.364 72.4671C343.503 72.4657 343.453 73.3872 344.206 74.0835C344.956 74.7825 345.943 74.7331 345.943 74.8622C345.953 74.9199 345.715 75.0284 345.3 75.0174C344.893 75.0091 344.307 74.8457 343.847 74.42C343.389 73.9929 343.21 73.4463 343.201 73.0672C343.187 72.68 343.301 72.4575 343.364 72.4671Z" fill="#263238"/>
<path d="M351.052 62.396C350.898 62.5951 350.257 62.4221 349.495 62.4427C348.732 62.4399 348.093 62.6294 347.936 62.4344C347.867 62.3397 347.961 62.1419 348.235 61.9483C348.506 61.7546 348.965 61.5871 349.489 61.5802C350.012 61.5747 350.474 61.7313 350.746 61.9181C351.023 62.1048 351.119 62.2998 351.052 62.396Z" fill="#263238"/>
<path d="M339.846 67.2956C339.824 67.7117 340.158 68.0742 340.593 68.1045C341.025 68.136 341.396 67.8243 341.418 67.4068C341.44 66.9907 341.105 66.6281 340.673 66.5979C340.237 66.5663 339.868 66.8794 339.846 67.2956Z" fill="#263238"/>
<path d="M339.601 65.2885C339.696 65.3943 340.301 64.9617 341.152 64.9782C341.999 64.9837 342.616 65.4314 342.709 65.3284C342.756 65.2831 342.658 65.0963 342.39 64.8944C342.127 64.6925 341.675 64.4934 341.146 64.4865C340.617 64.4796 340.168 64.6664 339.91 64.8614C339.645 65.0578 339.553 65.2419 339.601 65.2885Z" fill="#263238"/>
<path d="M339.112 63.4658C339.277 63.6622 339.935 63.4727 340.723 63.4768C341.512 63.4576 342.176 63.632 342.333 63.4328C342.402 63.3367 342.3 63.1417 342.012 62.9535C341.729 62.7668 341.251 62.6102 340.708 62.6143C340.167 62.6212 339.695 62.7874 339.417 62.9796C339.136 63.1733 339.041 63.371 339.112 63.4658Z" fill="#263238"/>
<path d="M334.189 69.8241C334.212 69.3654 333.743 68.2585 333.295 68.1624C332.099 67.9083 329.918 67.8863 329.73 70.9489C329.472 75.1375 333.729 74.5319 333.744 74.4124C333.756 74.319 334.105 71.4034 334.189 69.8241Z" fill="#936760"/>
<path d="M332.684 72.8108C332.666 72.797 332.607 72.8575 332.481 72.9069C332.357 72.9536 332.147 72.9797 331.934 72.8849C331.501 72.6954 331.173 71.9689 331.199 71.2136C331.212 70.8318 331.313 70.4734 331.467 70.1808C331.614 69.8828 331.826 69.681 332.051 69.6549C332.275 69.6178 332.424 69.7606 332.468 69.8815C332.518 70.0023 332.486 70.0847 332.508 70.093C332.519 70.1039 332.601 70.0284 332.578 69.8526C332.566 69.7688 332.523 69.6672 332.43 69.5807C332.335 69.4928 332.189 69.442 332.033 69.4489C331.709 69.4516 331.4 69.7304 331.231 70.0518C331.044 70.3731 330.921 70.7741 330.907 71.2026C330.881 72.0486 331.265 72.8643 331.86 73.0772C332.15 73.172 332.401 73.0978 332.533 73.0072C332.67 72.9124 332.698 72.819 332.684 72.8108Z" fill="#6F4C47"/>
<path d="M333.123 68.1756L334.188 69.2797C338.783 64.8809 347.763 53.8695 347.262 54.5246C345.163 53.6622 342.974 53.4246 340.697 53.8119C337.28 54.3942 330.8 56.104 330.9 60.1347C330.966 62.8209 331.707 65.5003 333.123 68.1756Z" fill="#263238"/>
<path d="M333.222 78.6068C333.233 78.6205 333.127 78.7496 332.873 78.9117C332.623 79.0738 332.214 79.2537 331.673 79.3182C331.137 79.3745 330.46 79.3045 329.82 78.9419C329.176 78.5876 328.649 77.9037 328.428 77.0934C328.209 76.2818 328.321 75.4248 328.698 74.7945C329.069 74.1586 329.62 73.7576 330.11 73.5365C330.609 73.3181 331.054 73.2687 331.352 73.2811C331.651 73.2934 331.809 73.3525 331.806 73.3703C331.81 73.439 331.126 73.2948 330.217 73.7576C329.775 73.9897 329.292 74.3783 328.979 74.951C328.659 75.5168 328.569 76.2735 328.764 77.0028C328.963 77.7293 329.422 78.339 329.982 78.6659C330.543 79.0023 331.157 79.0943 331.654 79.0724C332.673 79.0133 333.191 78.5436 333.222 78.6068Z" fill="#E0E0E0"/>
<path d="M327.038 67.2505C327.031 67.2478 327.053 67.1654 327.103 67.0074C327.153 66.8509 327.243 66.6243 327.388 66.3469C327.679 65.7961 328.237 65.0504 329.139 64.3775C330.026 63.6881 331.26 63.125 332.662 62.6828C334.063 62.2268 335.642 61.8725 337.193 61.2065C338.753 60.5665 340.144 59.7397 341.33 58.8897C342.513 58.0299 343.489 57.1387 344.25 56.3366C345.012 55.5332 345.566 54.8273 345.939 54.3329C346.111 54.0967 346.25 53.9058 346.36 53.7548C346.457 53.6229 346.511 53.5556 346.517 53.5597C346.523 53.5639 346.482 53.6394 346.395 53.7795C346.307 53.9168 346.184 54.1256 346.007 54.381C345.654 54.8919 345.114 55.6184 344.361 56.4396C343.609 57.2609 342.634 58.1728 341.447 59.049C340.255 59.9169 338.853 60.7574 337.275 61.4056C335.705 62.0785 334.115 62.4287 332.722 62.8709C331.326 63.3008 330.113 63.8391 329.229 64.4997C328.333 65.1438 327.77 65.8579 327.461 66.388C327.155 66.9236 327.06 67.2574 327.038 67.2505Z" fill="#455A64"/>
<path d="M328.257 67.9103C328.23 67.6809 328.284 67.3761 328.42 66.9943C328.616 66.4271 329.112 65.6553 329.993 65.0222C330.868 64.3698 332.117 63.9661 333.488 63.653C334.866 63.3494 336.361 62.9594 337.831 62.2741C339.299 61.5943 340.616 60.7717 341.702 59.8845C342.796 59.0042 343.677 58.091 344.357 57.2766C345.045 56.4649 345.507 55.7371 345.836 55.2427C345.98 55.0037 346.098 54.8101 346.192 54.6562C346.274 54.523 346.322 54.4544 346.328 54.4571C346.335 54.4612 346.3 54.5368 346.229 54.6768C346.145 54.8362 346.038 55.038 345.908 55.2852C345.599 55.7947 345.154 56.5418 344.474 57.3727C343.804 58.2063 342.925 59.1402 341.827 60.0383C340.736 60.9434 339.406 61.7825 337.92 62.4705C336.436 63.1627 334.907 63.5541 333.532 63.8452C332.163 64.1474 330.941 64.5291 330.081 65.1471C329.212 65.7459 328.712 66.4807 328.498 67.0245C328.274 67.5725 328.286 67.9144 328.257 67.9103Z" fill="#455A64"/>
<path d="M306.578 101.925C306.42 101.866 306.239 100.726 306.033 98.5039C303.812 96.7268 302.55 95.4785 302.247 94.7547C301.945 94.0323 301.815 92.8114 301.859 91.0893L307.317 87.373C309.469 89.2998 310.826 90.6388 311.389 91.3928C311.863 92.0273 312.229 93.7796 312.46 95.1956C312.657 96.4013 312.702 97.625 312.598 98.8418L312.517 99.7811C311.053 102.139 309.072 102.855 306.578 101.925Z" fill="#936760"/>
<path d="M302.497 95.4112C302.214 95.1722 301.843 94.8028 301.382 94.3043C300.674 93.5379 299.887 92.8211 300.553 92.0094C300.814 91.6922 301.099 91.5343 301.408 91.5397C301.138 91.0646 301.121 90.6759 301.354 90.3765C301.589 90.0771 301.876 89.9439 302.218 89.9769C301.865 89.2971 301.851 88.7272 302.178 88.2657C302.587 87.6889 303.137 87.4719 303.826 87.6175C302.351 84.6127 301.57 83.0319 301.479 82.8768C300.985 82.0239 301.031 81.0942 302.02 80.9925C302.383 80.9541 302.694 81.2384 303.637 82.6254C304.266 83.5511 305.102 84.8077 306.148 86.3966C307.294 87.3662 308.154 88.1229 308.726 88.6667C309.585 89.4825 311.389 91.3928 311.688 91.9641C312.203 92.9474 312.405 94.2342 312.294 95.8245L306.033 98.5039C303.946 96.6801 302.767 95.6488 302.497 95.4112Z" fill="#936760"/>
<path d="M301.607 91.6961C301.619 91.681 301.902 91.8774 302.351 92.2084C302.586 92.3842 302.848 92.5806 303.135 92.7948C303.281 92.906 303.44 93.0241 303.583 93.1766C303.725 93.3263 303.852 93.5268 303.878 93.7589C303.911 93.9855 303.836 94.2437 303.646 94.3783C303.461 94.5197 303.234 94.5307 303.048 94.5142C302.857 94.4977 302.682 94.4497 302.526 94.4043C302.366 94.3604 302.221 94.3151 302.088 94.2711C301.821 94.1832 301.61 94.1036 301.465 94.0432C301.321 93.9827 301.244 93.9429 301.248 93.9333C301.255 93.9141 301.582 94.0253 302.116 94.175C302.384 94.2409 302.706 94.3522 303.057 94.3837C303.232 94.3947 303.422 94.3769 303.561 94.2684C303.703 94.164 303.763 93.969 303.737 93.7767C303.715 93.5831 303.611 93.4128 303.48 93.2713C303.351 93.1299 303.199 93.0132 303.054 92.8992C302.776 92.6767 302.517 92.4707 302.289 92.288C301.857 91.9365 301.595 91.7126 301.607 91.6961Z" fill="#6F4C47"/>
<path d="M307.052 90.3612C307.019 90.3749 306.821 89.9259 306.757 89.3312C306.689 88.7366 306.786 88.2559 306.821 88.2628C306.864 88.2669 306.834 88.7407 306.898 89.3161C306.96 89.8915 307.092 90.3475 307.052 90.3612Z" fill="#6F4C47"/>
<path d="M310.083 90.8182C309.302 90.4433 308.401 90.3595 307.541 90.4748C306.681 90.5888 305.857 90.8923 305.07 91.2604C304.442 91.5543 303.76 91.991 303.674 92.679C303.585 93.3891 304.231 94.029 304.932 94.165C305.634 94.301 306.352 94.0565 307 93.7544C307.647 93.4522 308.277 93.0842 308.979 92.9469" fill="#936760"/>
<path d="M308.979 92.9465C308.982 92.9589 308.792 92.9946 308.469 93.1154C308.145 93.2335 307.7 93.4601 307.147 93.7403C306.868 93.8776 306.555 94.0204 306.201 94.1276C305.849 94.2333 305.447 94.3047 305.026 94.2457C304.605 94.1907 304.18 93.9696 303.889 93.6043C303.742 93.4244 303.639 93.1978 303.604 92.9547C303.576 92.7117 303.622 92.4548 303.744 92.2365C303.987 91.7929 304.407 91.5265 304.8 91.3163C305.204 91.1131 305.601 90.9455 305.989 90.8041C306.764 90.5212 307.507 90.3825 308.133 90.3784C308.759 90.3701 309.262 90.4814 309.59 90.5953C309.756 90.6517 309.88 90.708 309.962 90.7478C310.043 90.7904 310.084 90.8137 310.083 90.8178C310.078 90.8302 309.905 90.7437 309.574 90.6489C309.244 90.5528 308.75 90.458 308.136 90.4786C307.522 90.4965 306.797 90.642 306.034 90.9277C305.654 91.0691 305.257 91.2394 304.866 91.4399C304.483 91.6446 304.086 91.9055 303.87 92.3038C303.76 92.4988 303.722 92.724 303.745 92.9369C303.777 93.1497 303.866 93.353 303.999 93.5178C304.264 93.8529 304.656 94.063 305.044 94.1166C305.438 94.1743 305.824 94.1111 306.168 94.0136C306.514 93.9147 306.823 93.7801 307.103 93.6496C307.659 93.3832 308.118 93.1662 308.452 93.0632C308.618 93.0097 308.75 92.9808 308.84 92.963C308.931 92.9479 308.978 92.9424 308.979 92.9465Z" fill="#6F4C47"/>
<path d="M301.68 91.7524C302.723 92.5311 303.721 93.4403 304.68 94.3192C304.958 94.5746 305.254 94.8452 305.624 94.9235C305.92 94.9853 306.424 94.4964 306.66 94.3068L303.295 90.7705" fill="#936760"/>
<path d="M303.295 90.7699C303.302 90.763 303.399 90.8537 303.572 91.024C303.76 91.2121 304.003 91.4579 304.299 91.7559C304.911 92.3822 305.76 93.2598 306.712 94.2568L306.764 94.3117L306.705 94.3612C306.53 94.504 306.349 94.6715 306.139 94.813C306.055 94.8679 305.969 94.9201 305.871 94.9572C305.823 94.975 305.772 94.9915 305.714 94.9956C305.658 95.0039 305.594 94.9888 305.55 94.9778C305.356 94.9256 305.184 94.8254 305.035 94.7141C304.737 94.4848 304.495 94.2334 304.245 94.0096C303.752 93.5564 303.306 93.1513 302.925 92.8189C302.545 92.4852 302.23 92.2229 302.012 92.0416C301.795 91.8603 301.674 91.7614 301.68 91.7518C301.685 91.745 301.818 91.8301 302.046 91.9977C302.276 92.1652 302.601 92.4165 302.99 92.742C303.381 93.0661 303.836 93.463 304.333 93.9135C304.584 94.1332 304.836 94.3873 305.117 94.6015C305.26 94.7059 305.416 94.7951 305.587 94.8405C305.736 94.8926 305.904 94.7938 306.059 94.6949C306.258 94.5603 306.434 94.3996 306.615 94.2513L306.609 94.3543C305.66 93.3545 304.825 92.4646 304.23 91.8219C303.948 91.5115 303.715 91.2561 303.535 91.0583C303.374 90.8784 303.288 90.7754 303.295 90.7699Z" fill="#6F4C47"/>
<path d="M302.347 89.7012C303.479 90.9756 304.61 92.2514 305.742 93.5259C305.982 93.7964 306.228 94.0725 306.544 94.2483C306.86 94.4254 307.263 94.4872 307.582 94.3156C308.022 94.0794 308.147 93.4778 308.001 92.9999C307.855 92.5234 307.508 92.1402 307.178 91.7653C306.155 90.5993 305.223 89.3551 304.392 88.0449" fill="#936760"/>
<path d="M304.391 88.0441C304.395 88.0413 304.426 88.0825 304.484 88.1636C304.55 88.2583 304.632 88.3764 304.733 88.5206C304.948 88.8296 305.261 89.2773 305.668 89.8143C306.074 90.3526 306.576 90.9789 307.164 91.6477C307.453 91.9828 307.794 92.3261 307.999 92.7917C308.1 93.0197 308.15 93.2875 308.119 93.5498C308.091 93.8093 307.986 94.0799 307.773 94.2666C307.56 94.4562 307.264 94.5152 307.003 94.4768C306.739 94.4424 306.497 94.3229 306.298 94.1719C305.901 93.8601 305.624 93.4784 305.322 93.1515C304.737 92.4841 304.208 91.8812 303.759 91.3675C303.328 90.869 302.975 90.4584 302.715 90.1576C302.603 90.023 302.511 89.9118 302.437 89.8239C302.373 89.7456 302.343 89.7044 302.346 89.7003C302.35 89.6976 302.388 89.7333 302.457 89.8047C302.537 89.8885 302.636 89.9928 302.757 90.1206C303.024 90.4144 303.39 90.8141 303.835 91.3016C304.291 91.8084 304.826 92.4044 305.419 93.065C305.724 93.3891 306.01 93.7722 306.382 94.0593C306.569 94.2007 306.787 94.3051 307.022 94.3367C307.254 94.3696 307.503 94.3175 307.68 94.1595C307.858 94.0043 307.953 93.7681 307.979 93.5333C308.005 93.2957 307.964 93.0609 307.869 92.8466C307.683 92.4126 307.353 92.0734 307.065 91.7342C306.48 91.0585 305.985 90.4213 305.587 89.8747C305.19 89.3281 304.888 88.8708 304.686 88.5508C304.586 88.3915 304.51 88.2666 304.461 88.18C304.41 88.0935 304.387 88.0468 304.391 88.0441Z" fill="#6F4C47"/>
<path d="M309.568 96.8198C309.572 96.8363 309.422 96.8926 309.166 96.9077C308.911 96.9255 308.55 96.8857 308.186 96.7346C307.822 96.5822 307.541 96.3529 307.373 96.1592C307.206 95.9656 307.14 95.82 307.154 95.8118C307.187 95.7816 307.541 96.3185 308.241 96.6028C308.935 96.9008 309.567 96.7758 309.568 96.8198Z" fill="#6F4C47"/>
<path d="M352.742 86.0367L351.555 101.009C351.512 101.542 351.051 101.941 350.517 101.907L342.172 101.366C341.623 101.33 341.212 100.848 341.262 100.302L342.626 85.3404C342.674 84.8131 343.134 84.4189 343.662 84.4533L351.83 84.9847C352.373 85.0191 352.784 85.4929 352.742 86.0367Z" fill="#455A64"/>
<path d="M364.684 105.096C366.346 116.325 367.144 122.695 367.078 124.203C366.98 126.466 364.422 131.484 360.977 131.977C357.533 132.469 354.287 129.32 354.188 125.188C354.122 122.433 353.92 116.698 353.579 107.984L356.15 106.568L364.684 105.096Z" fill="#936760"/>
<path d="M350.491 91.1787C352.213 92.2376 353.327 92.905 353.835 93.181C354.343 93.4571 354.564 94.6203 354.498 96.672L358.841 106.766L353.606 108.641C352.363 106.287 351.563 104.961 351.206 104.663C350.848 104.365 350.432 104.157 349.955 104.039C349.777 104.692 349.42 104.872 348.884 104.574C348.348 104.276 347.783 103.771 347.187 103.055C346.711 103.353 346.383 103.323 346.205 102.966C346.026 102.609 345.789 102.043 345.491 101.27C346.503 99.9598 347.217 99.3047 347.634 99.3047C348.05 99.3047 349.33 99.3651 351.474 99.4832C351.355 99.3047 350.998 99.0973 350.402 98.8584C349.509 98.5013 344.191 96.9371 343.941 96.841C343.568 96.6954 343.145 95.7189 344.307 95.6297C345.08 95.5693 347.648 95.9291 352.008 96.7077C352.247 95.5816 352.278 94.8991 352.099 94.6615C351.831 94.3044 349.509 92.7869 350.491 91.1787Z" fill="#936760"/>
<path d="M347.181 102.975C347.163 102.974 347.121 102.696 347.202 102.24C347.25 102.016 347.351 101.736 347.596 101.518C347.846 101.289 348.219 101.243 348.554 101.227C349.244 101.183 349.869 101.227 350.315 101.291C350.761 101.356 351.031 101.431 351.025 101.456C351.017 101.516 349.921 101.332 348.567 101.42C348.229 101.437 347.916 101.478 347.711 101.654C347.504 101.827 347.395 102.07 347.335 102.273C347.225 102.693 347.215 102.979 347.181 102.975Z" fill="#6F4C47"/>
<path d="M348.217 103.298C348.251 103.253 348.663 103.531 349.219 103.77C349.774 104.015 350.259 104.129 350.249 104.184C350.245 104.234 349.723 104.204 349.142 103.949C348.558 103.696 348.182 103.336 348.217 103.298Z" fill="#6F4C47"/>
<path d="M351.71 96.6718C351.717 96.621 352.207 96.7143 352.633 97.1291C353.062 97.5397 353.17 98.0272 353.121 98.0369C353.067 98.0575 352.889 97.6413 352.497 97.2692C352.113 96.8901 351.691 96.7253 351.71 96.6718Z" fill="#6F4C47"/>
<path d="M307.129 186.805C307.071 186.791 309.321 177.331 312.154 165.679C314.987 154.022 317.33 144.587 317.388 144.601C317.446 144.614 315.196 154.072 312.363 165.729C309.53 177.382 307.187 186.818 307.129 186.805Z" fill="#455A64"/>
<path d="M348.32 51.983L349.531 47.6103C348.387 45.7522 347.725 43.5658 347.725 41.2257C347.725 34.4922 353.184 29.0332 359.916 29.0332C366.649 29.0332 372.108 34.4922 372.108 41.2257C372.108 47.9577 366.649 53.4167 359.916 53.4167C357.105 53.4167 354.517 52.4623 352.456 50.8637L352.46 50.8692L348.32 51.983Z" fill="white"/>
<path d="M348.32 51.9827C348.384 51.9621 348.476 51.9347 348.596 51.9003C348.782 51.8481 349.046 51.774 349.391 51.6765C350.091 51.4801 351.116 51.1944 352.448 50.8223L352.422 50.8978C352.42 50.8951 352.419 50.8937 352.418 50.8923C352.402 50.8717 352.405 50.8415 352.426 50.825C352.444 50.8127 352.468 50.8127 352.485 50.8264C353.757 51.796 355.627 52.8342 358.051 53.1995C359.254 53.389 360.585 53.3931 361.959 53.1487C363.331 52.9111 364.75 52.4195 366.082 51.6229C367.413 50.8319 368.654 49.736 369.653 48.3764C370.651 47.0195 371.407 45.3962 371.765 43.6274C372.111 41.8585 372.071 39.9565 371.584 38.1217C371.361 37.1961 370.97 36.313 370.533 35.4492C370.04 34.6156 369.507 33.7847 368.818 33.0733C368.174 32.3372 367.409 31.7316 366.627 31.1767C365.816 30.6686 364.982 30.1989 364.092 29.8954C362.33 29.2431 360.46 29.0261 358.684 29.1991C356.907 29.3832 355.232 29.96 353.794 30.8087C352.352 31.656 351.146 32.7698 350.226 34.0003C348.368 36.4751 347.697 39.3591 347.811 41.7775C347.914 44.2207 348.729 46.201 349.572 47.5839C349.579 47.5963 349.58 47.61 349.577 47.6224C349.174 49.0287 348.863 50.1109 348.65 50.8511C348.546 51.215 348.465 51.4938 348.407 51.6902C348.37 51.8179 348.341 51.9141 348.32 51.9827C348.333 51.9223 348.355 51.8317 348.388 51.7081C348.439 51.5131 348.512 51.237 348.607 50.8772C348.808 50.1246 349.102 49.0246 349.484 47.5963L349.49 47.6348C348.624 46.2504 347.785 44.255 347.667 41.7844C347.537 39.3385 348.203 36.4105 350.08 33.8918C351.01 32.6393 352.231 31.505 353.693 30.6398C355.153 29.7746 356.856 29.1827 358.663 28.9931C360.469 28.8146 362.371 29.0343 364.165 29.6963C365.071 30.0053 365.922 30.4818 366.747 30.9982C367.542 31.5626 368.319 32.1793 368.977 32.9277C369.676 33.6529 370.22 34.4975 370.721 35.3462C371.165 36.2251 371.563 37.126 371.79 38.0667C372.283 39.9359 372.321 41.8695 371.967 43.6686C371.6 45.4676 370.827 47.1156 369.811 48.4917C368.793 49.8719 367.528 50.9802 366.174 51.7795C364.82 52.5829 363.378 53.0759 361.987 53.3107C360.593 53.5511 359.246 53.5401 358.029 53.341C355.579 52.9564 353.697 51.8921 352.426 50.9005L352.493 50.8346C352.494 50.836 352.496 50.8374 352.497 50.8401C352.514 50.8607 352.51 50.8896 352.489 50.906C352.483 50.9102 352.478 50.9129 352.472 50.9143C351.118 51.2645 350.077 51.5337 349.365 51.7191C349.025 51.8056 348.763 51.8729 348.579 51.9196C348.462 51.9484 348.376 51.9704 348.32 51.9827Z" fill="#263238"/>
<path d="M354.464 41.5209L355.891 40.094L358.643 42.5399L364.044 37.3418L365.37 38.7687L358.438 45.292L354.464 41.5209Z" fill="#1F4EAD"/>
<defs>
<filter id="filter0_d_3739:1328" x="0" y="0" width="524" height="204" filterUnits="userSpaceOnUse" color-interpolation-filters="sRGB">
<feFlood flood-opacity="0" result="BackgroundImageFix"/>
<feColorMatrix in="SourceAlpha" type="matrix" values="0 0 0 0 0 0 0 0 0 0 0 0 0 0 0 0 0 0 127 0" result="hardAlpha"/>
<feOffset/>
<feGaussianBlur stdDeviation="1"/>
<feComposite in2="hardAlpha" operator="out"/>
<feColorMatrix type="matrix" values="0 0 0 0 0 0 0 0 0 0 0 0 0 0 0 0 0 0 0.25 0"/>
<feBlend mode="normal" in2="BackgroundImageFix" result="effect1_dropShadow_3739:1328"/>
<feBlend mode="normal" in="SourceGraphic" in2="effect1_dropShadow_3739:1328" result="shape"/>
</filter>
</defs>
</svg>
