<svg width="528" height="208" viewBox="0 0 528 208" fill="none" xmlns="http://www.w3.org/2000/svg">
<g filter="url(#filter0_d)">
<rect x="4" width="520" height="200" rx="6" fill="#FCFCFC"/>
<mask id="mask0" style="mask-type:alpha" maskUnits="userSpaceOnUse" x="4" y="0" width="520" height="200">
<rect x="4" width="520" height="200" rx="6" fill="white"/>
</mask>
<g mask="url(#mask0)">
<path fill-rule="evenodd" clip-rule="evenodd" d="M348 193.611C348 180.295 337.205 169.5 323.889 169.5L257 169.5V239.5C257 241.709 258.791 243.5 261 243.5H344C346.209 243.5 348 241.709 348 239.5L348 193.611Z" fill="#DFDFDF"/>
<path fill-rule="evenodd" clip-rule="evenodd" d="M297 116.944C297 103.834 286.525 93.1259 273.418 92.8383L258 92.5V176.5H297V116.944Z" fill="#DFDFDF"/>
<path fill-rule="evenodd" clip-rule="evenodd" d="M289 116.611C289 103.295 278.205 92.5 264.889 92.5H205.84C193.778 92.5 184 102.278 184 114.34V175.753C184 176.718 184.782 177.5 185.747 177.5H289V116.611Z" fill="#F2F2F2"/>
<path fill-rule="evenodd" clip-rule="evenodd" d="M214 108.241C214 99.5477 206.952 92.5 198.259 92.5C190.384 92.5 184 98.8838 184 106.759V167.753C184 168.718 184.782 169.5 185.747 169.5H214V108.241Z" fill="#DFDFDF"/>
<path fill-rule="evenodd" clip-rule="evenodd" d="M340 190.1C340 183.141 334.359 177.5 327.4 177.5H262V233.5H340V190.1Z" fill="#F2F2F2"/>
<path fill-rule="evenodd" clip-rule="evenodd" d="M258.605 84.6667C248.154 82.2296 247.466 67.8651 255.412 62.8823C247.217 45.6819 266.167 28.604 279.147 39.1362C287.656 35.4889 294.728 49.7215 286.809 60.7755C290.129 79.7556 283.373 84.6617 271.193 84.8701L258.605 84.6667Z" fill="#33373E"/>
<path fill-rule="evenodd" clip-rule="evenodd" d="M258.735 81.2364C258.735 81.2364 263.819 80.0413 263.996 71.6998C264.172 63.3583 264.048 60.5109 264.048 60.5109L275.247 60.3086C275.247 60.3086 275.369 69.605 275.37 72.9676C275.375 81.999 281.66 81.2364 281.66 81.2364C281.66 81.2364 280.353 88.5594 270.206 89.1307C262.283 89.5775 258.735 81.2364 258.735 81.2364Z" fill="#EDC2C2"/>
<path fill-rule="evenodd" clip-rule="evenodd" d="M261.438 56.3453C256.442 56.1517 257.257 63.4747 262.447 63.4648C262.447 63.4648 265.461 73.8676 275.925 73.8676C284.424 73.8676 284.977 61.743 285.054 59.3242C285.137 56.7453 285.147 48.2728 285.147 48.2728L261.243 48.2617L261.438 56.3453Z" fill="#FFD7D7"/>
<path d="M273.908 66.8789C273.908 66.8789 276.4 68.9923 279.287 67.0133" stroke="#F77B7B" stroke-width="1.5" stroke-linecap="round"/>
<path d="M275.553 69.326C276.328 69.6843 277.075 69.7104 277.741 69.3532" stroke="#F49494" stroke-linecap="round"/>
<path d="M261.947 60.2833C261.998 59.1086 261.64 58.1757 260.444 57.9883" stroke="#F77B7B" stroke-linecap="round"/>
<path fill-rule="evenodd" clip-rule="evenodd" d="M260.647 55.4408C260.647 55.4408 263.385 59.1198 263.94 59.1394C264.495 59.1589 264.689 54.3545 264.689 54.3545C268.048 54.0976 276.548 52.4026 278.632 48.4537C280.089 51.9379 282.875 53.4856 284.705 53.1884L285.052 60.5906L285.906 45.709H259.978L260.647 55.4408Z" fill="#33373E"/>
<path fill-rule="evenodd" clip-rule="evenodd" d="M271.113 148.448C278.908 148.797 322.295 158.406 330.177 160.039C338.06 161.671 344.724 170.505 338.713 180.734C331.962 192.216 314.543 224.826 310.314 232.177C308.22 235.816 297.66 233.776 300.141 227.669C304.765 216.285 306.912 187.686 318.702 177.258C318.702 177.258 279.054 184.168 261.927 176.253C249.48 170.5 252.296 147.606 271.113 148.448Z" fill="#33373E"/>
<path fill-rule="evenodd" clip-rule="evenodd" d="M326.346 102.29C326.346 102.29 326.258 95.9383 328.477 92.6191C330.695 89.2998 330.784 85.7741 332.463 85.8895C334.142 86.0049 332.479 94.2 332.479 94.2C332.479 94.2 334.61 93.385 336.14 92.354C337.671 91.3231 342.312 86.2407 343.397 87.1413C345.235 88.6759 342.273 97.3321 340.66 99.0627C339.042 100.794 330.2 106.486 330.2 106.486L326.346 102.29Z" fill="#FFD7D7"/>
<path fill-rule="evenodd" clip-rule="evenodd" d="M278.441 98.4839C282.068 106.906 288.707 122.377 291.445 126.993C294.875 132.774 300.284 135.32 306.617 131.032C313.272 126.525 331.596 108.947 332.133 104.966C332.666 100.984 328.181 96.2069 324.123 98.6803C320.065 101.154 303.202 115.206 303.202 115.206C303.202 115.206 296.397 97.7371 290.922 87.6178C286.181 78.8629 272.922 85.6805 278.441 98.4839Z" fill="#675CD7"/>
<path fill-rule="evenodd" clip-rule="evenodd" d="M303.272 115.214C303.272 115.214 305.1 121.422 305.528 121.063C305.955 120.703 305.201 113.592 305.201 113.592L303.272 115.214Z" fill="black" fill-opacity="0.302803"/>
<path d="M349.384 86.6507C349.793 85.3901 349.104 84.0361 347.843 83.6265L338.758 80.6746C337.497 80.265 336.143 80.9549 335.734 82.2155L328.335 104.987C327.925 106.248 328.615 107.602 329.876 108.012L338.961 110.963C340.221 111.373 341.575 110.683 341.985 109.423L349.384 86.6507Z" fill="#7596FF"/>
<rect width="14.3525" height="28.7437" rx="2.4" transform="matrix(-0.951057 -0.309017 -0.309017 0.951057 349.214 83.6748)" fill="#93C2F9"/>
<path d="M346.457 83.8585L345.422 83.5222C345.211 83.4536 344.986 83.5488 344.884 83.7377L344.852 83.8128C344.775 84.0504 344.52 84.1805 344.283 84.1034L339.291 82.4814C339.08 82.4129 338.954 82.2037 338.983 81.9912L339.001 81.9116C339.078 81.674 338.949 81.4189 338.711 81.3419L337.681 81.0072C336.916 80.7586 336.097 81.1447 335.792 81.8754L335.748 81.9949L328.545 104.232C328.232 105.202 328.762 106.244 329.73 106.56L337.92 109.221C338.847 109.524 339.84 109.051 340.201 108.159L340.246 108.035C340.246 108.035 340.246 108.034 340.245 108.033L347.447 85.8017C347.709 84.9912 347.266 84.1215 346.457 83.8585Z" fill="#E6F3FF"/>
<path fill-rule="evenodd" clip-rule="evenodd" d="M242.202 88.3364C242.202 88.3364 250.94 117.637 251.199 123.183C251.458 128.73 244.052 145.032 245.313 149.152C248.22 158.674 285.338 162.774 286.756 149.965C287.418 143.991 286.041 138.63 287.627 131.591C289.207 124.552 295.56 114.092 291.957 104.258C288.354 94.4238 289.319 85.3258 286.742 83.6061C284.165 81.8865 278.141 80.0602 278.141 80.0602C275.212 84.3769 265.323 84.3141 260.604 79.7559C260.604 79.7559 248.881 82.033 242.202 88.3364Z" fill="#7367F0"/>
<path fill-rule="evenodd" clip-rule="evenodd" d="M250.032 93.0815C255.857 102.338 255.84 118.454 258.968 120.565C262.096 122.676 274.272 120.605 274.272 122.276C274.272 123.948 257.446 139.266 260.208 146.589C261.655 150.424 261.262 153.854 259.031 156.881L258.303 156.722C251.673 155.221 246.343 152.527 245.313 149.152C244.052 145.031 252.312 128.729 252.053 123.182C251.833 118.474 244.888 96.6498 242.793 90.1606C244.499 87.1482 246.911 88.1216 250.032 93.0815Z" fill="black" fill-opacity="0.199355"/>
<path fill-rule="evenodd" clip-rule="evenodd" d="M259.965 117.64C259.965 117.64 267.326 111.117 269.579 110.36C271.832 109.603 285.029 108.693 284.945 110.404C284.851 112.237 277.763 112.131 277.028 113.033C276.294 113.934 276.127 120.096 273.351 120.788C270.58 121.48 262.274 122.672 262.274 122.672L259.965 117.64Z" fill="#FFD7D7"/>
<path fill-rule="evenodd" clip-rule="evenodd" d="M240.384 90.0199C232.629 100.979 226.008 117.673 223.467 124.181C220.926 130.689 223.489 140.506 234.664 138.579C245.819 136.656 263.567 126.212 265.531 123.166C267.495 120.119 264.512 114.575 260.755 115.301C257.274 115.972 240.01 123.323 240.01 123.323C240.01 123.323 251.117 103.609 253.829 98.3246C258.359 89.4989 247.214 80.3638 240.384 90.0199Z" fill="#675CD7"/>
<path fill-rule="evenodd" clip-rule="evenodd" d="M240.186 123.188C240.186 123.188 234.369 126.082 235.078 124.869C235.788 123.655 242.406 119.391 242.406 119.391L240.186 123.188Z" fill="black" fill-opacity="0.302803"/>
<path fill-rule="evenodd" clip-rule="evenodd" d="M245.833 145.15C245.833 145.15 234.5 169.117 250.427 177.346C265.829 185.305 311.938 175.892 311.938 175.892C311.938 175.892 311.114 182.535 311.938 188.459C314.09 203.932 324.324 229.71 326.49 232.95C329.484 237.429 338.605 234.051 338.777 230.321C338.949 226.591 331.901 178.956 330.829 169.872C329.763 160.788 326.397 159.468 316.564 156.985C314.306 156.414 287.594 149.767 285.147 149.961C264.121 151.626 245.833 145.15 245.833 145.15Z" fill="#42474F"/>
<path fill-rule="evenodd" clip-rule="evenodd" d="M258.257 174.873C273.505 176.584 313.876 173.058 315.497 174.66C317.045 176.19 316.787 202.809 320.259 218.215L319.731 216.76C316.465 207.678 313.075 196.631 311.938 188.459C311.114 182.535 311.938 175.892 311.938 175.892L310.079 176.253C301.314 177.901 263.981 184.35 250.427 177.347C243.083 173.552 240.086 167.248 241.436 158.434C243.761 168.396 249.368 173.876 258.257 174.873Z" fill="#52565E"/>
<ellipse cx="337.332" cy="171.091" rx="2.56312" ry="4.70476" transform="rotate(13 337.332 171.091)" fill="#52565E"/>
<ellipse cx="325.372" cy="168.097" rx="3.41761" ry="5.13229" transform="rotate(-16 325.372 168.097)" fill="#52565E"/>
<path fill-rule="evenodd" clip-rule="evenodd" d="M275 193.611C275 180.295 264.205 169.5 250.889 169.5L184 169.5V241.753C184 242.718 184.782 243.5 185.747 243.5H275L275 193.611Z" fill="#DFDFDF"/>
<path fill-rule="evenodd" clip-rule="evenodd" d="M323 30.5532C323 28.8669 324.367 27.5 326.053 27.5H326.524C327.95 27.5 329.106 28.6562 329.106 30.0824C329.106 30.5171 329.459 30.8695 329.893 30.8695H346.733C348.942 30.8695 350.733 32.6604 350.733 34.8695V46.4565C350.733 48.6657 348.942 50.4565 346.733 50.4565H327C324.791 50.4565 323 48.6657 323 46.4565V30.5532Z" fill="url(#paint0_linear)"/>
<path fill-rule="evenodd" clip-rule="evenodd" d="M329.386 30.6129C329.481 30.0217 329.991 29.5869 330.59 29.5869H350.37C351.12 29.5869 351.692 30.2585 351.573 30.9995L348.614 49.4305C348.52 50.0217 348.009 50.4565 347.411 50.4565H327.631C326.88 50.4565 326.308 49.7849 326.427 49.0439L329.386 30.6129Z" fill="url(#paint1_linear)"/>
<path fill-rule="evenodd" clip-rule="evenodd" d="M350.128 34.8047C352.649 34.8047 354.542 37.1102 354.051 39.5838L352.964 45.0587C352.22 48.803 348.934 51.5003 345.117 51.5003H327.872C325.351 51.5003 323.458 49.1949 323.949 46.7212L325.036 41.2464C325.78 37.502 329.066 34.8047 332.883 34.8047L350.128 34.8047Z" fill="#FFCC7B"/>
<path fill-rule="evenodd" clip-rule="evenodd" d="M152.522 169.832C145.757 154.831 139.612 139.425 133.986 123.679C146.945 135.652 157.022 150.238 155.587 169.832H152.522Z" fill="#57E295"/>
<path fill-rule="evenodd" clip-rule="evenodd" d="M156.127 171.398C157.728 145.82 157.05 122.065 143.631 108.5C145.482 136.584 148.944 156.367 153.329 171.398H156.127Z" fill="#28C76F"/>
<path fill-rule="evenodd" clip-rule="evenodd" d="M156.743 168.734C164.24 150.86 171.773 145.736 178 127.389C157.62 137.748 156.343 146.302 152.343 168.734H156.743Z" fill="#57E295"/>
<path fill-rule="evenodd" clip-rule="evenodd" d="M160.778 168.735L174.227 150.86C167.731 152.675 156.875 155.614 156.875 168.735H160.778Z" fill="#28C76F"/>
<path fill-rule="evenodd" clip-rule="evenodd" d="M148.199 168.734H143.713C140.862 162.899 136.844 158.881 127.124 163.751C133.495 154.237 146.568 151.358 148.199 168.734Z" fill="#57E295"/>
<path fill-rule="evenodd" clip-rule="evenodd" d="M152.326 168.734H148.595C141.748 159.135 138.804 154.952 131.718 146.755C141.053 150.227 150.634 154.952 152.326 168.734Z" fill="#28C76F"/>
<path fill-rule="evenodd" clip-rule="evenodd" d="M161.705 167.349H142.858C142.14 167.349 141.558 167.916 141.558 168.616V172.102C136.792 177.964 134.409 183.827 134.409 189.689C134.409 195.371 136.444 201.053 140.514 206.735C140.757 207.074 141.155 207.277 141.579 207.277H162.983C163.408 207.277 163.806 207.074 164.049 206.735C168.119 201.053 170.154 195.371 170.154 189.689C170.154 183.937 167.86 178.186 163.272 172.434L163.005 172.102V168.616C163.005 167.916 162.423 167.349 161.705 167.349Z" fill="#7367F0"/>
<mask id="mask1" style="mask-type:alpha" maskUnits="userSpaceOnUse" x="134" y="167" width="37" height="41">
<path fill-rule="evenodd" clip-rule="evenodd" d="M161.705 167.349H142.858C142.14 167.349 141.558 167.916 141.558 168.616V172.102C136.792 177.964 134.409 183.827 134.409 189.689C134.409 195.371 136.444 201.053 140.514 206.735C140.757 207.074 141.155 207.277 141.579 207.277H162.983C163.408 207.277 163.806 207.074 164.049 206.735C168.119 201.053 170.154 195.371 170.154 189.689C170.154 183.937 167.86 178.186 163.272 172.434L163.005 172.102V168.616C163.005 167.916 162.423 167.349 161.705 167.349Z" fill="white"/>
</mask>
<g mask="url(#mask1)">
<path fill-rule="evenodd" clip-rule="evenodd" d="M174.703 166.251H157.806C165.895 184.615 149.938 195.49 157.806 213.784H174.703V166.251Z" fill="#857AF9"/>
</g>
</g>
</g>
<defs>
<filter id="filter0_d" x="0" y="0" width="528" height="208" filterUnits="userSpaceOnUse" color-interpolation-filters="sRGB">
<feFlood flood-opacity="0" result="BackgroundImageFix"/>
<feColorMatrix in="SourceAlpha" type="matrix" values="0 0 0 0 0 0 0 0 0 0 0 0 0 0 0 0 0 0 127 0" result="hardAlpha"/>
<feOffset dy="4"/>
<feGaussianBlur stdDeviation="2"/>
<feComposite in2="hardAlpha" operator="out"/>
<feColorMatrix type="matrix" values="0 0 0 0 0 0 0 0 0 0 0 0 0 0 0 0 0 0 0.25 0"/>
<feBlend mode="normal" in2="BackgroundImageFix" result="effect1_dropShadow"/>
<feBlend mode="normal" in="SourceGraphic" in2="effect1_dropShadow" result="shape"/>
</filter>
<linearGradient id="paint0_linear" x1="352.909" y1="46.1354" x2="352.909" y2="19.577" gradientUnits="userSpaceOnUse">
<stop stop-color="#FF8C19"/>
<stop offset="1" stop-color="#FFC967"/>
</linearGradient>
<linearGradient id="paint1_linear" x1="349.634" y1="36.136" x2="349.634" y2="23.8524" gradientUnits="userSpaceOnUse">
<stop stop-color="#F8FDFF"/>
<stop offset="1" stop-color="#AAD4FF"/>
</linearGradient>
</defs>
</svg>
